<?xml version="1.0" encoding="UTF-8"?>
<svg id="Layer_1" data-name="Layer 1" xmlns="http://www.w3.org/2000/svg" xmlns:xlink="http://www.w3.org/1999/xlink" viewBox="0 0 2342 955">
  <defs>
    <style>
      .cls-1, .cls-2, .cls-3, .cls-4, .cls-5, .cls-6, .cls-7, .cls-8 {
        stroke-miterlimit: 10;
      }

      .cls-1, .cls-2, .cls-4, .cls-5, .cls-6, .cls-8 {
        stroke: #231f20;
      }

      .cls-1, .cls-6 {
        stroke-width: 1.33px;
      }

      .cls-2 {
        fill: #0093ac;
      }

      .cls-2, .cls-8 {
        stroke-width: 2.14px;
      }

      .cls-9 {
        fill: none;
      }

      .cls-3 {
        stroke: #1c262d;
        stroke-width: 3px;
      }

      .cls-3, .cls-6 {
        fill: #fff;
      }

      .cls-10 {
        filter: url(#drop-shadow-1);
      }

      .cls-4 {
        fill: #f3753e;
      }

      .cls-4, .cls-5 {
        stroke-width: 4px;
      }

      .cls-5 {
        fill: #9fcfd8;
      }

      .cls-7 {
        fill: #244584;
        stroke: #000;
        stroke-width: 3.92px;
      }

      .cls-8 {
        fill: #f5bc46;
      }
    </style>
    <filter id="drop-shadow-1" x="715.65" y="284.64" width="852.05" height="255" filterUnits="userSpaceOnUse">
      <feOffset dx="5.35" dy="7.49"/>
      <feGaussianBlur result="blur" stdDeviation="0"/>
      <feFlood flood-color="#000" flood-opacity="1"/>
      <feComposite in2="blur" operator="in"/>
      <feComposite in="SourceGraphic"/>
    </filter>
  </defs>
  <polygon class="cls-7" points="1628.24 682.88 589.16 574.73 645.2 120.36 1684.28 228.52 1628.24 682.88"/>
  <rect class="cls-5" x="639" y="192.81" width="1000" height="442"/>
  <rect class="cls-9" width="2106" height="955"/>
  <rect class="cls-9" x="421" y="372.81" width="1921" height="478"/>
  <g>
    <g class="cls-10">
      <path class="cls-3" d="M844.98,292.94v14.94h-53.85v59.03h59.62v14.94h-59.62v42.16h-15.53v-42.16h-58.44v-14.94h58.44v-59.03h-53.7v-14.94h123.09ZM752.96,326.08c2.66,2.66,4.14,6.07,4.14,10.21s-1.63,7.54-4.73,10.21c-3.11,2.37-6.21,3.55-9.17,3.55-3.85,0-7.25-1.48-9.91-4.73-2.37-2.81-3.4-5.77-3.4-9.02,0-3.55.89-6.66,2.96-9.32,2.81-2.66,6.21-3.99,10.36-3.99,3.55,0,6.81,1.04,9.76,3.11ZM832.7,326.08c2.66,2.66,4.14,6.07,4.14,10.21s-1.63,7.54-4.73,10.21c-3.11,2.37-6.21,3.55-9.17,3.55-3.85,0-7.25-1.48-9.91-4.73-2.37-2.81-3.4-5.77-3.4-9.02,0-3.55.89-6.66,2.96-9.32,2.81-2.66,6.21-3.99,10.36-3.99,3.55,0,6.81,1.04,9.76,3.11Z"/>
      <path class="cls-3" d="M919.53,288.8c-.44,2.07-.89,3.99-1.18,5.77h42.9v13.91h-17.9c3.25,3.7,6.81,7.25,10.36,10.5l-12.13,9.76c-6.81-6.81-12.57-13.46-17.6-20.27h-8.88c-1.92,7.1-4.14,14.35-6.51,21.45l-14.94-4.14c4.73-12.72,8.29-25.59,10.95-38.61l14.94,1.63ZM986.55,288.8c-.44,2.07-.89,3.99-1.18,5.77h42.9v13.91h-16.72c3.85,3.7,7.84,7.25,11.98,10.5l-12.13,9.76c-7.69-6.66-14.65-13.46-20.56-20.27h-8.88c-1.78,6.21-3.7,12.28-5.77,18.49l-5.77-1.48v7.25h54.89v13.91h-54.89v9.76h47.34v14.5h-9.76v9.76h17.9v14.5h-17.9v14.5c0,4.59-1.33,7.99-3.7,10.36-2.66,2.37-6.81,3.55-12.58,3.55h-6.21c-10.65,0-22.78-.89-36.39-2.37l-1.78-13.32c14.79,1.48,27.96,2.37,39.2,2.37,3.85,0,5.92-1.48,5.92-4.73v-10.36h-61.25c.59.3,1.04.74,1.63,1.04,2.37,2.37,3.55,5.33,3.55,8.88s-1.33,6.07-3.99,8.43c-2.66,2.07-5.18,3.11-7.54,3.11-3.55,0-6.36-1.33-8.73-3.99-2.07-2.52-2.96-4.88-2.96-7.55,0-3.11.89-5.77,2.66-8.14.74-.59,1.48-1.18,2.37-1.78h-18.79v-14.5h93.06v-9.76h-82.7v-14.5h45.12v-9.76h-55.48v-13.91h55.48v-11.54h6.51c4.44-11.39,7.84-22.78,10.21-34.03l14.94,1.63Z"/>
      <path class="cls-3" d="M1096.02,305.07v-16.27h14.35v16.27h9.32v8.14c5.62-9.32,11.39-17.75,17.31-25.45l8.58,10.36c-4.88,5.33-10.21,11.98-16.13,20.27,0,.74.15,1.04.59,1.04h6.66c3.85-5.33,7.54-10.36,11.24-14.94l5.03,4.14c-.89-6.21-1.48-12.43-2.07-18.64l12.72-1.78c.89,10.65,2.37,21.3,4.14,31.96.44-2.22,1.33-4.73,2.81-7.4,5.18-9.17,10.5-17.46,16.13-25l8.58,10.36c-4.44,5.03-9.17,11.39-14.35,19.08,0,.89.15,1.18.59,1.18h6.36c3.25-4.88,6.51-9.47,9.76-13.91l9.32,7.54c-4.73,6.21-9.76,13.61-15.09,22.19l10.95-2.07c1.78,8.58,4.14,17.01,6.95,25.45l-11.98,2.37c.59,1.33,1.04,2.66,1.04,3.99,0,2.07-.74,3.85-1.92,5.18h9.47v13.31h-9.32l8.73,9.32c-4.73,3.55-9.62,7.25-14.79,10.8,2.37,5.92,4.88,11.84,7.84,18.05l-14.5,3.99c-2.07-4.59-3.85-9.17-5.62-13.61-6.51,4.29-13.31,8.58-20.42,13.02l-8.58-10.36c8.43-4.88,16.57-9.91,24.26-15.24-2.07-5.33-3.85-10.65-5.47-15.98h-25c-.3,1.18-.44,2.07-.59,2.96,6.07,5.92,11.39,11.39,15.98,16.72l-11.54,8.14c-2.66-2.96-5.18-6.07-7.84-9.02-1.78,7.4-3.85,14.79-6.07,22.34l-14.35-3.55c4.14-12.57,7.25-25.15,9.62-37.58h-10.8v-10.36l-3.4,3.99c-1.48-1.33-2.96-2.66-4.14-3.99v51.48h-14.35v-66.87c-2.22-2.37-4.29-4.88-6.21-7.55-2.07,30.18-4.14,54-5.92,71.46l-13.91-1.18c2.81-26.93,5.33-60.51,7.55-100.45h-4.73v-13.91h23.23ZM1096.02,334.51v-15.53h-4.44c-.59,7.84-1.04,15.24-1.33,22.34l5.77-6.81ZM1162.3,360.4c-3.55-14.2-6.21-29-8.29-44.24-4.44,5.77-9.32,12.28-14.35,19.38l11.24-2.22c1.78,9.17,3.99,18.2,6.95,27.22l-12.72,2.81c-.59-2.07-1.18-4.14-1.63-6.21-8.28,2.37-13.46,3.4-15.83,3.4-6.95,0-10.36-2.81-10.36-8.73,0-2.22,1.04-5.33,3.4-9.32,2.96-4.44,5.92-8.88,8.88-13.17-4.88,0-8.29-.3-10.06-1.18-2.37-.74-3.4-2.22-3.4-4.59,0-1.33.15-2.81.74-4.59h-6.51v32.1c4.29,4.59,8.88,9.02,13.91,13.46l-3.85,4.59h44.09c-.89-2.96-1.63-5.77-2.22-8.73ZM1138.93,336.58c-1.78,2.66-3.4,5.18-5.18,7.54-1.33,1.92-1.92,3.11-1.92,3.7,0,1.18.44,1.78,1.63,1.78,1.04,0,3.55-.74,7.69-2.51-.89-3.55-1.63-7.1-2.22-10.5ZM1172.51,343.83c.44-1.48,1.04-2.96,1.92-4.59,2.37-3.85,4.59-7.54,6.95-11.1-4.88,0-8.29-.3-10.06-1.04-1.18-.3-2.07-.89-2.52-1.63,1.04,6.21,2.22,12.28,3.7,18.35ZM1182.57,363.95c0-2.07.59-3.99,1.92-5.62,1.63-1.48,3.7-2.37,6.21-2.37,2.07,0,3.85.74,5.62,1.92.3.44.74.89,1.04,1.18-.59-1.92-1.18-3.7-1.63-5.47-7.1,2.37-11.69,3.4-13.61,3.4-3.11,0-5.47-.59-7.1-1.78,1.04,4.59,2.37,9.17,3.85,13.91h5.62c-1.33-1.63-1.92-3.4-1.92-5.18ZM1195.74,382.45h-12.43c.89,2.52,1.78,5.03,2.66,7.4,3.4-2.37,6.66-4.88,9.76-7.4ZM1191,335.7c-1.18,1.92-2.22,3.7-3.26,5.33-1.18,1.78-1.63,2.81-1.63,3.25,0,1.18.59,1.78,1.78,1.78.59,0,2.37-.59,5.18-2.07-.89-2.81-1.48-5.62-2.07-8.29Z"/>
      <path class="cls-3" d="M1293.67,292.94q-.15.3,0,.15c7.4-1.63,14.05-2.96,20.12-3.85,9.17-1.33,16.27-2.07,21.01-2.07h4.44c5.62,0,10.8,2.07,15.39,6.21,5.92,5.77,16.42,19.53,31.51,41.13l-14.35,8.14c-.15,4.29-.59,8.88-1.48,13.76h2.52v13.91h-95.28v1.18h-15.09v-27.52c-.3.59-.59.89-.59.89l-14.35-7.4c12.28-16.87,22.93-33.88,31.81-50.89l14.35,6.36ZM1280.95,373.87v1.78c30.48-1.92,52.82-2.96,66.72-2.96h4.44c7.1,0,12.13,1.63,15.09,4.73,2.96,2.96,4.59,7.25,4.59,12.58s-.44,11.1-1.33,17.31h2.37v13.91h-91.87v2.37h-15.54v-49.71h15.54ZM1348.11,325.19h4.59c2.96,0,5.62.3,7.84.89-2.66-4.14-5.03-7.84-7.25-11.39v6.51h-72.34v-5.47c-2.52,4.14-5.03,8.14-7.4,11.84h3.99v2.22c32.25-2.96,55.77-4.59,70.57-4.59ZM1289.23,356.41c-.89-.44-1.78-1.04-2.51-1.92-1.48-1.92-2.22-3.99-2.22-6.07,0-2.51.59-4.73,2.07-6.51.59-.59,1.33-1.18,1.92-1.48-3.7.3-7.4.74-10.95,1.04v14.94h11.69ZM1356.1,389.99v-2.37c0-2.66-1.78-3.99-5.18-3.99-17.46,0-40.68,1.04-69.98,2.96v3.4h75.15ZM1354.77,407.3c.15-1.63.3-3.11.44-4.59h-74.27v4.59h73.82ZM1348.7,307.88c-.89-1.18-1.78-2.37-2.52-3.55-3.25-3.25-6.66-5.03-10.36-5.03-5.92,0-13.02.59-21.6,1.63-8.88,1.18-18.05,2.81-27.52,4.88-.44.89-.89,1.48-1.18,2.07h63.17ZM1309.35,356.41v-17.75c-4.14.3-8.14.74-12.28,1.04,1.18.44,2.22,1.04,3.11,1.63,1.78,1.78,2.81,4.14,2.81,7.1,0,2.66-1.18,5.03-3.25,6.81-.59.59-1.18.89-1.78,1.18h11.39ZM1337.31,356.41c-1.48-.44-2.66-1.33-3.7-2.52-1.63-1.92-2.37-3.99-2.37-6.07,0-2.51.59-4.73,2.07-6.51,1.92-1.78,4.29-2.81,7.25-2.81,2.37,0,4.44.74,6.51,2.22,1.78,1.92,2.66,4.29,2.66,7.1,0,2.66-1.03,5.03-3.11,6.81-1.18.89-2.07,1.48-2.96,1.78h11.39c1.03-5.92,1.63-11.1,1.63-15.53,0-2.66-1.63-3.99-4.59-3.99-8.14,0-17.46.3-27.81.89v18.64h13.02Z"/>
      <path class="cls-3" d="M1557.3,295.75v15.09h-54.89v50.3h-16.13v-38.02c-16.86,12.72-32.1,23.67-45.71,32.84l-12.13-9.91c15.09-10.06,30.77-21.9,47.19-35.21h-47.78v-15.09h129.45ZM1452.11,366.32v3.11c34.77-3.55,60.07-5.47,76.04-5.47h4.88c7.1,0,12.13,1.63,15.24,4.73,2.96,2.96,4.44,7.25,4.44,12.58,0,7.4-.74,15.68-2.22,24.85h10.36v14.5h-133v-14.5h8.73v-39.8h15.53ZM1469.57,406.12v-25.15c-5.62.59-11.54,1.33-17.46,1.92v23.23h17.46ZM1503.59,406.12v-27.81c-5.92.3-12.13.74-18.49,1.33v26.48h18.49ZM1558.48,344.87l-13.31,9.91c-11.1-9.47-23.23-18.64-36.39-27.81l12.13-9.17c14.2,9.32,26.78,18.35,37.58,27.07ZM1534.81,406.12c1.48-9.47,2.37-17.46,2.37-24.26,0-2.96-1.78-4.59-5.33-4.59-4.14,0-8.29.15-12.72.3v28.55h15.68Z"/>
      <path class="cls-3" d="M734.33,457.17v3.45c9.31-.93,17.69-1.77,25.14-2.33v-14.16h10.15v13.5c5.21-.28,9.87-.47,13.78-.47h4.1c6.24,0,10.71,1.21,13.32,3.63,2.7,2.51,4.1,6.89,4.1,13.13,0,9.13-.56,17.79-1.49,25.8h2.23v9.87h-36.04v21.05h-10.15v-21.05h-25.14v2.51h-10.15v-54.94h10.15ZM759.47,499.73v-32.78c-7.92.56-16.3,1.21-25.14,2.14v30.64h25.14ZM769.62,499.73h23.37c.93-8.75,1.4-16.86,1.4-24.3,0-3.73-.65-6.33-1.95-7.64-1.21-1.21-3.07-1.86-5.68-1.86-5.4,0-11.17.19-17.13.47v33.34Z"/>
      <path class="cls-3" d="M860.22,449.25l3.45-4.1c2.61,1.86,5.4,3.73,8.57,5.59,2.79-1.86,5.49-3.73,8.1-5.59l4.75,4.75c-2.05,1.49-4.28,2.98-6.52,4.47,2.42,1.4,5.03,2.79,7.64,4.1v-1.3h13.97c-.19-1.68-.37-2.89-.65-3.54-.28-.75-.93-1.12-2.05-1.12-1.3,0-5.12.47-11.27,1.4l-1.49-6.52c7.54-1.49,12.85-2.24,16.02-2.24h1.68c3.26,0,5.31,1.3,6.05,3.91.65,2.42,1.02,7.08,1.02,14.06,0,5.4-.56,11.55-1.49,18.35,4.19,1.96,6.33,5.22,6.52,9.87,0,3.54-.84,7.54-2.51,12.01l-9.41-1.4c1.58-4.75,2.42-7.82,2.51-9.13-.19-2.79-1.68-4.56-4.47-5.21-4.47-.84-10.06-1.3-16.58-1.3-10.62,0-25.42,1.3-44.42,3.91v13.5h-9.5v-24.03h5.49v-34.55h9.03v2.51c1.68-.37,3.17-.75,4.47-1.21,2.42-.75,5.12-1.77,8.29-3.07l2.79,5.87ZM881.17,489.58c3.91,0,7.08.47,9.31,1.3,3.17,1.3,4.75,3.63,4.75,7.08,0,1.12-1.02,2.51-3.07,4.28-1.86,1.77-3.91,3.45-6.05,5.12h25.89v8.75h-28.68v1.12c0,6.71-1.4,10.43-4.19,11.08-1.86.84-5.59,1.3-11.17,1.3-5.87,0-12.29-.56-19.28-1.49l-1.4-7.64c8.66.93,15.92,1.49,21.79,1.49,1.49,0,2.42-.19,2.89-.47.75-.28,1.12-1.68,1.12-4.28,0-.37-.09-.74-.09-1.12h-42.09v-8.75h41.07c-.28-1.68-.65-3.35-1.02-5.03h6.98c1.68-.84,2.98-1.58,4.1-2.33,1.49-.93,2.33-1.49,2.33-1.68,0-.93-1.02-1.49-2.89-1.49-5.4,0-10.99.47-16.76,1.4-5.4.93-11.73,2.23-18.9,4.1l-1.4-6.98c6.43-1.77,12.57-3.17,18.53-4.1,6.15-1.12,11.45-1.68,16.02-1.68h2.23ZM862.55,480.08l-3.63-4.28c2.51-1.3,4.94-2.61,7.36-4-2.33-1.3-4.56-2.61-6.61-4l3.45-4.19-4.19-4.94c2.42-1.3,4.75-2.7,6.98-4-2.14-1.3-4.19-2.61-6.05-4-2.89,1.21-5.49,2.14-7.82,2.79-2.23.75-4.75,1.4-7.36,2.05v1.68h13.5v7.26h-13.5v4.38h13.5v7.26h-13.5v6.05c6.8-.84,12.76-1.49,17.88-2.05ZM879.03,479.05h1.12c-2.7-1.3-5.21-2.51-7.54-3.82-2.79,1.58-5.77,3.17-8.75,4.75,6.33-.56,11.45-.93,15.18-.93ZM872.7,467.97c2.79-1.68,5.4-3.35,7.82-5.03-2.98-1.49-5.68-2.98-8.29-4.47-2.51,1.58-5.12,3.07-7.73,4.56,2.51,1.68,5.22,3.35,8.2,4.94ZM886.2,474.86v-6.05h13.97c.09-1.49.19-2.98.19-4.38h-14.16v-5.31l-3.63,4.28,3.63,3.63c-2.23,1.49-4.66,2.89-7.08,4.38,2.42,1.21,4.75,2.33,7.08,3.45ZM885.45,479.05c5.4,0,10.06.19,13.78.56.09-1.21.19-2.42.37-3.54h-13.41v-.56l-3.07,3.54h2.33Z"/>
      <path class="cls-3" d="M953.98,456.8v-11.64h9.41v11.64h6.98v9.5h-6.98v24.49c3.26,3.73,6.8,7.45,10.62,11.17l-6.61,7.64c-1.49-1.4-2.79-2.79-4-4.19v24.21h-9.41v-35.2c-1.77-2.05-3.45-4.28-5.03-6.52-1.02,16.02-2.05,28.77-2.98,38.37l-9.5-1.02c1.49-15.83,2.89-35.48,4.1-58.95h-3.35v-9.5h16.76ZM953.98,479.05v-12.76h-3.82c-.37,6.61-.74,12.76-1.02,18.44l4.84-5.68ZM1000.17,445.16v8.38h19.28v9.5h-5.77c2.23,9.69,5.03,19.18,8.29,28.68l-10.15,2.23c-.65-1.96-1.21-3.91-1.77-5.77-2.42,4.66-5.12,9.03-8.1,13.13,4.84,6.52,11.36,14.15,19.37,22.82l-9.13,5.87c-6.24-6.89-11.83-13.5-16.67-20.11-4.66,5.77-10.62,12.29-17.88,19.74l-8.75-5.87c8.75-8.75,15.74-16.11,20.77-22.26-2.79-4.28-5.68-9.03-8.47-14.34-.93,2.33-1.86,4.56-2.79,6.8l-9.87-2.89c2.42-5.22,4.56-10.43,6.43-15.64,1.3-3.91,2.61-8.1,3.82-12.39h-5.87v-9.5h17.51v-8.38h9.78ZM996.17,492.93c3.91-5.77,7.17-12.01,9.78-18.72-1.12-3.73-2.05-7.45-2.89-11.18h-13.88c-1.21,4.56-2.42,8.66-3.54,12.29,3.17,6.05,6.71,11.92,10.52,17.6Z"/>
      <path class="cls-3" d="M1072.33,452.79c0,1.3-.93,4.47-2.79,9.41-1.68,5.12-3.63,10.34-5.96,15.74,5.77.09,8.66,3.17,8.75,9.13,0,8.1-.74,18.16-2.23,30.08-.56,4.47-3.91,6.8-10.15,6.98h-5.4v5.49h-9.5v-84.46h9.5v2.05c3.91-1.12,7.26-1.68,10.06-1.68h.84c4.56,0,6.89,2.42,6.89,7.26ZM1054.54,477.1c2.23-5.59,4.47-11.83,6.8-18.62.75-2.23,1.21-3.63,1.21-4.19,0-.74-.37-1.12-1.12-1.12-1.68,0-4,.47-6.89,1.21v22.72ZM1054.54,515.74h3.63c1.3,0,2.14-.75,2.42-2.24,1.3-9.41,1.96-17.97,1.96-25.79,0-1.4-.65-2.14-1.86-2.14-1.12,0-3.17.37-6.15,1.02v29.15ZM1090.12,447.95c3.91-.93,6.61-1.49,8.19-1.58l.93-.09h.65c4,0,6.05,2.14,6.24,6.24,0,.56-.19,1.21-.37,1.96,2.23,2.98,4.66,5.77,7.17,8.47.84-1.3,1.58-2.61,2.33-3.91,1.12-2.05,1.77-3.07,1.77-3.26,0-.47-.37-.75-1.03-.75-.75,0-2.98.37-6.89,1.12l-1.86-6.98c6.71-1.4,11.17-2.14,13.5-2.14h1.03c4.38,0,6.61,1.77,6.61,5.12,0,.65-.56,2.05-1.58,4.19-2.24,4.47-4.75,8.94-7.64,13.5,3.45,3.72,6.98,7.26,10.62,10.62l-6.89,6.61c-1.77-1.68-3.45-3.45-5.12-5.31v5.31h-30.17v-3.54c-2.42,2.98-5.03,5.96-7.64,8.94l-6.89-5.4c2.61-2.89,4.94-5.77,7.17-8.57-1.4-.93-2.61-1.86-3.63-2.79-.65,1.12-1.21,2.05-1.77,2.98l-8.01-4c6.15-10.06,11.36-20.11,15.64-30.17l7.64,3.45ZM1089.09,506.99c-3.35,7.17-6.98,14.15-10.99,21.14l-8.29-5.12c4.19-7.08,7.82-13.78,10.9-20.3l8.38,4.28ZM1128.02,493.21v8.75h-21.88v18.9c0,2.79-.65,4.84-1.96,6.24-1.4,1.4-3.63,2.14-6.71,2.14h-3.35c-2.14,0-4.56-.56-7.26-1.49l-1.03-8.01c3.35,1.02,6.43,1.49,9.03,1.49,1.21,0,1.86-.93,1.86-2.89v-16.39h-20.39v-8.75h51.68ZM1084.99,471.88c1.12-1.58,2.23-3.17,3.17-4.66-1.96-1.12-3.73-2.24-5.21-3.35-.75,1.58-1.58,3.07-2.33,4.56,1.49,1.3,2.89,2.42,4.38,3.45ZM1092.35,460.34c1.86-3.17,2.89-5.03,2.89-5.68,0-.47-.28-.75-.75-.75-.75,0-3.17.56-7.36,1.58-.19.37-.37.75-.47,1.03,1.86,1.4,3.82,2.7,5.68,3.82ZM1114.61,478.31c-4.47-4.94-8.85-10.06-12.94-15.46-2.7,5.03-6.05,10.15-9.96,15.46h22.91ZM1128.67,523.75l-9.03,4.75c-3.17-6.98-5.96-14.34-8.38-22.16l8.75-3.63c2.05,6.24,4.94,13.22,8.66,21.05Z"/>
      <path class="cls-3" d="M1169.26,444.78v5.87h9.03v8.38h-1.86c-.19,7.82-1.12,15.74-2.7,23.65h4.19v8.38h-8.66c-.37,3.72-.84,7.26-1.21,10.52,2.7-1.02,5.31-2.14,7.73-3.26l3.26,8.01c-3.73,1.86-7.82,3.54-12.29,5.12-1.03,7.36-2.05,13.32-2.98,18.16l-9.5-1.12c.75-4.19,1.58-8.66,2.33-13.5-1.68.56-3.26,1.02-4.84,1.49l-2.14-9.13c2.89-.75,5.68-1.49,8.38-2.33.56-4.47,1.12-9.13,1.68-13.97h-9.68v-8.38h4.1c-.84-6.7-1.21-12.94-1.21-18.81,0-1.58,0-3.17.09-4.84h-2.7v-8.38h9.5v-5.87h9.5ZM1164.79,482.69c1.68-8.85,2.61-16.76,2.89-23.65h-5.96c-.09,1.68-.09,3.35-.09,4.84,0,6.33.37,12.57,1.3,18.81h1.86ZM1198.69,444.78v8.01h8.38v8.75h-27.28v-8.75h9.4v-8.01h9.5ZM1189.56,494.33v1.49c3.35-.74,5.96-1.12,7.64-1.12h1.77c3.35,0,5.49.93,6.33,2.79.65,1.68,1.02,5.12,1.02,10.24,0,3.35-.28,6.98-.65,10.9h1.4v8.75h-17.51v1.86h-9.4v-34.92h9.4ZM1205.58,480.45v8.75h-24.68v-8.75h24.68ZM1205.58,466.67v8.75h-24.31v-8.75h24.31ZM1196.26,518.63c.37-4.19.56-7.82.56-10.9,0-2.42-.37-3.91-.93-4.56-.28-.28-1.02-.47-2.33-.47-.56,0-1.96.28-4,.65v15.27h6.71ZM1226.72,444.78v6.61h8.75v8.38h-1.58c-.28,7.64-1.3,15.27-2.98,22.91h4.19v8.38h-8.38v13.04h7.26v8.38h-7.26v17.14h-9.87v-17.14h-7.64v-8.38h7.64v-13.04h-8.66v-8.38h4.75c-1.49-6.43-2.24-12.57-2.24-18.35,0-1.49,0-2.98.09-4.56h-2.33v-8.38h8.75v-6.61h9.5ZM1221.97,482.69c1.77-8.57,2.79-16.2,3.17-22.91h-5.59c-.09,1.58-.09,3.07-.09,4.56,0,6.24.75,12.39,2.33,18.35h.19Z"/>
      <path class="cls-3" d="M1279.23,444.51v7.64h12.01v9.03h-33.52v-9.03h11.64v-7.64h9.87ZM1268.33,494.33v1.12c4.84-.93,8.66-1.49,11.64-1.49h1.4c4.1,0,6.61,1.21,7.54,3.45.56,1.96.84,6.33.84,13.13,0,2.98-.28,5.77-.74,8.47h1.49v9.13h-22.16v1.49h-9.5v-35.29h9.5ZM1289.38,466.67v8.75h-29.8v-8.75h29.8ZM1289.38,481.2v8.75h-29.8v-8.75h29.8ZM1279.6,519c.47-2.61.75-5.49.75-8.47l-.09-6.43s-.19-.56-.37-1.68c-.37-.56-.93-.84-1.77-.84-2.14,0-5.4.56-9.78,1.49v15.92h11.27ZM1309.4,445.9c-.28,1.3-.56,2.61-.84,3.73,7.73-2.98,12.48-4.47,14.34-4.47h.65c4.28,0,7.36,1.68,9.31,4.94,3.35,5.77,7.26,14.71,11.83,26.73l-9.13,2.61c-1.12-2.79-2.24-5.31-3.17-7.64h-29.99c-.93,2.7-1.77,5.31-2.7,7.92h3.17v1.49c13.22-1.12,22.44-1.77,27.57-1.77h2.51c4.56,0,7.17,2.14,7.73,6.33.47,2.98.74,8.01.74,15.18,0,9.41-.28,16.95-.84,22.63-.56,4-3.17,6.05-7.92,6.05-2.79,0-5.49-.19-8.01-.37l-.09-1.86h-5.68v-18.53h-4v18.53h-8.01v-18.53h-4.01v20.77h-9.5v-49.91h4.84l-8.1-2.14c4.47-10.9,7.82-21.79,10.15-32.78l9.13,1.12ZM1306.89,500.1v-11.73c-1.3.09-2.7.19-4.01.28v11.45h4.01ZM1328.4,463.04c-1.86-3.72-3.45-6.61-4.84-8.85-.56-.65-1.21-1.02-2.14-1.02s-5.87,1.68-14.9,5.03c-.47,1.68-.93,3.26-1.4,4.84h23.28ZM1314.89,500.1h4v-12.57c-1.3.19-2.61.28-4,.28v12.29ZM1326.91,500.1h5.4c-.09-5.03-.28-8.94-.56-11.55-.19-.93-.84-1.49-1.96-1.49-.75,0-1.68.09-2.89.09v12.94ZM1326.91,521.89c1.12,0,2.14.09,2.89.09,1.12,0,1.77-.65,1.77-1.86.28-3.54.47-7.26.65-11.27h-5.31v13.04Z"/>
      <path class="cls-3" d="M1382.68,446.27c-.84,8.75-1.58,16.67-2.14,23.65h26.82v9.78h-27.66c-1.49,17.69-2.14,29.61-2.14,35.67,0,3.73,1.68,5.49,5.12,5.49,6.33,0,14.43-.75,24.4-2.24l-1.49,8.75c-9.96,1.21-18.25,1.86-24.77,1.86-4.66,0-8.1-1.21-10.24-3.54-2.05-2.33-3.07-5.49-3.17-9.59,0-9.96,1.68-33.62,5.03-70.96l10.24,1.12ZM1422.35,446.27c-.65,8.38-1.21,15.92-1.58,22.82,8.94-1.68,17.32-3.63,25.14-6.05l3.35,8.75c-8.01,2.42-17.69,4.84-29.15,7.08-1.21,18.16-1.77,30.36-1.77,36.5,0,3.73,2.7,5.49,8.29,5.49,5.96,0,13.6-.75,23-2.24l-1.49,8.75c-9.31,1.21-17.14,1.86-23.28,1.86s-10.06-1.21-12.66-3.54c-2.61-2.33-3.91-5.49-4.1-9.59,0-9.96,1.3-33.62,4-70.96l10.24,1.12Z"/>
      <path class="cls-3" d="M1496.65,458.66v-2.51h8.75v2.51h17.41v-2.89h8.75v2.89h12.01v6.89h-12.01v1.86h13.13v6.52h-13.13v2.14h23.65v7.36h-5.87c2.14,3.54,4.66,7.36,7.64,11.27l-8.29,4.38c-.09,0-.09-.09-.09-.09-.19,4.38-.37,9.03-.75,13.88h1.21v6.89h-5.68c2.79,1.86,6.43,3.91,10.71,6.24l-8.75,4.28c-4.47-2.61-8.57-5.4-12.29-8.29l5.12-2.23h-42.93l5.03,2.61c-4.38,2.61-9.22,5.31-14.53,7.92l-8.38-5.03c3.07-1.4,5.87-2.7,8.38-4h-4.75v-23.19c-.56.65-1.12,1.21-1.49,1.68l-8.29-5.03c3.73-3.91,6.98-7.73,9.87-11.27h-8.47v-7.36h24.03v-2.14h-12.01v-6.52h12.01v-1.86h-10.89v-6.89h10.89ZM1519.55,443.76v3.26h8.29c9.13,0,15.83.56,20.02,1.68,5.4,1.68,8.29,5.31,8.47,10.71,0,2.42-.56,5.21-1.49,8.38l-9.5-1.49c.93-2.79,1.49-4.66,1.49-5.49-.19-2.79-1.58-4.56-4.28-5.12-4.38-.93-9.78-1.4-16.11-1.4-10.34,0-24.77,1.03-43.3,2.89v10.9h-9.41v-21.05h9.41v2.79c10.62-1.12,19.37-1.86,26.26-2.33v-3.73h10.15ZM1534.18,485.2h2.89c.93,0,1.86.09,2.79.28-.47-.74-.84-1.4-1.12-2.05h-46.1c-.84,1.21-1.68,2.33-2.51,3.45v.19c15.27-1.21,29.89-1.86,44.05-1.86ZM1539.58,494.7v-.37c0-1.68-1.02-2.61-2.89-2.61-14.9,0-30.45.65-46.56,1.96v1.02h49.45ZM1539.3,503.73c0-.93,0-1.77.09-2.51h-49.26v2.51h49.17ZM1538.64,512.86c0-.84.09-1.68.19-2.51h-48.7v2.51h48.52ZM1522.81,465.55h-17.41v1.86h17.41v-1.86ZM1522.81,473.93h-17.41v2.14h17.41v-2.14Z"/>
    </g>
    <g>
      <circle class="cls-8" cx="746.22" cy="336.3" r="15.3"/>
      <circle class="cls-2" cx="820.77" cy="336.3" r="15.3"/>
    </g>
  </g>
  <rect class="cls-4" x="603.5" y="136.31" width="465.5" height="73.7"/>
  <g>
    <g>
      <path class="cls-1" d="M713.76,187.11v7.05h-25.61v-5.03c13.11-13.02,16.35-17.11,16.35-22.37,0-2.3-1.13-3.95-3.38-3.95-2.91,0-4.46,2.26-5.22,7.47l-7.66-2.26c1.32-7.1,5.92-11,12.97-11,7.52,0,12.03,3.85,12.03,10.25,0,5.69-3.52,10.1-14.15,19.83h14.66Z"/>
      <path class="cls-1" d="M745.25,175.78c0,12.83-3.71,18.85-12.88,18.85s-12.97-6.02-12.97-18.85,3.76-18.75,12.97-18.75,12.88,6.02,12.88,18.75ZM736.33,175.78c0-10.25-.89-13.3-3.95-13.3s-4.14,3.05-4.14,13.3.94,13.25,4.14,13.25,3.95-2.96,3.95-13.25Z"/>
      <path class="cls-1" d="M777.69,187.11v7.05h-25.61v-5.03c13.11-13.02,16.35-17.11,16.35-22.37,0-2.3-1.13-3.95-3.38-3.95-2.91,0-4.46,2.26-5.22,7.47l-7.66-2.26c1.32-7.1,5.92-11,12.97-11,7.52,0,12.03,3.85,12.03,10.25,0,5.69-3.52,10.1-14.15,19.83h14.66Z"/>
      <path class="cls-1" d="M809.98,186.21h-4.32v7.94h-8.22v-7.94h-15.13v-8.13l11.61-20.54h11.75v21.67h4.32v7ZM797.43,179.21v-16.12l-8.74,16.12h8.74Z"/>
      <path class="cls-1" d="M841.52,182.69h-13.16v-6.58h13.16v6.58Z"/>
      <path class="cls-1" d="M887.01,187.11v7.05h-25.61v-5.03c13.11-13.02,16.35-17.11,16.35-22.37,0-2.3-1.13-3.95-3.38-3.95-2.91,0-4.46,2.26-5.22,7.47l-7.66-2.26c1.32-7.1,5.92-11,12.97-11,7.52,0,12.03,3.85,12.03,10.25,0,5.69-3.52,10.1-14.15,19.83h14.66Z"/>
      <path class="cls-1" d="M918.51,175.78c0,12.83-3.71,18.85-12.88,18.85s-12.97-6.02-12.97-18.85,3.76-18.75,12.97-18.75,12.88,6.02,12.88,18.75ZM909.58,175.78c0-10.25-.89-13.3-3.95-13.3s-4.14,3.05-4.14,13.3.94,13.25,4.14,13.25,3.95-2.96,3.95-13.25Z"/>
      <path class="cls-1" d="M950.94,187.11v7.05h-25.61v-5.03c13.11-13.02,16.35-17.11,16.35-22.37,0-2.3-1.13-3.95-3.38-3.95-2.91,0-4.46,2.26-5.22,7.47l-7.66-2.26c1.32-7.1,5.92-11,12.97-11,7.52,0,12.03,3.85,12.03,10.25,0,5.69-3.52,10.1-14.15,19.83h14.66Z"/>
      <path class="cls-1" d="M963.58,174.04c1.93-1.83,4.28-2.73,7.28-2.73,7.14,0,11.8,4.37,11.8,11.14,0,7.33-5.17,12.41-12.97,12.41-6.86,0-11.28-2.87-13.35-8.41l7.66-2.63c.61,3.15,2.63,5.26,5.4,5.26,3.15,0,5.03-2.35,5.03-6.02,0-3.95-1.88-5.92-5.36-5.92-1.88,0-3.48.85-5.12,2.68l-6.34-1.97,1.22-20.35h21.76v7.52h-16.45l-.56,9.02Z"/>
    </g>
    <g>
      <path class="cls-6" d="M708.13,183.35v7.05h-25.61v-5.03c13.11-13.02,16.35-17.11,16.35-22.37,0-2.3-1.13-3.95-3.38-3.95-2.91,0-4.46,2.26-5.22,7.47l-7.66-2.26c1.32-7.1,5.92-11,12.97-11,7.52,0,12.03,3.85,12.03,10.25,0,5.69-3.52,10.1-14.15,19.83h14.66Z"/>
      <path class="cls-6" d="M739.62,172.02c0,12.83-3.71,18.85-12.88,18.85s-12.97-6.02-12.97-18.85,3.76-18.75,12.97-18.75,12.88,6.02,12.88,18.75ZM730.69,172.02c0-10.25-.89-13.3-3.95-13.3s-4.14,3.06-4.14,13.3.94,13.25,4.14,13.25,3.95-2.96,3.95-13.25Z"/>
      <path class="cls-6" d="M772.05,183.35v7.05h-25.61v-5.03c13.11-13.02,16.35-17.11,16.35-22.37,0-2.3-1.13-3.95-3.38-3.95-2.91,0-4.46,2.26-5.22,7.47l-7.66-2.26c1.32-7.1,5.92-11,12.97-11,7.52,0,12.03,3.85,12.03,10.25,0,5.69-3.52,10.1-14.15,19.83h14.66Z"/>
      <path class="cls-6" d="M804.34,182.46h-4.32v7.94h-8.22v-7.94h-15.13v-8.13l11.61-20.54h11.75v21.67h4.32v7ZM791.79,175.46v-16.12l-8.74,16.12h8.74Z"/>
      <path class="cls-6" d="M835.88,178.93h-13.16v-6.58h13.16v6.58Z"/>
      <path class="cls-6" d="M881.38,183.35v7.05h-25.61v-5.03c13.11-13.02,16.35-17.11,16.35-22.37,0-2.3-1.13-3.95-3.38-3.95-2.91,0-4.46,2.26-5.22,7.47l-7.66-2.26c1.32-7.1,5.92-11,12.97-11,7.52,0,12.03,3.85,12.03,10.25,0,5.69-3.52,10.1-14.15,19.83h14.66Z"/>
      <path class="cls-6" d="M912.87,172.02c0,12.83-3.71,18.85-12.88,18.85s-12.97-6.02-12.97-18.85,3.76-18.75,12.97-18.75,12.88,6.02,12.88,18.75ZM903.94,172.02c0-10.25-.89-13.3-3.95-13.3s-4.14,3.06-4.14,13.3.94,13.25,4.14,13.25,3.95-2.96,3.95-13.25Z"/>
      <path class="cls-6" d="M945.3,183.35v7.05h-25.61v-5.03c13.11-13.02,16.35-17.11,16.35-22.37,0-2.3-1.13-3.95-3.38-3.95-2.91,0-4.46,2.26-5.22,7.47l-7.66-2.26c1.32-7.1,5.92-11,12.97-11,7.52,0,12.03,3.85,12.03,10.25,0,5.69-3.52,10.1-14.15,19.83h14.66Z"/>
      <path class="cls-6" d="M957.95,170.29c1.93-1.83,4.28-2.73,7.28-2.73,7.14,0,11.8,4.37,11.8,11.14,0,7.33-5.17,12.41-12.97,12.41-6.86,0-11.28-2.87-13.35-8.41l7.66-2.63c.61,3.15,2.63,5.26,5.4,5.26,3.15,0,5.03-2.35,5.03-6.02,0-3.95-1.88-5.92-5.36-5.92-1.88,0-3.48.85-5.12,2.68l-6.34-1.97,1.22-20.35h21.76v7.52h-16.45l-.56,9.02Z"/>
    </g>
  </g>
</svg>