<?xml version="1.0" encoding="UTF-8"?>
<svg id="bg" xmlns="http://www.w3.org/2000/svg" xmlns:xlink="http://www.w3.org/1999/xlink" viewBox="0 0 3062.99 3062.87">
  <defs>
    <style>
      .cls-1 {
        fill: #fff;
        fill-rule: evenodd;
      }

      .cls-2 {
        fill: #f7be46;
      }

      .cls-3 {
        fill: none;
      }

      .cls-4 {
        opacity: .1;
      }

      .cls-5 {
        fill: #0294ad;
      }

      .cls-6 {
        clip-path: url(#clippath);
      }
    </style>
    <clipPath id="clippath">
      <rect class="cls-3" x="1053.73" y="1050.22" width="955.54" height="1406.39"/>
    </clipPath>
  </defs>
  <rect class="cls-2" x="1054.36" y="957.4" width="954.26" height="1415.44"/>
  <polygon class="cls-5" points="1061.03 2055.5 1061.03 1010.92 2105.61 1010.92 1061.03 2055.5"/>
  <g class="cls-6">
    <g class="cls-4">
      <g>
        <g>
          <polygon class="cls-1" points="1537.99 1480.51 1659.06 746.88 1780.19 13.38 1728.12 6.72 1675.98 0 1607.05 740.16 1537.99 1480.51"/>
          <polygon class="cls-1" points="1732.16 7.19 1728.12 6.72 1675.98 0 1607.05 740.16 1587.33 951.15 1621.23 730.09 1732.16 7.19"/>
        </g>
        <g>
          <polygon class="cls-1" points="1524.85 1582.35 1455.8 2322.7 1386.74 3062.87 1334.75 3056.15 1282.57 3049.39 1403.73 2315.98 1524.85 1582.35"/>
          <polygon class="cls-1" points="1338.75 3056.71 1334.75 3056.15 1282.57 3049.39 1403.73 2315.98 1438.21 2107.05 1414.9 2329.36 1338.75 3056.71"/>
        </g>
      </g>
      <g>
        <g>
          <polygon class="cls-1" points="1524.53 1480.36 1451.68 740.47 1378.76 .78 1326.77 7.62 1274.69 14.71 1399.71 747.41 1524.53 1480.36"/>
          <polygon class="cls-1" points="1330.86 7.09 1326.77 7.62 1274.69 14.71 1399.71 747.41 1435.22 956.38 1410.76 734.1 1330.86 7.09"/>
        </g>
        <g>
          <polygon class="cls-1" points="1538.23 1582.51 1663.17 2315.39 1788.09 3048.37 1735.95 3055.21 1684.01 3062.09 1611.16 2322.39 1538.23 1582.51"/>
          <polygon class="cls-1" points="1740.12 3054.53 1735.95 3055.21 1684.01 3062.09 1611.16 2322.39 1590.38 2111.62 1625.34 2332.47 1740.12 3054.53"/>
        </g>
      </g>
      <g>
        <g>
          <polygon class="cls-1" points="1511.51 1483.94 1249.68 788.1 987.81 92.39 939.4 112.6 890.92 133.01 1201.34 808.28 1511.51 1483.94"/>
          <polygon class="cls-1" points="943.21 110.98 939.4 112.6 890.92 133.01 1201.34 808.28 1289.69 1000.83 1208.57 792.42 943.21 110.98"/>
        </g>
        <g>
          <polygon class="cls-1" points="1551.2 1578.93 1861.62 2254.55 2171.81 2930.2 2123.47 2950.17 2075.01 2970.48 1813.16 2274.77 1551.2 1578.93"/>
          <polygon class="cls-1" points="2127.2 2948.83 2123.47 2950.17 2075.01 2970.48 1813.16 2274.77 1738.57 2076.56 1829.58 2280.71 2127.2 2948.83"/>
        </g>
      </g>
      <g>
        <g>
          <polygon class="cls-1" points="1499.97 1490.69 1066.88 886.39 633.94 282.01 592.34 314.2 550.7 346.3 1025.37 918.4 1499.97 1490.69"/>
          <polygon class="cls-1" points="595.63 311.83 592.34 314.2 550.7 346.3 1025.37 918.4 1160.61 1081.55 1028.28 901.23 595.63 311.83"/>
        </g>
        <g>
          <polygon class="cls-1" points="1562.83 1572.18 2037.5 2144.47 2512.04 2716.66 2470.49 2748.85 2428.87 2780.71 1996.06 2176.66 1562.83 1572.18"/>
          <polygon class="cls-1" points="2473.72 2746.11 2470.49 2748.85 2428.87 2780.71 1996.06 2176.66 1872.63 2004.4 2013.29 2178.06 2473.72 2746.11"/>
        </g>
      </g>
      <g>
        <g>
          <polygon class="cls-1" points="1490.48 1500.48 915.8 1028.55 341.12 556.98 309.27 598.79 277.46 640.47 883.95 1070.13 1490.48 1500.48"/>
          <polygon class="cls-1" points="311.88 595.55 309.27 598.79 277.46 640.47 883.95 1070.13 1056.82 1192.75 882.36 1052.96 311.88 595.55"/>
        </g>
        <g>
          <polygon class="cls-1" points="1572.34 1562.69 2179.02 1992.73 2785.46 2422.52 2753.61 2464.21 2721.7 2505.88 2147.17 2034.32 1572.34 1562.69"/>
          <polygon class="cls-1" points="2755.97 2461.03 2753.61 2464.21 2721.7 2505.88 2147.17 2034.32 1983.31 1900.03 2164.22 2031.37 2755.97 2461.03"/>
        </g>
      </g>
      <g>
        <g>
          <polygon class="cls-1" points="1483.87 1511.9 806.7 1205.07 129.48 898.18 109.54 946.89 89.59 995.57 786.67 1253.6 1483.87 1511.9"/>
          <polygon class="cls-1" points="111.1 942.91 109.54 946.89 89.59 995.57 786.67 1253.6 985.35 1327.28 780.6 1237.17 111.1 942.91"/>
        </g>
        <g>
          <polygon class="cls-1" points="1579.06 1551.09 2276.32 1809.27 2973.34 2067.64 2953.31 2116.16 2933.4 2164.59 2256.35 1857.89 1579.06 1551.09"/>
          <polygon class="cls-1" points="2954.93 2112.4 2953.31 2116.16 2933.4 2164.59 2256.35 1857.89 2063.38 1770.42 2271.97 1850.58 2954.93 2112.4"/>
        </g>
      </g>
      <g>
        <g>
          <polygon class="cls-1" points="1480.45 1524.9 746.98 1403.74 13.48 1282.65 6.69 1334.78 0 1387.01 740.2 1455.84 1480.45 1524.9"/>
          <polygon class="cls-1" points="7.26 1330.71 6.69 1334.78 0 1387.01 740.2 1455.84 951.17 1475.6 730.09 1441.69 7.26 1330.71"/>
        </g>
        <g>
          <polygon class="cls-1" points="1582.54 1538.18 2322.92 1607.02 3062.99 1676.23 3056.21 1728.27 3049.49 1780.34 2316.14 1659.06 1582.54 1538.18"/>
          <polygon class="cls-1" points="3056.71 1724.29 3056.21 1728.27 3049.49 1780.34 2316.14 1659.06 2107.11 1624.69 2329.33 1647.92 3056.71 1724.29"/>
        </g>
      </g>
      <g>
        <g>
          <polygon class="cls-1" points="1480.56 1538.27 740.75 1611.12 .78 1684.22 7.82 1736.17 14.82 1788.37 747.55 1663.23 1480.56 1538.27"/>
          <polygon class="cls-1" points="7.26 1732.07 7.82 1736.17 14.82 1788.37 747.55 1663.23 956.46 1627.7 734.14 1652.12 7.26 1732.07"/>
        </g>
        <g>
          <polygon class="cls-1" points="1582.54 1524.68 2315.39 1399.79 3048.25 1274.87 3055.21 1326.91 3062.18 1379.01 2322.49 1451.86 1582.54 1524.68"/>
          <polygon class="cls-1" points="3054.59 1322.81 3055.21 1326.91 3062.18 1379.01 2322.49 1451.86 2111.59 1472.49 2332.44 1437.43 3054.59 1322.81"/>
        </g>
      </g>
      <g>
        <g>
          <polygon class="cls-1" points="1484.17 1551.28 788.33 1813.09 92.49 2075.16 112.71 2123.6 133.03 2171.9 808.36 1861.53 1484.17 1551.28"/>
          <polygon class="cls-1" points="111.1 2119.8 112.71 2123.6 133.03 2171.9 808.36 1861.53 1000.94 1773.28 792.55 1854.37 111.1 2119.8"/>
        </g>
        <g>
          <polygon class="cls-1" points="1579 1511.77 2254.61 1201.18 2930.23 890.96 2950.33 939.4 2970.55 987.8 2274.89 1249.71 1579 1511.77"/>
          <polygon class="cls-1" points="2948.71 935.69 2950.33 939.4 2970.55 987.8 2274.89 1249.71 2076.63 1324.33 2280.81 1233.37 2948.71 935.69"/>
        </g>
      </g>
      <g>
        <g>
          <polygon class="cls-1" points="1490.95 1562.94 886.56 1996.06 282.25 2429.05 314.28 2470.73 346.49 2512.14 918.45 2037.62 1490.95 1562.94"/>
          <polygon class="cls-1" points="311.73 2467.31 314.28 2470.73 346.49 2512.14 918.45 2037.62 1081.6 1902.43 901.32 2034.63 311.73 2467.31"/>
        </g>
        <g>
          <polygon class="cls-1" points="1572.34 1500.01 2144.56 1025.5 2716.79 550.73 2748.82 592.13 2780.92 633.93 2176.66 1066.81 1572.34 1500.01"/>
          <polygon class="cls-1" points="2746.27 589.17 2748.82 592.13 2780.92 633.93 2176.66 1066.81 2004.4 1190.36 2178.16 1049.54 2746.27 589.17"/>
        </g>
      </g>
      <g>
        <g>
          <polygon class="cls-1" points="1500.43 1572.43 1028.75 2147.01 557.15 2721.69 598.79 2753.52 640.73 2785.4 1070.4 2178.96 1500.43 1572.43"/>
          <polygon class="cls-1" points="595.47 2751.15 598.79 2753.52 640.73 2785.4 1070.4 2178.96 1192.88 2006.2 1053.06 2180.55 595.47 2751.15"/>
        </g>
        <g>
          <polygon class="cls-1" points="1562.79 1490.53 1992.7 883.87 2422.58 277.46 2464.27 309.35 2505.95 341.26 2034.45 915.76 1562.79 1490.53"/>
          <polygon class="cls-1" points="2461.03 306.89 2464.27 309.35 2505.95 341.26 2034.45 915.76 1900.01 1079.47 2031.46 898.74 2461.03 306.89"/>
        </g>
      </g>
      <g>
        <g>
          <polygon class="cls-1" points="1512.13 1578.93 1205.27 2256.13 898.38 2933.28 946.86 2953.37 995.7 2973.25 1253.67 2276.26 1512.13 1578.93"/>
          <polygon class="cls-1" points="943.1 2951.66 946.86 2953.37 995.7 2973.25 1253.67 2276.26 1327.33 2077.71 1237.35 2282.33 943.1 2951.66"/>
        </g>
        <g>
          <polygon class="cls-1" points="1551.14 1484.06 1809.43 786.7 2067.73 89.52 2116.25 109.49 2164.78 129.58 1858.01 806.45 1551.14 1484.06"/>
          <polygon class="cls-1" points="2112.4 107.97 2116.25 109.49 2164.78 129.58 1858.01 806.45 1770.42 999.58 1850.61 790.96 2112.4 107.97"/>
        </g>
      </g>
    </g>
  </g>
</svg>