<?xml version="1.0" encoding="utf-8"?>
<!-- Generator: Adobe Illustrator 26.5.0, SVG Export Plug-In . SVG Version: 6.00 Build 0)  -->
<svg version="1.1" xmlns="http://www.w3.org/2000/svg" xmlns:xlink="http://www.w3.org/1999/xlink" x="0px" y="0px"
	 viewBox="0 0 2725 498" style="enable-background:new 0 0 2725 498;" xml:space="preserve">
<style type="text/css">
	.st0{fill-rule:evenodd;clip-rule:evenodd;fill:#ED1B2F;}
	.st1{fill-rule:evenodd;clip-rule:evenodd;fill:#FFFFFF;}
</style>
<g id="Layer_1">
	<g>
		<path class="st0" d="M245,7.1C111.4,7.1,3.1,115.4,3.1,249.1C3.1,382.7,111.4,491,245,491C378.6,491,487,382.7,487,249.1
			C487,115.4,378.6,7.1,245,7.1L245,7.1z"/>
		<path class="st1" d="M245,488.1c-132,0-239-107-239-239C6,117,113,10,245,10c132,0,239,107,239,239
			C484.1,381.1,377,488.1,245,488.1L245,488.1z"/>
		<path class="st0" d="M245,441.2c106.1,0,192.2-86,192.2-192.2S351.2,56.9,245,56.9c-106.1,0-192.2,86-192.2,192.2
			S138.9,441.2,245,441.2L245,441.2z"/>
		<path class="st1" d="M245,249.1c-85.1-36-47.4-146.7,34-141.2c-16.5,8.5-18.8,24.2-9.4,38.9c10.5,16.4-1,42.7-15.2,49.1
			C231,206.4,226.3,234.4,245,249.1L245,249.1z"/>
		<path class="st1" d="M245,249.1c-60.5,69.8-154.2-0.3-123.8-76c3,18.3,17.2,25.4,34,21c18.8-4.9,40.3,14.1,42,29.6
			C200.1,249.2,225.3,262.3,245,249.1L245,249.1z"/>
		<path class="st1" d="M245,249.1c47.7,79.1-47.9,146.5-110.5,94.2c18.3,2.8,29.5-8.5,30.5-25.9c1.1-19.4,25.9-34,41.2-30.8
			C231.3,291.8,251.6,271.9,245,249.1L245,249.1z"/>
		<path class="st1" d="M245,249.1c89.9-20.9,124.6,90.9,55.5,134.2c8.3-16.5,1-30.7-15.2-37c-18.1-7.1-24.3-35.1-16.6-48.7
			C281.5,275.3,268.8,249.9,245,249.1L245,249.1z"/>
		<path class="st1" d="M245,249.1c7.9-92,124.9-90.4,144.8-11.3c-13.1-13-28.9-10.4-39.9,3c-12.3,15.1-40.9,12.3-51.4,0.7
			C281.3,222.5,253.1,226.7,245,249.1L245,249.1z"/>
		<polygon class="st0" points="240.4,169.1 235.6,176.6 233.9,167.8 225.3,165.6 233.1,161.2 232.5,152.4 239.1,158.4 247.3,155.1 
			243.6,163.2 249.3,170.1 240.4,169.1 		"/>
		<polygon class="st0" points="167.5,228.7 173.2,235.6 164.3,234.5 159.6,242 157.8,233.3 149.2,231.1 157,226.7 156.4,217.8 
			163,223.9 171.2,220.6 167.5,228.7 		"/>
		<polygon class="st0" points="201.7,316.5 210,313.2 206.3,321.3 211.9,328.2 203.1,327.1 198.3,334.6 196.6,325.9 188,323.7 
			195.7,319.3 195.2,310.4 201.7,316.5 		"/>
		<polygon class="st0" points="295.8,311.1 295.2,302.2 301.8,308.2 310.1,305 306.3,313.1 312,319.9 303.1,318.9 298.4,326.4 
			296.6,317.7 288,315.4 295.8,311.1 		"/>
		<polygon class="st0" points="319.7,220 311.1,217.7 318.8,213.4 318.3,204.5 324.8,210.5 333.1,207.3 329.4,215.4 335.1,222.2 
			326.2,221.2 321.4,228.7 319.7,220 		"/>
		<path class="st0" d="M245.5,248.1c-10.3-5.3-18.6-16.3-22.2-29.4c-4.1-15.1-1.8-31.3,6.5-44.5l-1.8-1.1
			c-8.6,13.7-11.1,30.5-6.8,46.2c3.8,13.9,12.3,25.1,23.3,30.8L245.5,248.1L245.5,248.1z"/>
		<path class="st0" d="M244.3,248.3c-8.2,8.2-21.2,12.6-34.9,12c-15.6-0.7-30.3-8-40.3-20l-1.6,1.3c10.3,12.4,25.6,20,41.8,20.7
			c14.4,0.7,27.7-3.9,36.4-12.6L244.3,248.3L244.3,248.3z"/>
		<path class="st0" d="M244.1,249.5c5.2,10.3,5.5,24.1,0.7,36.9c-5.5,14.6-17,26.4-31.4,32.1l0.8,2c15-6,26.9-18.2,32.6-33.4
			c5.1-13.5,4.8-27.6-0.7-38.6L244.1,249.5L244.1,249.5z"/>
		<path class="st0" d="M245.2,250.1c11.4-1.8,24.6,2.2,35.3,10.8c12.2,9.8,19.8,24.3,20.9,39.8l2.1-0.1c-1.1-16.1-9-31.2-21.6-41.3
			c-11.3-9-24.7-13.1-36.9-11.2L245.2,250.1L245.2,250.1z"/>
		<path class="st0" d="M312,209.4c-15.7-4-32.4-1.1-46,7.8c-12.1,7.9-20.1,19.5-22.1,31.6l2.1,0.3c1.8-11.4,9.7-22.7,21.1-30.2
			c13.1-8.6,29.2-11.3,44.3-7.5L312,209.4L312,209.4z"/>
		<polygon class="st0" points="73.8,373.9 78.7,381.3 70,379.4 64.4,386.3 63.6,377.5 55.3,374.3 63.5,370.8 63.9,361.9 69.7,368.6 
			78.3,366.2 73.8,373.9 		"/>
		<polygon class="st0" points="417.1,373.9 412.1,381.3 420.8,379.4 426.3,386.4 427.2,377.6 435.6,374.5 427.4,370.9 427.1,362 
			421.2,368.7 412.6,366.2 417.1,373.9 		"/>
		<path class="st0" d="M102.3,429.4c3.1,2,3.8,1.3,5.7-1.4l10.9-15.6c1.9-2.7,1.6-3.4-0.9-5.5l0.5-0.7l10,7l-0.5,0.7
			c-2.9-1.7-3.6-1.5-5.4,1l-4.9,7l10.9,7.6l4.9-7c1.9-2.7,1.6-3.4-0.9-5.5l0.5-0.7l10,7l-0.5,0.7c-2.9-1.7-3.6-1.5-5.4,1l-11.2,16
			c-1.7,2.4-1.8,3.3,0.9,5.5l-0.5,0.7l-10-7l0.5-0.7c3.1,2,3.8,1.3,5.7-1.4l4.9-7l-10.9-7.6l-5.2,7.4c-1.7,2.4-1.8,3.3,0.9,5.5
			l-0.5,0.7l-10-7L102.3,429.4L102.3,429.4z"/>
		<path class="st0" d="M141,438.9c4.3-9.2,12.9-10.8,19.4-7.7c6.5,3,10.9,10.7,6.6,19.9c-3.9,8.5-12.2,11-19.4,7.7
			C140.4,455.4,137,447.4,141,438.9L141,438.9z M162.5,448.9c4.2-9.1,1.3-14.4-2.8-16.3c-4.1-1.9-10-0.7-14.2,8.4
			c-4.1,8.8-1.7,14.2,2.8,16.3C152.7,459.3,158.5,457.7,162.5,448.9L162.5,448.9z"/>
		<path class="st0" d="M206.5,447.9c-2.8-0.4-4.2-0.6-5.5,4.4l-5.9,22.4l-0.7-0.2l-12.6-28.2l-0.1,0l-4.4,16.6
			c-1.1,4.4-0.5,5.6,2.6,6.5l-0.2,0.8l-10-2.6l0.2-0.8c3.3,0.6,4.3,0.2,5.6-4.4l4.9-18.8c-1.2-2.6-1.8-3-3.5-3.4l0.2-0.8l7.3,1.9
			l10.9,24.7l0.1,0l3.7-14.2c1.3-4.9,0.2-5.5-2.7-6.5l0.2-0.8l10,2.6L206.5,447.9L206.5,447.9z"/>
		<path class="st0" d="M239.4,464.3c-1.9,0-3.1,0-3.3,3.1l-0.7,8.8c0,0.6-6.1,2.7-10.9,2.3c-4.3-0.3-9.1-2-12-5.7
			c-2.1-2.7-3.2-5.4-2.8-11.2c0.6-7.4,6.9-14.2,16.2-13.5c4.4,0.3,6.3,2,7.7,2.1c0.4,0,1.8-0.1,2.2-1.3l1,0.1l-0.4,9.3l-1-0.1
			c-0.9-3.3-2.9-7.8-9-8.3c-4.2-0.3-10.8,1.9-11.7,13c-0.6,7.9,3.5,13.3,10.3,13.8c3,0.2,6.1-0.5,6.2-2.1l0.6-7.1
			c0.3-3.6-0.6-3.8-3.6-4.2l0.1-0.8l11.2,0.9L239.4,464.3L239.4,464.3z"/>
		<path class="st0" d="M275.3,447.5l11.4-1.4l0.1,0.8c-2.6,0.5-3.5,0.8-6.2,4.2l-7.3,9.2l11.5,9.6c3.2,2.8,5,4.3,7.4,3.9l0.1,0.8
			l-13.3,1.7l-0.1-0.8c2.3-0.4,3-0.5,2.9-1.5c-0.2-1.4-4.9-5.3-6.6-6.6l-5.2-4l-1,1.1l1,8.2c0.4,3.1,1,3.7,4.4,3.4l0.1,0.8
			l-12.3,1.5l-0.1-0.8c3.4-0.6,3.8-1.3,3.4-4.9l-2.4-18.9c-0.4-3.4-1.4-3.6-4.4-3.4l-0.1-0.8l12.4-1.6l0.1,0.8
			c-3.4,0.6-3.9,1.2-3.5,4.4l1.1,8.9c8.7-10.1,9.9-11.4,9.7-12.9c-0.1-1.2-1-1.2-3.1-1L275.3,447.5L275.3,447.5z"/>
		<path class="st0" d="M293.9,459.5c-2.9-9.7,2.6-16.6,9.5-18.7c6.9-2,15.2,0.8,18.1,10.5c2.7,9-1.9,16.3-9.5,18.6
			C304.3,472.2,296.5,468.5,293.9,459.5L293.9,459.5z M316.6,452.7c-2.8-9.6-8.5-11.6-12.8-10.4c-4.3,1.3-8,6.1-5.1,15.7
			c2.7,9.3,8.2,11.7,12.8,10.4C316.2,467,319.4,462,316.6,452.7L316.6,452.7z"/>
		<path class="st0" d="M348.9,422.9c-2.3,1.5-3.5,2.3-1.2,6.9l10.4,20.7l-0.7,0.3L329.3,438l-0.1,0l7.7,15.3c2,4,3.3,4.5,6.2,3.2
			l0.4,0.7l-9.2,4.6l-0.4-0.7c2.9-1.7,3.4-2.7,1.3-6.9l-8.7-17.3c-2.6-1.2-3.3-1-4.9-0.2l-0.4-0.7l6.7-3.4l24.5,11.3l0.1,0
			l-6.6-13.1c-2.3-4.5-3.5-4.3-6.3-3.1l-0.4-0.7l9.2-4.6L348.9,422.9L348.9,422.9z"/>
		<path class="st0" d="M384.5,413.5c-1.4,1.3-2.3,2.1-0.4,4.6l5.3,7.1c0.4,0.5-2.8,6-6.6,8.9c-3.5,2.6-8.2,4.5-12.7,3.6
			c-3.4-0.6-6-1.9-9.5-6.5c-4.4-5.9-4.3-15.2,3.2-20.8c3.6-2.7,6-2.7,7.2-3.6c0.3-0.2,1.3-1.3,0.8-2.4l0.8-0.6l5.8,7.2l-0.8,0.6
			c-2.8-1.8-7.3-3.9-12.2-0.2c-3.3,2.5-6.9,8.6-0.2,17.5c4.8,6.4,11.4,7.6,16.9,3.5c2.4-1.8,4.2-4.4,3.3-5.7l-4.3-5.7
			c-2.2-2.9-2.9-2.4-5.4-0.8l-0.5-0.6l9-6.7L384.5,413.5L384.5,413.5z"/>
		<path class="st0" d="M55,308.3c-0.1-0.5-0.5-1.1-1.1-2c-0.7-1-1.1-1.3-1.3-1.4c-0.3-0.1-0.6-0.1-1,0.1c0,0-4.6,1.5-4.6,1.5
			l-6.5,1.9l-0.2,0l0-0.2l-1.9-6.4l0-0.2l0.2,0c0,0,1.9-0.6,1.9-0.6c0.3-0.1,0.8-0.3,0.5-1.2c-0.1-0.5-0.6-1.2-1.3-2.1
			c-0.7-0.8-1.4-1.1-1.9-0.9c0,0-4.4,1.5-4.4,1.5l-4,1.2c-0.8,0.2-1.6,0-2.3-0.6c-0.1-0.1-0.2-0.2-0.4-0.1c-0.2,0.1-0.3,0.2-0.4,0.4
			c0,0-1.6,3.8-1.6,3.8c-0.1,0.2-0.1,0.3-0.1,0.5c0,0.1,0.1,0.2,0.3,0.3l3.1,1.6l0.1,0l0,0.1l1.8,6l0,0.2l-0.2,0l-4.5,1.3
			c-0.8,0.2-1.5,0-2.1-0.8c-0.1-0.1-0.2-0.1-0.3-0.1c-0.2,0-0.2,0.1-0.2,0.3l-0.1,6.5c0.9-0.4,2-0.9,3.4-1.3l5.2-1.5l0.2,0l0,0.2
			l1.6,5.5l0,0l0,0l-0.8,5.9c1.4-0.6,2.8-1.2,4.4-1.6c0,0,6.9-2,6.9-2l4.9-1.3c0.2-0.1,0.3-0.1,0.4-0.2c0.1-0.1,0.1-0.2,0-0.4
			c-0.1-0.4-0.5-1-1.1-1.9c-0.8-1.1-1.2-1.4-1.3-1.5c-0.2-0.1-0.6-0.1-1.1,0l-1.3,0.4l-0.2,0l0-0.2l-1.7-5.9l0-0.2l0.2,0
			c0,0,6.9-2,6.9-2c0,0,5.9-1.5,5.9-1.5c0.2-0.1,0.4-0.2,0.4-0.3C55.1,308.8,55.1,308.6,55,308.3L55,308.3z M30.7,311.3l-0.2,0
			l0-0.2l-1.9-6.4l0-0.2l0.2,0l8.8-2.6l0.2,0l0,0.2l1.9,6.4l0,0.2l-0.2,0L30.7,311.3L30.7,311.3z M42.7,319.1l0,0.2l-0.2,0l-8.8,2.6
			l-0.2,0l0-0.2l-1.7-5.9l0-0.2l0.2,0l8.8-2.6l0.2,0l0,0.2L42.7,319.1L42.7,319.1z"/>
		<path class="st1" d="M18.6,265.5L18.6,265.5c-0.1,0.1-0.1,0.1-0.1,0.2L18.6,265.5L18.6,265.5z"/>
		<path class="st0" d="M34.8,264.2L34.8,264.2c-0.1,0.1-0.1,0.1-0.1,0.2L34.8,264.2L34.8,264.2z"/>
		<path class="st1" d="M39.2,265.5L39.2,265.5c-0.1,0.1-0.1,0.1,0,0.2L39.2,265.5L39.2,265.5z"/>
		<path class="st1" d="M29.3,266.8L29.3,266.8c-0.1,0.1-0.1,0.1-0.1,0.2L29.3,266.8L29.3,266.8z"/>
		<path class="st0" d="M23.9,264.2L23.9,264.2c-0.1,0.1-0.1,0.1,0,0.2L23.9,264.2L23.9,264.2z"/>
		<path class="st0" d="M13.4,252.1C13.4,252.1,13.4,252.1,13.4,252.1L13.4,252.1L13.4,252.1L13.4,252.1z"/>
		<path class="st0" d="M14.2,251.9C14.2,251.9,14.2,251.9,14.2,251.9C14.2,251.9,14.2,251.9,14.2,251.9
			C14.2,251.9,14.2,251.9,14.2,251.9L14.2,251.9z"/>
		<polygon class="st0" points="17.5,234 17.5,234 17.5,234 17.5,234 		"/>
		<path class="st0" d="M21.5,248.1c0.4,0,0.5-0.2,0.5-0.5c0-0.6-0.1-1.2-0.3-2c-0.2-0.8-0.4-1.3-0.6-1.5c-0.2-0.2-0.4-0.4-0.8-0.4
			l-2,0l-0.2,0v-0.2l0-9.4c0-0.1,0-0.2-0.1-0.3c0,0,0-0.1-0.2,0c-0.1,0-0.2,0.1-0.4,0.2c-0.1,0.1-2.7,3.4-2.7,3.4
			c-0.1,0.1-0.1,0.2-0.1,0.4c0,0.1,0.1,0.3,0.3,0.4l2.4,2.1l0.1,0.1v0.1l0,3.1l0,0.2h-0.2l-2.3,0h-0.1l-0.1-0.1c0,0-0.7-1-0.7-1
			c-0.1-0.1-0.2-0.2-0.3-0.2c-0.2,0-0.3,0.1-0.4,0.2l-1.7,5.7c0.8,0,3.2-0.2,3.3-0.2l2.3,0l0.2,0v0.2l0,4.6v0.2h-0.2l-2.2,0h-0.1
			l0-0.1c-0.5-0.9-0.6-1-0.6-1c-0.1,0-0.2-0.1-0.3-0.1c-0.2,0-0.4,0.1-0.5,0.2l-1.5,5.5c0.7-0.1,2.8-0.2,2.8-0.2l2.5,0l0.2,0v0.2
			l0,9l1.1-0.9c-0.3-1-0.4-1.8-0.4-2.5l0-5.5v-0.2l0.2,0c0,0,1.5,0,1.6,0l1.7,0.1c0.1,0,0.2,0,0.2-0.1c0.1-0.1,0.2-0.3,0.2-0.7
			c0-0.5-0.1-1.1-0.4-2c-0.3-1.2-0.5-1.4-0.6-1.5c-0.1-0.1-0.3-0.2-0.6-0.2l-2.1,0h-0.2v-0.2l0-4.6v-0.2h0.2L21.5,248.1L21.5,248.1z
			"/>
		<path class="st0" d="M13.3,242.7C13.3,242.7,13.4,242.7,13.3,242.7L13.3,242.7L13.3,242.7L13.3,242.7z"/>
		<polygon class="st0" points="28.2,233.5 28.2,233.5 28.2,233.5 28.2,233.5 		"/>
		<path class="st0" d="M46.3,249.9c-0.2-0.7-0.6-1.6-1.1-1.6c0,0-3,0.1-3,0.1l-3.3,0l-0.2,0l0-0.2c0,0,0-14.6,0-14.6
			c0-0.2-0.1-0.2-0.2-0.2c-0.1,0-0.2,0.1-0.3,0.2c0,0-2.9,3.3-2.9,3.3c-0.1,0.2-0.2,0.3-0.2,0.4c0,0.1,0.1,0.3,0.3,0.4l2.5,2.2
			L38,240v0.1l0,8.2v0.2h-0.2l-3.4,0h-0.2l0-0.2l0-12.9c0-0.1,0-0.2-0.1-0.3c0,0-0.1-0.1-0.2-0.1c-0.1,0-0.2,0.1-0.3,0.2
			c0,0-2.7,3.1-2.7,3.1c-0.2,0.2-0.3,0.4-0.3,0.5c0,0.1,0.1,0.3,0.2,0.4l2.2,1.7l0.1,0.1v0.1v0.1l0,0.2H33l-4,0h-0.2v-0.2l0-7.5
			c0-0.3-0.1-0.3-0.2-0.3c-0.1,0-0.2,0.1-0.4,0.1c-0.1,0.1-2.8,3.3-2.8,3.3c-0.1,0.1-0.2,0.3-0.2,0.4c0,0.2,0.1,0.3,0.3,0.4l2.4,1.9
			l0.1,0.1v0.1l0,1.4v0.2h-0.2l-4.3,0h-0.2v-0.2c0,0,0-5.8,0-5.8c0-0.3-0.1-0.3-0.2-0.3c-0.1,0-0.2,0-0.3,0.1c0,0-2.9,3.2-2.9,3.2
			c-0.1,0.1-0.2,0.3-0.2,0.5c0,0.2,0,0.3,0.2,0.3l2.6,2.1l0.1,0.1v0.1l0,24l1.1-1.1c-0.3-0.8-0.4-1.6-0.4-2.4l0-1.5v-0.2h0.2l4.3,0
			l0.2,0v0.2l0,7.3l1.1-0.8c-0.3-1.2-0.4-2.3-0.4-3.2l0-3.3v-0.2H29l4.4,0h0.2l0,0.2l0,4.9l1.1-1c-0.3-1.3-0.4-2.4-0.4-3.4l0-7.7
			l0-0.2l0.2,0l3.4,0l0.2,0v0.2l0,13.4l1.1-1.1c-0.3-1.2-0.4-2.2-0.4-3l0-9.4V253h0.2c0,0,3.8,0,3.8,0l3.1,0.1
			c0.6,0,0.8-0.1,0.9-0.1c0.1-0.1,0.2-0.2,0.2-0.5C46.8,251.8,46.6,251,46.3,249.9L46.3,249.9z M23.5,248.3l0-2.4v-0.2l0.2,0l4.3,0
			h0.2l0,0.2l0,2.4v0.2h-0.2l-4.3,0h-0.2V248.3L23.5,248.3z M27.9,255.9l-4.3,0l-0.2,0v-0.2l0-2.6l0-0.2h0.2l4.3,0h0.2v0.2l0,2.6
			l0,0.2H27.9L27.9,255.9z M28.8,248.3l0-2.4v-0.2h0.2l4.4,0l0.2,0v0.2l0,2.4v0.2l-0.2,0l-4.4,0h-0.2V248.3L28.8,248.3z M33.4,255.9
			l-4.4,0h-0.2v-0.2l0-2.6V253h0.2l4.4,0h0.2v0.2l0,2.6v0.2H33.4L33.4,255.9z"/>
		<path class="st0" d="M34.9,188.4l0-0.1l0.2,0c4.2,0.8,8.2,0.9,11.9,0.3c3.6-0.6,7.2-2.2,10.7-5c-1.8-2-2.5-3.9-2-5.6
			c0.1-0.3,0.2-0.5,0.3-0.8l-0.5-0.6c-1.8,2-3.2,3.4-4.3,4.3c-1,0.9-2.6,1.9-4.7,2.9c-2.1,1-4.1,1.7-6.2,2c-2.1,0.4-4.3,0.5-6.7,0.4
			c-2.4-0.1-4.5-0.5-6.2-0.9c-0.9-0.3-1.4-0.8-1.6-1.7c-0.2-1-0.5-1.2-0.6-1.2c-0.2-0.1-0.4,0-0.6,0.1l-3.9,5.9
			c0.6,0.2,1.3,0.3,1.8,0.5c2.7,0.8,6,2.1,10,3.9c4,1.8,7.4,4.4,10.3,7.6c2.8,3.2,4.8,6.8,5.8,10.9l0.7-0.1
			c-0.3-5.8-1.6-10.5-3.7-13.9c-2.2-3.5-5.7-6.3-10.6-8.3l-0.1-0.1L34.9,188.4L34.9,188.4L34.9,188.4z"/>
		<path class="st0" d="M66,152.7C66,152.7,66,152.7,66,152.7C66,152.7,66,152.7,66,152.7L66,152.7L66,152.7z"/>
		<path class="st0" d="M72.1,120.1C72.1,120.1,72.1,120.1,72.1,120.1C72.1,120.1,72.2,120.1,72.1,120.1L72.1,120.1L72.1,120.1z"/>
		<path class="st0" d="M86.2,128.6c-0.1-0.4-0.3-0.6-0.6-0.8c-0.2-0.1-0.6-0.3-1.1-0.3c-2-0.2-4.1-1-6.3-2.5c-0.8-0.5-1.5-1-2.2-1.7
			l-0.6,0.5c1.5,1.5,2.7,3.3,3.7,5.4l0,0.1l-0.1,0.1c0,0-0.2,0.3-0.2,0.3c-0.4,0.7-1.5,1.3-3.3,1.9c-1.8,0.6-3.5,0.8-5.1,0.7
			c-1.6-0.1-3.1-0.5-4.5-1.1l-0.2-0.1L66,131l6.6-10.3c0.2-0.4,0.1-0.4,0-0.5c-0.1,0-0.2-0.1-0.5-0.1c-0.3,0.1-4.5,1.1-4.5,1.1
			c-0.2,0-0.3,0.1-0.4,0.3c-0.1,0.2-0.1,0.3,0,0.4l0,0l0,0l1.2,3.8l0,0.1l0,0.1l-3.3,5.2l-0.1,0.1l-0.1,0c-1.9-0.5-3.7-1.3-5.3-2.1
			l-0.2-0.1l0.1-0.2l2.5-3.8l0.1-0.1l0.1,0.1l1.4,0.9c0.3,0.2,0.6,0.3,1-0.3c0.3-0.4,0.5-1.2,0.8-2.3c0.3-1,0.2-1.7-0.4-2.1
			c0,0-3.2-1.8-3.2-1.8l-1.8-1.2c-0.5-0.3-0.9-1-1-1.9l0,0v0c0-0.2,0-0.3-0.2-0.3c-0.2-0.1-0.3-0.1-0.5-0.1c0,0-3.2,1.2-3.2,1.2
			c-0.2,0.1-0.4,0.2-0.5,0.4c-0.1,0.2-0.1,0.3-0.1,0.5l0.6,3.4l0,0.1l0,0.1l-7.1,11.1l0,0l0,0l-4.8,3.3c1.2,0.6,2.7,1.4,4.6,2.7
			l17.5,11.3c0.5,0.3,0.6,0.9,0.3,1.7c-0.1,0.4-0.2,0.6-0.1,0.8c0.1,0.1,0.2,0.3,0.4,0.3c0.3,0,5,0.7,5,0.7c0.2,0,0.4-0.1,0.5-0.3
			c0.1-0.2,0.2-0.5,0.1-0.7c-0.5-0.9-0.8-3.2-1.2-6.9l-0.5-6.3l-0.7-0.1c-0.4,2-1,4.1-1.8,6.3l-0.1,0.2l-0.2-0.1l-7.3-4.7l-0.1-0.1
			l0.1-0.1l3.5-5.5l0.1-0.1l0.1,0.1c1.3,0.5,2.8,0.9,4.5,1.2c1.7,0.3,3.5,0.4,5.3,0.3c1.8-0.1,3.5-0.4,5.1-1.1
			c1.6-0.6,3.2-1.6,4.6-2.9c1.4-1.3,2.3-2.1,2.5-2.4c0,0,0.4-0.5,0.4-0.5C86.2,129.3,86.3,128.9,86.2,128.6L86.2,128.6z M53.5,136.8
			l-0.1-0.1l-4.8-3.1l-0.1-0.1l0.1-0.1l7.8-12.2l0.1-0.1l0.1,0.1l4.8,3.1l0.1,0.1l-0.1,0.1l-7.8,12.2L53.5,136.8L53.5,136.8z
			 M62.5,135.1l-3.3,5.2l-0.1,0.1l-0.1-0.1l-4.7-3l-0.1-0.1l0.1-0.1l2.9-4.5l0.1-0.1l0.1,0.1c1.5,0.9,3.2,1.6,5.1,2.3l0.2,0.1
			L62.5,135.1L62.5,135.1z"/>
		<polygon class="st0" points="99.7,70.5 99.7,70.5 99.7,70.5 99.7,70.5 		"/>
		<path class="st0" d="M118.8,79.5c0.1,0,0.1-0.1,0.1-0.2c0,0,0-0.1-0.1-0.2c-0.1-0.1-0.2-0.2-0.4-0.2c-0.2,0-4.7-0.4-4.7-0.4
			c-0.1,0-0.2,0-0.4,0.2c-0.2,0.2-0.3,0.4-0.3,0.5l0.3,3.9l0,0.1l-0.1,0.1l-2.4,2l-0.1,0.1l-0.1-0.1l-6.1-7l-0.1-0.1l0.1-0.1
			c0,0,6.6-5.8,6.6-5.8c0.2-0.1,0.2-0.2,0.2-0.3c0,0,0-0.1,0-0.1c-0.1-0.1-0.2-0.2-0.6-0.2c0,0-4.5-0.2-4.5-0.2
			c-0.1,0-0.3,0.1-0.4,0.2c-0.1,0.1-0.2,0.2-0.1,0.4l0,0l0,0l0.3,3.7l0,0.1L106,76l-1.7,1.5l-0.1,0.1l-0.1-0.1l-3.4-4
			c-0.5-0.6-0.7-1.2-0.5-1.9c0.2-0.5,0.2-0.9,0-1c-0.1-0.1-0.2-0.2-0.4-0.1l-5.8,2.6c0.5,0.4,1.4,1.3,2.8,2.8l3.9,4.5l0.1,0.1
			l-0.1,0.1l-3.3,2.8l-0.1,0.1l-0.1-0.1l-3.5-4C93.1,78.8,93,78,93.4,77c0-0.1,0.1-0.3-0.1-0.5c-0.2-0.2-0.3-0.2-0.6-0.1L87.1,79
			c0.4,0.4,1.2,1.2,2.6,2.6l4.1,4.7l0.1,0.1l-0.1,0.1L87.5,92l1.7,0.1c0.7-1,1.3-1.7,1.9-2.2l3.1-2.7l0.1-0.1l0.1,0.1l6.1,7l0.1,0.1
			l-0.1,0.1l-7.7,6.7l1.7,0.1c0.5-0.8,1.1-1.6,1.9-2.3L118.8,79.5L118.8,79.5z M97.8,84.3l-0.1-0.1l0.1-0.1l3.3-2.8l0.1-0.1l0.1,0.1
			l6.1,7l0.1,0.1l-0.1,0.1l-3.3,2.8l-0.1,0.1l-0.1-0.1L97.8,84.3L97.8,84.3z"/>
		<path class="st0" d="M108.3,93.8l-5.3,0.4c0.7,4.8,0.1,10.4-1.9,16.7l0.7,0.2c3.6-5.7,5.6-10.9,6-15.4l0-0.1l0,0c0,0,1-1,1-1
			c0.2-0.2,0.2-0.3,0-0.5C108.6,93.9,108.5,93.8,108.3,93.8L108.3,93.8z"/>
		<path class="st0" d="M124.2,91.3c-0.1-0.7-0.5-1.4-1-2c-1.3-1.5-3.3-2.2-5.9-2c-2.6,0.1-5.8,1.3-9.5,3.4l0.2,0.7
			c4.4-0.8,8.8-0.2,13,1.8c1.1,0.5,2,0.5,2.6-0.1C124.1,92.5,124.3,92,124.2,91.3L124.2,91.3z"/>
		<path class="st0" d="M139.2,57.3L139.2,57.3c-0.1,0-0.1,0-0.2,0L139.2,57.3L139.2,57.3z"/>
		<polygon class="st0" points="153.8,73.2 153.8,73.2 153.8,73.2 153.8,73.2 		"/>
		<path class="st0" d="M173.1,58c0,0-2.5-5.2-2.5-5.2l-5-10.8c-0.2-0.5-0.2-1,0.1-1.5c0.2-0.4,0.3-0.7,0.2-0.9
			c-0.1-0.2-0.3-0.3-0.5-0.4c0,0-3-0.8-3-0.8c-0.4-0.1-0.7-0.1-0.8,0c-0.2,0.1-0.4,0.3-0.4,0.6l0,0l0,0l-0.9,2.8l0,0.1l-0.1,0
			l-3.3,1.5l0,0l0,0l-5.2,0c0.5,0.9,1,1.8,1.5,2.8l1.1,2.3l0.2,0.4l-0.4-0.2c0,0-2.7-1.1-2.7-1.1c-0.4-0.2-0.5-0.2-0.5-0.2
			c0,0-0.1,0.1-0.2,0.5l-0.8,3.1l0,0.1l-0.1,0l-0.6,0.3l-0.2,0.1l-0.1-0.2l-2.5-5.4l-0.1-0.1l0.1-0.1c1.7-1.2,2.7-1.9,3-2.2
			c0.3-0.3,0.6-0.5,0.9-0.6c0.3-0.1,0.6-0.2,1-0.3c0.3,0,0.5-0.1,0.6-0.3c0.1-0.2,0.1-0.3,0-0.5c0-0.1-0.1-0.2-0.3-0.3l-4.9-2.2
			c-2.8,4.4-6.4,8.5-10.7,12.2l0.3,0.4c2.4-1.3,4.5-2.5,6-3.6l0.2-0.1l0.1,0.2l2.1,4.7l0.1,0.2l-0.2,0.1l-7.1,3.2l1.4,0.6
			c1.1-0.8,2-1.4,2.7-1.7l1.8-0.8l0.2-0.1l0,0.2c1,5,1,10.7,0,17l0.6,0.1c2-3.6,3.2-7.3,3.6-10.9l0-0.1l0.1,0l0.1,0l0.2-0.1l0.1,0.2
			c0,0,3.5,7.7,3.5,7.7c0,0,1.7,4,1.7,4l0.2,0.5c0.1,0.3,0.4,0.6,1,0.3c0.5-0.2,1.1-0.7,1.7-1.4c0.9-0.9,1-1.3,1-1.4
			c0-0.2,0-0.5-0.1-0.8c0,0-0.5-0.8-0.5-0.8c0,0-2.5-5-2.5-5l-3.6-7.9l-0.1-0.2l0.2-0.1l0.1-0.1l0.1,0l0.1,0.1
			c0.1,0.1,0.6,0.3,1.3,0.8c0.8,0.4,1.5,1.1,2.1,2c0.6,0.8,1.2,1,1.9,0.7c0.3-0.1,0.5-0.4,0.7-0.8c0.2-0.4,0.3-0.9,0.2-1.4l0-0.1
			l0.1-0.1l0.1-0.1l0.2-0.1l0.1,0.2c0,0,2.2,4.9,2.2,4.9l2,4.8c0.2,0.4,0.3,0.6,0.5,0.7c0.1,0.1,0.3,0,0.5,0
			c0.3-0.2,0.8-0.6,1.4-1.2c0.6-0.6,1-1.2,1.2-1.6c0.2-0.4,0.2-0.8,0-1.2l-1.5-3.1l-0.1-0.2l0.2-0.1l3.6-1.7l0.2-0.1l0.1,0.2
			c0,0,1.5,3.6,1.5,3.6c0.1,0.2,0.2,0.4,0.3,0.4c0.1,0,0.3,0,0.5-0.1c0.5-0.2,1.2-0.9,2-1.8C173.3,59.4,173.5,58.7,173.1,58
			L173.1,58z M156.7,54.4L156.7,54.4l-0.1,0.4l-0.2-0.3c-0.9-1.2-3-1.3-6.2-0.3l-0.1,0l-0.1-0.1l-0.8-1.8l-0.1-0.2l0.2-0.1l5.2-2.4
			l0.2-0.1l0.1,0.2l2,4.5L156.7,54.4L156.7,54.4L156.7,54.4z M167.7,57.6l-3.7,1.7l-0.2,0.1l-0.1-0.2L157,44.2l-0.1-0.2l0.2-0.1
			l3.7-1.7l0.2-0.1l0.1,0.2l6.8,14.9l0.1,0.2L167.7,57.6L167.7,57.6z"/>
		<path class="st0" d="M150.7,47.5C150.7,47.5,150.7,47.5,150.7,47.5C150.7,47.5,150.7,47.5,150.7,47.5
			C150.7,47.5,150.7,47.5,150.7,47.5L150.7,47.5z"/>
		<path class="st0" d="M229.6,45.7l-3.3-22.8l0-0.1l0.1-0.1l1-1.1c0.2-0.2,0.3-0.4,0.2-0.6c0-0.2-0.1-0.4-0.3-0.4c0,0-3.3-2-3.3-2
			c-0.2-0.1-0.4-0.2-0.5-0.1c-0.2,0-0.3,0.1-0.4,0.3l-1.9,2.7l0,0.1l-0.1,0l-18.2,2.6l0,0l0,0l-5.5-1.6c0.3,1.6,0.6,2.9,0.7,3.8
			c0,0,3.4,23.7,3.4,23.7c0,0,0.5,5.2,0.5,5.2c0,0.2,0.1,0.4,0.2,0.5c0.1,0.1,0.3,0.1,0.6,0.1c0.4-0.1,1.1-0.3,1.9-0.8
			c1.1-0.6,1.4-0.8,1.5-1c0.1-0.2,0.2-0.4,0.1-0.7l-0.5-2.3l0-0.2l0.2,0l19.5-2.8l0.2,0l0,0.2c0,0,0.1,1,0.1,1l0.2,2.3
			c0,0.1,0.1,0.3,0.3,0.4c0.2,0.1,0.4,0.2,0.6,0.1c0.2,0,0.7-0.2,2-0.9c1.1-0.5,1.5-1.1,1.4-1.9C230.3,49.3,229.6,45.7,229.6,45.7
			L229.6,45.7z M222.8,28.3l0,0.2l0.4,2.6l0,0.3l-0.3-0.1l-4.2-1.4c-0.1,2.4-0.3,4.2-0.6,5.3l0,0.1l-0.1,0l-0.1,0l-0.1,0l0-0.1
			c-0.3-0.9-0.7-2.8-1.2-5.9l0-0.2l0.2,0l5.9-0.8L222.8,28.3L222.8,28.3z M218.4,22.6l3.4-0.5l0.2,0l0,0.2l0.6,4.2l0.1,0.4l-0.3-0.2
			l-1-0.6l-0.1-0.1l0.1-0.1c0.1-0.3,0.2-0.7,0.1-1c-0.1-0.5-0.4-0.9-0.9-1.3c-0.6-0.3-1.2-0.5-2-0.6l-0.1,0l0-0.1l0,0l0-0.2
			L218.4,22.6L218.4,22.6z M214.2,23.2L214.2,23.2l0.1-0.1l0,0l2.6-0.4l0.4-0.1l-0.3,0.3l-0.1,0.2c0.7,0.4,1.2,1.1,1.5,2
			c0.2,0.9,0.6,1.4,1,1.5l0.3,0.1l-0.2,0.2l-0.8,1.1l0,0.1l-0.1,0l-1.9,0.3l-0.2,0l0-0.2l-0.4-2.8l0-0.1l0.1-0.1
			c0.6-0.5,0.7-0.9,0.7-1c0-0.2-0.1-0.3-0.2-0.3l-2.4-0.5l-0.4-0.1L214.2,23.2L214.2,23.2z M202.8,30.3l-0.7-5.2l0-0.2l0.2,0
			l9.4-1.3l0.2,0l0,0.2c0,0,0.4,2,0.4,2l0.5,3.2l0,0.2l-0.2,0l-9.5,1.4l-0.2,0L202.8,30.3L202.8,30.3z M225.4,47.3l-19.5,2.8l-0.2,0
			l0-0.2l-0.7-5l0-0.2l0.2,0l0.1,0l0.1,0l0.1,0.1c0.2,0.3,0.5,0.8,0.9,1.4c0.4,0.6,0.7,1.1,0.9,1.3c0.2,0.3,0.3,0.3,0.3,0.3
			c0.3,0,0.5-0.3,0.7-0.8c0.2-0.5,0.7-1.1,1.4-1.6l4.9-4l-0.1-0.3c-3.2,1.1-6.4,2.1-9.5,2.7l-0.2,0l0-0.2L202.9,31l-0.1-0.4l0.3,0.2
			l0.9,0.5c1.1-0.4,1.8-0.7,2.2-0.7l6.3-0.9l0.2,0l0,0.2l0.5,2.5l0.1,0.4l-0.4-0.3l-1.9-1.4c-0.2,0-0.3,0-0.4,0
			c-0.2,0-0.3,0.1-0.4,0.3l0,0l0,0l-1.1,1.6l0,0.1l-0.1,0l-1.2,0.2l0,0l0,0l-3.6-1c0.2,0.8,0.3,1.6,0.5,2.6c0,0,0.5,3.7,0.5,3.7
			l0.4,3c0,0.4,0.1,0.6,0.3,0.7c0.1,0.1,0.2,0.1,0.4,0.1c0.1,0,0.4-0.1,1.3-0.6c0.9-0.5,1.2-0.7,1.2-0.8c0.1-0.1,0.1-0.2,0.1-0.4
			l-0.1-0.9l0-0.2l0.2,0l0.8-0.1l0.2,0l0,0.2l0.2,1.2c0,0.1,0.1,0.2,0.2,0.3c0.1,0.1,0.3,0.1,0.5,0.1c0.3,0,0.8-0.3,1.6-0.7
			c0.8-0.4,1.1-0.9,1-1.5c0,0-0.4-1.6-0.4-1.6l-0.5-3.3l0-0.1l0-0.1l0.4-0.5l0.2-0.3l0.1,0.4c0.5,2.9,1.3,5.3,2.2,7.2l0,0.1l0,0.1
			c-1.6,2.7-3.8,5.3-6.4,7.5l0.3,0.3c3.1-1.3,5.7-3,7.8-5.3l0.1-0.1l0.1,0.2c1,1.2,2,2.2,3.2,2.8c1.1,0.6,2,0.9,2.7,0.8
			c0.9-0.1,1.2-0.5,1.1-1.3c-0.1-0.4-0.2-0.9-0.5-1.5c-0.3-0.7-0.5-1.5-0.7-2.4c-0.1-0.9-0.3-2.4-0.4-4.6l-0.3,0
			c-0.4,3.8-0.5,4-0.5,4.1c-0.1,0.2-0.2,0.4-0.5,0.4c-0.3,0-0.5,0-0.7-0.1c-0.1-0.1-0.4-0.3-1.2-1.4l-0.1-0.1l0.1-0.1
			c0.9-1.6,1.7-3.8,2.4-6.5l0,0l0,0c0.2-0.2,0.5-0.5,0.8-0.7l0.2-0.2l0,0.3l2.1,14.5l0,0.2L225.4,47.3L225.4,47.3z M210,38.6l-0.2,0
			l-0.8,0.1l-0.2,0l0-0.2l-0.6-4.5l0-0.2l0.2,0l0.8-0.1l0.2,0l0,0.2l0.6,4.5L210,38.6L210,38.6z"/>
		<path class="st0" d="M211.1,31.2L211.1,31.2C211.1,31.2,211.1,31.2,211.1,31.2L211.1,31.2L211.1,31.2z"/>
		<path class="st0" d="M204.1,31.5L204.1,31.5c-0.1,0-0.1,0-0.2,0L204.1,31.5L204.1,31.5z"/>
		<path class="st0" d="M211.1,31.2L211.1,31.2C211.1,31.2,211.1,31.2,211.1,31.2L211.1,31.2L211.1,31.2z"/>
		<polygon class="st0" points="288.5,25.3 288.5,25.3 288.5,25.3 288.5,25.3 		"/>
		<path class="st0" d="M280.6,31.3l-0.3-0.4l0.5,0.1l11.3,1.6c0.3,0,0.4,0,0.5,0c0,0,0.1-0.1,0.1-0.1c0-0.1-0.1-0.3-0.2-0.5
			c0,0-2.8-3.6-2.8-3.6c-0.1-0.1-0.2-0.2-0.4-0.2c-0.2,0-0.4,0-0.5,0.2l-3,2.5l-0.1,0.1l-0.1,0l-6.9-1l-0.2,0l0-0.2l0.5-3.8l0-0.2
			l0.2,0c0.8,0.1,2.1,0,4,0c1.9-0.1,3.1,0,3.7,0c0.3,0,0.6,0.1,0.8,0.2c0.2,0.1,0.4,0.1,0.5,0c0.2-0.1,0.3-0.2,0.3-0.3
			c0-0.1,0-0.2-0.1-0.4l-3.1-4c-4.4,1.2-11.6,2-21.5,2.3l0,0.5c2.9,0.4,6.6,0.8,10.9,1.2l0.2,0l0,0.2l-0.5,3.5l0,0.2l-0.2,0
			l-14.5-2.1l0.9,1.3c0.7-0.1,1.9-0.1,3.8,0.2l5.1,0.7l0.3,0l-0.2,0.2c-2.9,3.8-7,7-12.2,9.7l0.4,0.6c4.1-1,6.9-1.9,8.2-2.6l0.3-0.2
			l0,0.3c0,0-0.4,3.9-0.4,3.9c0,0-1,7.2-1,7.2c0,0-0.6,3.1-0.6,3.1c0,0.1,0,0.2,0.1,0.3c0.1,0.1,0.3,0.3,1,0.4
			c0.7,0.1,1.5,0.1,2.4-0.1c1.1-0.2,1.2-0.5,1.3-0.6l0.2-2.1l0-0.2l0.2,0l8.8,1.2l0.2,0l0,0.2l-0.4,2.7c0,0.1-0.1,0.4,0.7,0.5
			c0.7,0.1,1.5,0,2.4-0.2c1.2-0.3,1.3-0.6,1.3-0.7c0,0,0.3-3.3,0.3-3.3l1-7.4c0-0.3,0.3-0.6,0.6-0.7c0.4-0.2,0.4-0.3,0.4-0.3
			l0.1-0.3l0.2,0.2c1.3,1,2.2,1.6,2.7,1.9c0.8-1.2,1.5-2,2.1-2.4c0.6-0.4,1.4-0.5,2.2-0.4c0.2,0,0.3,0.1,0.5,0.1l0.3-0.6
			C288.1,38,284,35.1,280.6,31.3L280.6,31.3z M279,45.6l-0.6,4.2l0,0.2l-0.2,0l-8.8-1.2l-0.2,0l0-0.2l0.6-4.2l0-0.2l0.2,0l8.8,1.2
			l0.2,0L279,45.6L279,45.6z M279.7,40.4l-0.6,4.1l0,0.2l-0.2,0l-8.8-1.2l-0.2,0l0-0.2l0.6-4.1l0-0.2l0.2,0l8.8,1.2l0.2,0
			L279.7,40.4L279.7,40.4z M282.5,38.6L282.5,38.6l-0.2,0.2l-0.1-0.1c-0.4-0.4-0.7-0.5-0.7-0.5c-0.1,0-0.1,0-0.1,0l0,0l0,0l-1.8,1.3
			l-0.1,0l-0.1,0l-8.4-1.2l0,0l0,0l-2.5-1.9l-0.2-0.2l0.2-0.1c2.1-1.2,3.8-2.8,5.1-4.6l0.1-0.1l0.1,0l0.1,0l0.2,0l0,0.2
			c0,0-0.3,2.2-0.3,2.2c0,0-0.8,4.1-0.8,4.1c0,0,0,0,0,0v0c0,0,0.1,0.1,0.6,0.2c0.7,0.1,1.6,0.1,2.6-0.1c1.3-0.2,1.5-0.5,1.5-0.6
			c0,0,0.4-3.3,0.4-3.3l0.4-2.8l0-0.2l0.2,0l0.1,0l0.1,0l0,0.1c0.5,2.6,1.7,4.9,3.7,7.1l0.1,0.1L282.5,38.6L282.5,38.6z"/>
		<path class="st1" d="M342.9,70.9C342.8,71,342.8,71,342.9,70.9c-0.1,0.1,0,0.2,0,0.2V70.9L342.9,70.9z"/>
		<polygon class="st0" points="351.7,51.2 351.7,51.2 351.7,51.2 351.7,51.2 		"/>
		<polygon class="st0" points="350.5,57.6 350.5,57.6 350.5,57.6 350.5,57.6 		"/>
		<path class="st0" d="M350.5,48.2c-0.1-0.3-0.3-0.4-0.3-0.5c-0.1-0.1-0.3,0-0.5,0l-2.6,1.2l-0.1,0l-0.1,0l-0.6-0.3l-0.2-0.1
			l0.1-0.2l1.4-3.1c0.1-0.2,0.4-0.4,1-0.6c0.7-0.2,0.8-0.3,0.8-0.3c0,0,0.1-0.2-0.6-0.7l-3.8-3.1c-0.3,0.6-1.1,2.6-1.1,2.6l-1.5,3.3
			l-0.1,0.2l-0.2-0.1l-2.2-1l-0.2-0.1l0.1-0.2l1.5-3.3c0.1-0.2,0.4-0.4,1-0.5c0.7-0.1,0.7-0.3,0.7-0.3c0,0,0.1-0.2-0.7-0.8l-3.7-3.1
			c-0.3,0.7-1.2,2.8-1.2,2.9l-1.6,3.4l-0.1,0.2l-0.2-0.1l-3.7-1.7l0.5,1.4c0.9,0.1,1.7,0.3,2.4,0.6l0.6,0.3l0.2,0.1l-0.1,0.2
			l-2.1,4.7l-0.1,0.2l-0.2-0.1l-4.1-1.9l-0.2-0.1l0.2-0.2l2.7-3l-0.3-0.4c-2.3,2.1-4.6,3.9-6.7,5.4c-2.2,1.6-3.6,2.3-4.4,2.3
			c-0.7,0-1.5-0.2-2.2-0.5c-0.4-0.2-0.7-0.4-1.1-0.6l-0.4,0.6c1.1,0.9,1.8,1.7,1.9,2.2c0.2,0.6,0.1,1.2-0.2,1.8
			c-0.2,0.5-0.8,1.3-1.6,2.3c-0.8,1-1.3,1.6-1.4,2c-0.3,0.7-0.3,1.7,0,2.8c0.3,1.1,0.9,1.9,1.5,2.2c1.1,0.5,2-0.1,2.7-1.7
			c0.5-1.1,0.8-2.1,1.1-3.1c0.2-1.1,0.4-1.8,0.6-2.3l0-0.1l0.1,0c2.5,0.2,4.9-0.1,7-0.9l0.4-0.1l-0.2,0.4c0,0-3.1,6.9-3.1,6.9
			c-0.3,0.6-0.3,1.5,0,2.5c0.3,1,1,1.9,2.3,2.6c1.3,0.7,2.6,1.4,3.9,2c3.1,1.4,5.5,2.2,7,2.4c1.4,0.2,2.8-0.5,4.1-2
			c-0.9-1.1-1.4-2.2-1.4-3c0-0.8,0.2-1.7,0.6-2.6l-0.4-0.3c-0.2,0.3-0.5,0.8-1,1.5c-0.6,0.9-1,1.4-1.5,1.7c-0.5,0.3-1.1,0.3-2,0
			c-0.8-0.2-2-0.7-3.5-1.3c-1.8-0.8-2.9-1.4-3.2-1.9c-0.4-0.5-0.4-1-0.1-1.7l1.2-2.7l0.1-0.2l0.2,0.1l4,1.8l0.2,0.1l-0.1,0.2
			l-0.6,1.1c0,0.1-0.1,0.2,0,0.2c0,0.1,0.2,0.3,0.5,0.4c0.6,0.3,1.5,0.4,2.5,0.4c1.3,0,1.6-0.3,1.7-0.5l0.9-1.9l0.2-0.3l0.2,0.3
			c0.5,1.2,1.4,2.3,2.5,3.5c1.5-1.4,3.1-1.8,4.7-1.4l0.4-0.4c-3.9-2.8-6.2-6-6.9-9.5l-0.1-0.3l0.3,0.1l7.8,3.6
			c0.1,0.1,0.3,0.1,0.4,0.1c0.1,0,0.1-0.1,0.2-0.2c0-0.1,0-0.2,0-0.3c-0.1-0.1-1.8-3.6-1.8-3.6c-0.2-0.3-0.3-0.4-0.3-0.4
			c-0.2-0.1-0.3,0-0.3,0l0,0l0,0l-2.9,1.4l-0.1,0l-0.1,0l-1.3-0.6l-0.2-0.1l0.1-0.2l2.1-4.7l0.1-0.2l0.2,0.1l5,2.3
			c0.3,0.2,0.5,0.1,0.6,0.1c0.1,0,0.1-0.1,0.1-0.1c0.1-0.1,0.1-0.3,0-0.5C351.7,51.1,350.5,48.2,350.5,48.2L350.5,48.2z M322.4,55.8
			L322,56l0.3-0.4c1.5-2.2,3.5-4.7,6.2-7.5l0.2-0.2l0.1,0.3l0.2,0.6c0.5,0,1.1,0.2,1.8,0.5l1.3,0.5l0.2,0.1l-0.2,0.2
			C329.9,52.6,326.6,54.5,322.4,55.8L322.4,55.8z M337.9,58.1l-1.6,3.6l-0.1,0.2l-0.2-0.1l-4-1.8l-0.2-0.1l0.1-0.2l1.6-3.6l0.1-0.2
			l0.2,0.1l4,1.8L338,58L337.9,58.1L337.9,58.1z M340.4,53.8c-0.2,1.1-0.3,2.1-0.3,3l0,0.2l-0.2,0l-2,0.2l0,0l0,0l-3.7-1.7l0,0l0,0
			l-0.8-1l-0.1-0.2l0.2-0.1c0.2-0.1,0.9-0.5,3.2-2.1l0.1-0.1l0.1,0l3.5,1.6l0.1,0.1L340.4,53.8L340.4,53.8z M341.9,47.7l-2.1,4.7
			l-0.1,0.2l-0.2-0.1l-2.2-1l-0.2-0.1l0.1-0.2l2.1-4.7l0.1-0.2l0.2,0.1l2.2,1l0.2,0.1L341.9,47.7L341.9,47.7z"/>
		<path class="st0" d="M328,39.2c-0.2,1.5,0,2.3,0.8,2.7c0.6,0.3,1.2,0.2,1.9-0.2c0.7-0.4,1.2-0.9,1.5-1.4c0.7-1.5-0.9-3.7-4.6-6.8
			l-0.5,0.2l0.7,1.8C328.2,36.4,328.2,37.6,328,39.2L328,39.2z"/>
		<path class="st0" d="M322.5,43.5c-0.2,2.3-0.2,3.1-0.1,3.4c0.1,0.4,0.3,0.6,0.6,0.7c0.6,0.3,1.2,0.2,1.9-0.3
			c0.7-0.4,1.2-1,1.6-1.8c0.3-0.7,0.3-1.5-0.1-2.4c-0.3-0.9-1.7-2.3-3.9-4.1l-0.5,0.2C322.5,40.3,322.7,41.7,322.5,43.5L322.5,43.5z
			"/>
		<path class="st1" d="M401,95.9C401,95.9,401,95.9,401,95.9C401,95.9,401,95.9,401,95.9L401,95.9L401,95.9z"/>
		<path class="st0" d="M396.9,100.1C396.9,100.1,396.9,100.1,396.9,100.1C396.9,100.1,396.9,100.1,396.9,100.1L396.9,100.1
			L396.9,100.1z"/>
		<polygon class="st1" points="402.1,80.5 402.1,80.5 402.1,80.5 402.1,80.5 		"/>
		<polygon class="st1" points="403.3,89.6 403.3,89.6 403.3,89.6 403.3,89.6 		"/>
		<path class="st0" d="M402.9,85.7c0-0.1-0.1-0.3-0.2-0.4c-0.1-0.1-0.3-0.1-0.5-0.1l0,0l0,0l-2.8,0.6l-0.1,0l-0.1-0.1l-1.6-1.4
			l-0.1-0.1l0.1-0.1l2.6-3l0.1-0.1l0.1,0l1.3,0.2c0.1,0,0.2,0,0.4-0.2c0.1-0.2,0.2-0.4,0.1-0.7l-3.1-4.9c-0.6,0.7-2.7,3.4-2.7,3.4
			l-2,2.3l-0.1,0.1l-0.1-0.1l-4.8-4.1l0.2,1.6c0.8,0.4,1.5,0.8,1.9,1.1l2.3,1.9l0.1,0.1l-0.1,0.1l-3.4,3.9l-0.1,0.1l-0.1-0.1
			l-5.3-4.6l0,1.6c0.9,0.3,1.6,0.8,2.2,1.3l5.3,4.6l0.1,0.1l-0.1,0.1c0,0-1.5,2.1-1.5,2.1l-1.5,1.7l-0.1,0.1L389,93l-8.2-7.1
			l0.1,1.5c0.6,0.3,1.3,0.7,2.1,1.3l5.6,4.9l0.1,0.1l-0.1,0.1l-5.8,6.7c-0.1,0.2-0.3,0.2-0.5,0.3c-0.3,0-0.7-0.1-1.1-0.5
			c-0.5-0.4-1.4-1.5-2.7-3.2l-0.5,0.4c0.5,0.7,0.8,1.4,1.2,2.2c0.3,0.9,0.5,1.5,0.4,1.9c-0.1,0.4-0.5,1.1-1.2,2.2
			c0.6,0.2,2.3,0.9,2.3,0.9c0.3,0.1,1,0.2,2,0.4c1,0.2,1.9-0.2,2.6-1l6.5-7.5l0.1-0.1l0.1,0.1l4.5,3.9c0,0,0.1,0.1,0.1,0.1
			c0,0,0.1,0,0.1-0.1c0.1-0.1,0.1-0.2,0.2-0.4c0-0.2-0.4-4-0.4-4c0-0.2-0.1-0.4-0.2-0.5c-0.2-0.1-0.3-0.2-0.6-0.1l-2.6,1l-0.1,0
			l-0.1-0.1l-0.5-0.4l-0.1-0.1l0.1-0.1l1.3-1.5l0.1-0.1l0.1,0c1.2,0.2,1.4,0,1.5,0c0.1-0.1,0.1-0.2,0-0.3l-3-4.3l-0.1-0.1l0.1-0.1
			l0-0.1l0.1-0.1l0.1,0.1l7.9,6.9c0.1,0.1,0.1,0.1,0.2,0.1c0,0,0.1,0,0.1-0.1c0.1-0.1,0.1-0.2,0.1-0.3c0-0.3-0.5-4.2-0.5-4.2
			c0-0.1-0.1-0.2-0.2-0.3c-0.1-0.1-0.3-0.1-0.5-0.1l-3.1,0.6l-0.1,0l-0.1-0.1l-3-2.6l-0.1-0.1l0.1-0.1l3.4-3.9l0.1-0.1l0.1,0.1
			l5.6,4.8c0.3,0.2,0.4,0.1,0.4,0.1c0.1-0.1,0.1-0.2,0.1-0.3C403.3,89.4,402.9,85.7,402.9,85.7L402.9,85.7z"/>
		<polygon class="st0" points="392.4,72.5 392.4,72.6 392.5,72.6 392.4,72.5 		"/>
		<polygon class="st0" points="385.5,85.2 385.3,85.2 385.3,85.3 385.5,85.2 		"/>
		<path class="st0" d="M380.6,84.5L380.6,84.5l4.8,0.7l0.3-0.7l-3.6-1.4l-0.2-0.1l0.2-0.2l2.9-3.4l0.1-0.1l0.1,0.1l3,2.6
			c0.3,0.3,0.4,0.2,0.5,0.1c0.1-0.1,0.1-0.2,0.1-0.4c0,0-0.1-3.3-0.1-3.3c0-0.2-0.1-0.3-0.2-0.4c-0.1-0.1-0.3-0.1-0.4-0.1l0,0l0,0
			l-2,0.8l-0.1,0l-0.1-0.1l-0.1-0.1l-0.1-0.1l0.1-0.1l4.8-5.5l0.1-0.1l0.1,0c0,0,1.2,0.4,1.2,0.4c0.1,0,0.3,0.1,0.5-0.2
			c0.1-0.2,0.2-0.3,0.1-0.6l-3.2-5.1c-0.5,0.6-2.1,2.8-2.1,2.8l-1.2,1.4l-0.2,0.2l-0.1-0.2l-1.8-3.7c-3,3.4-7,6.6-12,9.4l0.2,0.5
			c2.5-0.3,5.2-1.2,8.3-2.5l0.1,0l0.1,0.1l1.1,1l0.1,0.1l-0.1,0.1l-4.2,4.8l-0.1,0.1l-0.1,0l-6.7-2.6c-0.3,0.8-1.5,4.5-1.5,4.5
			c-0.1,0.3,0,0.4,0.1,0.6c0.1,0.1,0.3,0.2,0.9,0c0.5-0.1,1.1-0.2,1.7-0.2l3,0.3l0.3,0l-0.2,0.3c0,0-4.2,4.8-4.2,4.8l-2.9,3.1
			c-0.2,0.3-0.3,0.5-0.3,0.7c0,0.2,0.1,0.3,0.3,0.5c0.4,0.3,1.2,0.7,2.2,1.2c1,0.4,1.8,0.3,2.2-0.3c0,0,2.5-3.3,2.5-3.3L380.6,84.5
			L380.6,84.5L380.6,84.5z M381.2,75.1l-0.2-0.2l0.2-0.1c0.1,0,0.6-0.4,2.6-2l0.1-0.1l0.1,0l0.5,0.1l0.3,0.1l-0.2,0.2l-2.3,2.6
			l-0.1,0.1l-0.1-0.1L381.2,75.1L381.2,75.1z"/>
		<path class="st0" d="M379.8,96.4c0.5,0.4,1.1,0.6,1.8,0.5c0.7-0.1,1.3-0.5,1.7-1c0.5-0.6,0.7-1.3,0.7-2.2c0-0.9-0.5-2.3-1.5-4.4
			l-0.6,0.1c0,1.4-0.7,2.8-2,4.3C379,94.8,379,95.7,379.8,96.4L379.8,96.4z"/>
		<polygon class="st1" points="440,134.5 440,134.5 440,134.5 440,134.5 		"/>
		<path class="st0" d="M445.6,132.7c-0.6,0.6-1.6,1.4-3,2.4l-20.3,13.1c-0.6,0.4-1.1,0.3-1.5-0.3c-0.4-0.7-1.1-2.1-1.9-4.1l-0.6,0.2
			c0.4,1.4,0.6,2.6,0.6,3.4c-0.1,0.9-0.9,1.8-2.4,3c2.8,2.6,5.2,3.3,7.3,2l20.9-13.5c0.6-0.4,1.2-0.4,1.9,0.1l0,0
			c0.2,0.1,0.4,0.1,0.6,0c0.1-0.1,0.2-0.2,0.2-0.4L445.6,132.7L445.6,132.7z"/>
		<path class="st0" d="M437.6,128.6C437.6,128.6,437.6,128.6,437.6,128.6C437.6,128.6,437.6,128.6,437.6,128.6L437.6,128.6
			L437.6,128.6z"/>
		<path class="st0" d="M423.9,136.4L423.9,136.4l0.1,0c0,0,1.5,0.4,1.5,0.4c0.2,0,0.3,0,0.4,0c0.1-0.1,0.2-0.2,0.2-0.4
			c0,0,0.4-3.7,0.4-3.7c0-0.2,0-0.3-0.2-0.5c-0.1-0.2-0.3-0.3-0.5-0.4l-2.8-0.6l-0.1,0l0-0.1l-1.4-2.1l-0.1-0.2l0.2-0.1l2-1.1l0.1,0
			l0.1,0l1.1,0.6c0.2,0.1,0.3,0.1,0.5,0c0.2-0.1,0.3-0.3,0.2-0.6l-1.2-4.2l0-0.1l0.1-0.1l0.5-0.3l0.1-0.1l0.1,0.1l3.1,4.8l0.1,0.1
			l-0.1,0.1l-1.9,1.2c-0.1,0.1-0.2,0.2-0.2,0.3c0,0.1,0,0.2,0.1,0.4c0.2,0.3,0.7,0.7,1.4,1.4c1,0.8,1.4,1.1,1.6,1.1
			c0.2,0.1,0.4,0,0.5-0.1l0,0l0,0c0,0,2.3-1.6,2.3-1.6l3.2-2.1c0.9-0.5,1.6-0.6,2.2-0.2c0.2,0,0.3,0,0.5-0.1
			c0.1-0.1,0.2-0.2,0.3-0.4c0-0.2,0.3-3.8,0.3-3.8c0-0.1-0.1-0.3-0.2-0.5c-0.1-0.2-0.3-0.3-0.5-0.4l-2.8-0.6l-0.1,0l0-0.1l-2.4-3.7
			l0,0l0,0l-0.9-5.6c-0.7,0.5-1.7,1.2-3,2.1c0,0-4.9,3.1-4.9,3.1c0,0-3.6,2.2-3.6,2.2c-0.2,0.1-0.3,0.2-0.3,0.3c0,0.1,0,0.2,0.1,0.3
			c0.3,0.5,0.9,1.1,1.8,1.9l0.2,0.2l-0.2,0.1l-2.2,1.4c-2.2,1.4-4.7,2.4-7.6,2.9c-2.8,0.5-5.7,0.5-8.6-0.2l-0.2,0.6
			c6.3,2.6,12.2,2.8,17.5,0.8l0.1-0.1l0.1,0.1l1.8,2.8l0.1,0.2l-0.2,0.1c-1.8,1-3.7,2-5.7,2.9c-3.1,1.4-3.4,1.5-3.5,1.5
			c-0.3,0-0.6-0.2-0.8-0.6c-0.4-0.6-0.9-1.9-1.5-4.2l-0.5,0.1c0.2,1.7,0.1,2.8-0.3,3.5c-0.3,0.6-1,1.2-1.8,1.7
			c0.6,0.7,1.2,1.4,1.7,1.9c0.6,0.6,1.2,1,1.9,1.4c0.7,0.4,1.3,0.5,2,0.5c0.7-0.1,1.9-0.5,3.8-1.4
			C419.7,138.7,421.7,137.6,423.9,136.4L423.9,136.4z M425.9,122.5l5.6-3.6l0.1-0.1l0.1,0.1l3.1,4.8l0.1,0.1l-0.1,0.1l-5.6,3.6
			l-0.1,0.1l-0.1-0.1l-3.1-4.8l-0.1-0.1L425.9,122.5L425.9,122.5z"/>
		<path class="st0" d="M438.4,128.1C438.4,128.1,438.4,128.1,438.4,128.1C438.4,128.1,438.3,128.1,438.4,128.1L438.4,128.1
			L438.4,128.1z"/>
		<path class="st0" d="M439.8,135c0.2-0.1,0.2-0.2,0.2-0.5l-1.4-5.4c-0.4,0.4-0.9,0.8-1.5,1.2c-0.7,0.5-1.2,0.8-1.5,1
			c0,0-10.8,7-10.8,7l-3.8,2.3c-0.2,0.1-0.3,0.3-0.4,0.4c0,0.2,0,0.3,0.1,0.5c0,0,0.3,0.2,1.7,1.4c1,0.8,1.8,1,2.3,0.6
			c0,0,3-2.1,3-2.1l9.8-6.3c0.6-0.4,1.3-0.4,1.9,0l0,0C439.6,135.1,439.7,135.1,439.8,135L439.8,135z"/>
		<path class="st0" d="M449.2,183.3c0.8-0.2,1.5,0,2.1,0.7c0.2,0.3,0.4,0.3,0.4,0.3c0.1,0,0.2-0.2,0.3-0.3l0.4-1.9l0-0.2l0.2,0.1
			c1.3,0.5,2.1,0.8,2.4,0.9l0,0l0,0c1,0.5,1.7,1.1,1.9,1.8c0.1,0.3,0.2,0.3,0.4,0.3c0.2,0,0.3-0.2,0.4-0.4l1.5-5.5l0.1-0.2l0.2,0.1
			c2.4,1.2,3.7,2.2,4.1,3.1c0.1,0.3,0.3,0.3,0.4,0.3c0.2-0.1,0.3-0.2,0.4-0.6l1.6-5.2c-5.9-0.7-10.6-2.2-13.8-4.3l-0.4,0.6
			c2.2,2.2,4.5,4,6.9,5.6l0.1,0.1l-0.1,0.1l-0.1,0.1l-0.1,0.1l-0.1,0c-6.3-0.4-12.1-1.9-17.4-4.6l-0.4,0.6c2.1,2,4.1,3.5,5.8,4.4
			l0.4,0.2l-0.4,0.1c0,0-9.6,2.8-9.6,2.8c0,0-4.2,1.1-4.2,1.1c-0.1,0-0.2,0.1-0.3,0.2c-0.1,0.2-0.1,0.5,0,1c0.2,0.7,0.6,1.5,1.2,2.2
			c0.8,0.9,1.1,1,1.3,0.9c0,0,3.8-1.3,3.8-1.3L449.2,183.3L449.2,183.3z"/>
		<path class="st0" d="M469.5,195c-0.1-0.2-0.2-0.3-0.4-0.4l-3.3-1.4l-0.1,0l0-0.1l-3.1-10.5l-0.8,1.3c0.5,0.6,0.9,1.5,1.2,2.6
			l3.6,12.2c0.2,0.6,0.3,0.7,0.4,0.8c0,0,0.1,0,0.1,0c0.1,0,0.2-0.1,0.4-0.5c0,0,1.8-3.4,1.8-3.4C469.5,195.4,469.5,195.2,469.5,195
			L469.5,195z"/>
		<path class="st0" d="M461.7,199.9l-3.2-1.6l-0.1,0l0-0.1l-4.3-14.7l-0.9,1.2c0.6,0.8,1.1,1.8,1.4,2.9l1.7,5.9l0,0.2l-0.2,0
			l-13.3,3.9c-0.4,0.1-0.8,0.1-1.1,0c-0.2-0.1-0.4-0.4-0.5-0.7c-0.1-0.4-0.4-2.1-0.8-5l-0.5,0c-0.2,3.4-1.4,5.5-3.6,6.4
			c1.8,3.3,3.7,4.7,5.8,4.1l15.2-4.5l0.2,0l0,0.2l1.9,6.3c0.1,0.3,0.2,0.4,0.2,0.4c0,0,0.1,0,0.1,0c0.1,0,0.2-0.1,0.3-0.4l1.9-3.5
			c0.1-0.2,0.2-0.4,0.1-0.5C462.2,200.2,462,200.1,461.7,199.9L461.7,199.9z"/>
		<path class="st0" d="M475.6,258.4L475.6,258.4C475.6,258.3,475.6,258.3,475.6,258.4L475.6,258.4L475.6,258.4z"/>
		<path class="st0" d="M463.5,250l-0.3-0.1l0.3-0.2c0,0,1.6-1.4,1.6-1.4c0.1-0.1,0.2-0.3,0.2-0.4c0-0.1,0-0.2-0.1-0.3l-2.1-1.4
			l-0.5-0.3h0.6l7.9,0l0.2,0v0.2l0,4.4c0,0.1,0,0.2,0,0.2c0,0,0.1,0,0.1,0c0.1,0,0.2,0,0.3-0.1c0.1-0.1,3.4-3.2,3.4-3.2
			c0.1-0.1,0.1-0.2,0.1-0.3c0-0.2-0.1-0.3-0.2-0.4l-3-2.4l-0.1-0.1v-0.1l0-10.9l-1.2,0.9c0.3,1.1,0.5,1.9,0.5,2.4l0,4.9v0.2h-0.2
			l-18,0h-0.1l0-0.1l-0.3-1.2l0-0.2l0.2,0l10.5,0c0.5,0,0.9,0.2,1.2,0.5c0.2,0.3,0.4,0.4,0.6,0.4c0.1,0,0.2-0.1,0.2-0.1l1.8-5.1
			c-0.8,0-3.6,0.1-3.6,0.1l-11.2,0h-0.1l0-0.1l-0.5-3.1c-0.9,0.4-4.5,2-4.5,2c-0.7,0.3-0.8,0.5-0.8,0.6c0,0.1,0,0.2,0.5,0.6
			c0.4,0.3,0.6,0.5,0.8,0.7c0.1,0.1,0.3,0.4,1.1,2.1c0.6,1.2,1.2,2.8,2,4.7l3.6,9l0.8-0.2l-1.3-6.2l0-0.2l0.2,0l8.3,0h0.2v0.2l0,3.3
			v0.2l-0.2-0.1c-1.7-0.5-3.8-1.3-6.1-2.3l-0.3,0.4c1.5,1.6,3.4,3.2,5.6,4.5l0.1,0.1v0.1v0.1v0.2l-0.2,0c-3.6,0.3-6.1,0.8-7.7,1.4
			l-0.1,0l-0.1-0.1c-4.4-3.5-7.6-7.7-9.7-12.7l-0.4,0.2c1.6,6.7,4,11.7,7.1,14.9l0.1,0.1l-0.2,0.1c-2.1,1.5-4.1,3.4-6,5.5
			c2,1.4,3.1,3.3,3.2,5.6l0.6,0.1c1.4-4.2,3.1-7.3,5.2-9.1l0.1-0.1l0.1,0.1c2.7,1.5,6.1,2.6,10.2,3.2l0,0l0,0
			c0.7,0.2,1.3,0.8,1.7,1.6l0,0l0,0c0,0.3,0.2,0.4,0.3,0.4c0.1,0,0.2,0,0.3-0.2l0.6-1.6l0-0.1h0.1h0.1h0.2v0.2l0,4.5
			c0,0.2,0.1,0.3,0.2,0.3c0.1,0,0.2,0,0.3-0.1c0,0,3.4-3.7,3.4-3.7c0.1-0.1,0.2-0.3,0.2-0.5c0-0.2-0.1-0.3-0.2-0.4l0,0l0,0l-3.1-2.3
			l-0.1-0.1V260l0-4.2l0-0.2l0.2,0.1c0.2,0.1,1.2,0.3,2.9,0.7c1.7,0.4,2.7,0.7,3,0.8c0.3,0.1,0.6,0.4,0.9,0.9
			c0.2,0.4,0.3,0.6,0.5,0.6c0.1,0,0.3-0.1,0.4-0.3l2.1-5.8C473,252.1,468.2,251.2,463.5,250L463.5,250z M466.9,258
			c-4.3-0.1-7.6-0.6-9.8-1.2l-0.3-0.1l0.2-0.2c1.1-1,3.2-1.9,6.1-2.8l0.1,0l0.1,0c1.7,0.8,2.9,1.4,3.7,1.6l0.1,0v0.1l0,2.4v0.2
			L466.9,258L466.9,258z"/>
		<polygon class="st0" points="459.6,329.2 459.6,329.2 459.5,329.2 459.6,329.2 		"/>
		<polygon class="st0" points="433.3,323.4 433.3,323.4 433.3,323.4 433.3,323.4 		"/>
		<path class="st0" d="M466,300.8l-21.3-6.3c-0.8-0.2-1.3-0.9-1.5-2c0-0.2-0.1-0.3-0.3-0.3c-0.2-0.1-0.3,0-0.3,0.1l0,0l0,0
			c0,0-3.6,2.2-3.6,2.2c-0.1,0.1-0.2,0.2-0.3,0.4c-0.1,0.3,0,0.6,0.2,0.8l0,0l0,0l1.2,2.4l0,0.1l0,0.1l-7.2,24.7
			c-0.1,0.3,0,0.3,0.2,0.4c0.1,0,0.2,0,0.3,0c0.1,0,3.8-2.3,3.8-2.3c0.1-0.1,0.2-0.2,0.3-0.3c0-0.1,0-0.3-0.1-0.4l-2-2.9l0-0.1
			l0-0.1l5.6-19.2l0-0.2l0.2,0l24.8,7.3l0.2,0l0,0.2l-6.9,23.5c-0.1,0.3,0,0.3,0.1,0.3c0,0,0.1,0,0.4-0.1c0.1,0,4.1-2.4,4.1-2.4
			c0.2-0.1,0.3-0.2,0.3-0.3c0-0.1,0-0.3-0.1-0.5l-2.1-3.1l0-0.1l0-0.1l4.8-16.4l0,0l0,0l3.7-4.5C469.2,301.6,466,300.8,466,300.8
			L466,300.8z"/>
		<polygon class="st0" points="457.3,324 457.3,323.9 457.3,323.9 457.3,324 		"/>
		<path class="st0" d="M460.6,321.4c0.1-0.2,0.1-0.4,0-0.6l-1.5-2.5l0-0.1l0-0.1l1.5-5.1l0,0l0,0l3.3-4.1c-0.8-0.2-3.2-0.8-3.2-0.8
			c0,0-3.1-0.9-3.1-0.9c0,0-3-1-3-1c-0.2-0.1-0.3-0.1-0.4,0c-0.1,0-0.1,0.1-0.2,0.2c-0.1,0.3-0.2,1-0.2,2.3c0,0.8,0,1.8,0.6,1.9
			l0.5,0.1l0.2,0l0,0.2l-1.8,6.2l0,0.2l-0.2,0l-1.3-0.4c-0.2,0-0.3,0-0.4,0c-0.1,0.1-0.2,0.2-0.2,0.3c-0.1,0.2-0.1,0.6-0.1,1.9
			c0,1.3,0.1,1.7,0.2,1.8c0.1,0.2,0.3,0.3,0.5,0.4c0,0,1.6,0.4,1.6,0.4l2.7,0.8l0.1,0l0,0.1l0.5,1.2c0.1,0.1,0.2,0.2,0.3,0.3
			c0.1,0,0.2,0,0.4-0.1c0.1-0.1,2.9-2.1,2.9-2.1C460.4,321.7,460.5,321.6,460.6,321.4L460.6,321.4z M458.2,318.7l-0.2,0l-4-1.2
			l-0.2,0l0-0.2l1.8-6.2l0-0.2l0.2,0l4,1.2l0.2,0l0,0.2l-1.8,6.2L458.2,318.7L458.2,318.7z"/>
		<path class="st0" d="M447.1,324.5C447,324.6,447,324.5,447.1,324.5C447,324.6,447,324.6,447.1,324.5L447.1,324.5L447.1,324.5z"/>
		<path class="st0" d="M448.7,319.6L448.7,319.6l0-0.2l0.4-1.4l0,0l0,0l3-3.3l-1.5-0.3l-0.3-0.1l0.3-0.2l2.7-2.2
			c0.1-0.1,0.2-0.2,0.2-0.3c0-0.1,0-0.2-0.1-0.3l0,0l0,0l-1.6-2.1l-0.1-0.1l0-0.1l0.5-1.6l0,0l0,0l3.6-3.5c-0.8-0.2-3.3-0.9-3.3-0.9
			c0,0-5.9-1.7-5.9-1.7l-4.3-1.4c-0.2-0.1-0.3-0.1-0.4,0c-0.1,0-0.1,0.1-0.2,0.3c-0.1,0.4-0.2,1.2-0.3,2.3c-0.1,1.1,0.1,1.7,0.6,1.8
			l2.2,0.6l0.2,0l0,0.2l-0.5,1.6l0,0.2l-0.2,0c0,0-1-0.3-1-0.3c0,0-1.7-0.6-1.7-0.6c-0.1,0-0.2,0-0.3,0c-0.1,0.1-0.2,0.2-0.3,0.4
			c-0.1,0.2-0.1,0.7-0.1,1.9c0.1,1.4,0.2,1.7,0.2,1.8c0.1,0.1,0.2,0.2,0.4,0.3l0,0l0,0c0,0,3.2,0.8,3.2,0.8l5,1.5l0.1,0l0,0.1
			l0.5,1.3l0.1,0.3l-0.3-0.1c0,0-6.1-1.8-6.1-1.8c0,0-3.8-1.3-3.8-1.3c-0.1,0-0.3-0.1-0.4,0c-0.1,0-0.1,0.1-0.2,0.2
			c-0.1,0.4-0.2,0.9-0.2,1.6c0,0.7,0.1,1.2,0.1,1.6c0.1,0.3,0.2,0.5,0.5,0.6l1.7,0.5l0.2,0l0,0.2l-0.5,1.6l0,0.2l-0.2,0l-1.2-0.4
			c-0.3-0.1-0.5,0-0.6,0.3c-0.1,0.2-0.1,0.7-0.1,1.9c0.1,1.3,0.2,1.6,0.2,1.7c0.1,0.2,0.2,0.3,0.5,0.3c0,0,2.4,0.6,2.4,0.6l4.2,1.2
			l0.1,0l0,0.1c0,0,0.4,1.2,0.4,1.2c0,0.1,0.1,0.2,0.3,0.3c0.1,0,0.2,0,0.4,0c0.2-0.1,3.1-2.3,3.1-2.3c0.1-0.1,0.2-0.2,0.2-0.3
			c0-0.1,0-0.2-0.1-0.3L448.7,319.6L448.7,319.6z M444.6,307.1l-0.2,0l0-0.2l0.5-1.6l0-0.2l0.2,0l6.1,1.8l0.2,0l0,0.2l-0.5,1.6
			l0,0.2l-0.2,0L444.6,307.1L444.6,307.1z M448.3,317.7l-0.5,1.6l0,0.2l-0.2,0l-6.1-1.8l-0.2,0l0-0.2l0.5-1.6l0-0.2l0.2,0l6.1,1.8
			l0.2,0L448.3,317.7L448.3,317.7z"/>
	</g>
	<g>
		<path d="M747.7,179.8h-38.6v32.5h-10.3v-32.5h-38.4v-47.5h38.4v-18.1h10.3v18.1h38.6V179.8z M698.8,169.8v-27.7h-28v27.7H698.8z
			 M737.4,169.8v-27.7h-28.2v27.7H737.4z"/>
		<path d="M827.7,131.2h-12.8v5.9h-9.9v-5.9h-23.8v-9.1h23.8v-7.7h9.9v7.7h12.8V131.2z M879.4,184h-43.8v7.1h36.3v8.6h-36.3v12.5
			h-10v-12.5h-36.2v-8.6h36.2V184h-44.2v-8.7h44.2v-27.1h-37.8v-8.6h85.4v8.6h-37.6v27.1h43.8V184z M820.2,165.8h-12.2v6.4h-9.6
			v-6.4H784v-8.3h14.4v-5.8h9.6v5.8h12.2V165.8z M879.3,131.2h-23.8v5.9h-10.1v-5.9h-12.6v-9.1h12.6v-7.7h10.1v7.7h23.8V131.2z
			 M876.7,165.8h-14.4v6.4h-9.6v-6.4h-12v-8.3h12v-5.8h9.6v5.8h14.4V165.8z"/>
		<path d="M1005.6,204.8l-6.5,8.2c-21.9-16.6-36.3-34-43.2-52.2c-5.4,20.4-19.8,37.6-43,51.6l-6.8-8.2
			c29.5-18.4,44.3-42.4,44.3-72.1v-18H961v23.1c0,12.2,4.1,24.2,12.3,35.9C981.5,185,992.2,195.5,1005.6,204.8z"/>
		<path d="M1131.9,190.2c-4.1,14.9-10.3,22.4-18.6,22.4c-5.7,0-11.9-3.6-18.7-10.9s-11.6-17.5-14.6-30.9h-30V200
			c9.5-2,19.5-4.6,30-7.9l0.9,10.3c-14.1,4.1-27.8,7.4-41.2,9.9l-3.3-10.1c2.1-0.8,3.1-2.4,3.1-4.7v-80.8h82V148h-33.5
			c-0.1,4.7,0.1,9.1,0.8,13.1h39.6v9.8h-37.7c2,9,5.5,16.5,10.4,22.4c4.9,5.9,8.8,8.9,11.8,8.9c1.1,0,2-0.3,2.8-0.8s1.9-2.5,3.4-5.7
			c1.5-3.3,2.7-6.9,3.6-10.9L1131.9,190.2z M1111.2,138.2v-11.6h-61.1v11.6H1111.2z M1078.6,161.1c-0.5-3.8-0.9-8.2-1.2-13.1h-27.3
			v13.1H1078.6z"/>
		<path d="M1256.6,178.8h-97.7V169h24.1v-25.3h-20.3v-10.1h20.3v-19.2h10.3v19.2h28.8v-19.3h10.4v19.3h20.2v10.1h-20.2V169h24.2
			V178.8z M1199.2,188.1c-9.6,9.6-20.9,17.9-34,25l-6.3-8.3c13.8-7.1,24.6-15,32.5-23.6L1199.2,188.1z M1222.1,169v-25.3h-28.8V169
			H1222.1z M1256.4,206.1l-7.9,7c-8.1-8.6-18.3-16.9-30.9-24.8l8-7.2C1236.8,188.3,1247,196.6,1256.4,206.1z"/>
		<path d="M1338.9,171.2l-5.6,8.9c-4.7-6.1-9.6-11.2-14.5-15.4v47.6h-9.9v-46c-6.3,11.2-13.2,20.2-20.6,26.9l-4.8-9.7
			c11.1-10.7,19.3-21.9,24.4-33.6h-22.1v-10h23.2V128c-6.8,1-12.6,1.5-17.2,1.5l-4.3-9.4c17-0.5,31.5-2.8,43.5-6.9l5.5,8.8
			c-4.9,1.6-10.7,3.1-17.6,4.3v13.6h18.2v10h-18.2v3.5C1325.9,158.7,1332.6,164.7,1338.9,171.2z M1380.1,212.2h-10v-8.7h-19.2v8.7
			h-9.7v-87.8h38.8V212.2z M1370.1,193.4v-59.1h-19.2v59.1H1370.1z"/>
		<path d="M1504.8,212.3h-10.1V208h-70v4.3h-9.9v-96.6h89.9V212.3z M1494.7,199.2v-74.6h-70v74.6H1494.7z M1461,183.8
			c-10.5,4.1-21.5,7.4-33.1,10l-1.2-9c10.8-2,22-5.2,33.8-9.6L1461,183.8z M1493.3,179.4c-1.8,11-5.7,16.5-11.7,16.5
			c-3.7,0-7-2.6-10-7.7c-3.4,3.9-6.8,7-10.1,9.3l-6.5-6.4c4.3-3.3,8.5-7.5,12.7-12.6c-2.7-8.6-4.6-20.2-5.7-34.8h-33.5v-8h32.9
			c-0.1-1.4-0.1-4.3-0.1-8.7l9.2-0.2c-0.1,3,0,6,0.3,8.9h12.7c-2.7-1.7-6-3.1-9.7-4.2l5.4-5.6c3.7,1.2,7.1,2.8,10.3,4.7l-4.8,5.1
			h6.2v8h-19.8c0.5,9.8,1.6,17.8,3.2,23.8c3.2-6,6-13,8.5-20.8l8,3.7c-3.5,12.1-7.9,21.9-13.1,29.4c0.5,1.9,1.3,3.4,2.2,4.5
			c0.9,1.1,1.5,1.7,1.9,1.7c0.5,0,1.2-1,2-3.1s1.5-5.3,2.1-9.7L1493.3,179.4z M1457.9,173.5H1431v-23.9h26.9V173.5z M1448.6,165.4
			v-7.7h-8.5v7.7H1448.6z"/>
		<path d="M1636.7,163.9l-4.8,8c-4.6-2.6-7.8-4.3-9.8-5.2v45.2h-10.3V207h-51.5v4.9h-10.1v-44.3c-2.6,1.2-5.4,2.4-8.5,3.4l-5.9-8.3
			c16.5-5.8,29.1-12.3,37.7-19.3h-35.3v-8.5h42.7v-7.5c-11.7,0.7-23.1,1-34.2,0.9l-3.1-8.9c4.8,0.2,9.5,0.3,14.2,0.3
			c22.8,0,43.7-2.2,62.7-6.5l5.5,7.4c-9.2,2.4-20.8,4.3-34.6,5.7v8.6h42.9v8.5h-42.9v1.3C1607.7,149.8,1622.8,156.3,1636.7,163.9z
			 M1580.9,164.5v-15.3c-5.6,5-13.6,10.1-24.1,15.3H1580.9z M1611.8,181.3V173h-51.5v8.3H1611.8z M1611.8,198.1v-8.3h-51.5v8.3
			H1611.8z M1617.7,164.5c-7.5-3.6-16.3-7.2-26.3-10.7v10.7H1617.7z"/>
		<path d="M1684.8,180.5c-3.6,10.5-8.3,21.1-14.1,31.8l-8.8-6.3c5.7-10,10.4-20.6,14.1-31.7L1684.8,180.5z M1685.6,154.6l-6.1,8.3
			c-5.4-4.9-11.2-9.1-17.4-12.7l5.5-8.7C1674.3,145.3,1680.3,149.7,1685.6,154.6z M1686.4,129l-6.7,7.5
			c-4.9-6.3-10.1-11.5-15.8-15.8l6.9-7.2C1677.7,118.8,1682.9,123.9,1686.4,129z M1762,172.1l-4.8,8.6c-4.8-2.5-9.5-5.7-14.1-9.7
			v20.5h-36.7v7.1c0,0.8,0.4,1.6,1.2,2.3c0.8,0.7,1.5,1.1,2.2,1.1c21.9,0,33.6-0.1,35.3-0.4c1.6-0.3,2.9-3.1,3.8-8.6l9.2,3
			c-0.3,4.1-1.5,7.6-3.4,10.7s-5.7,4.6-11.4,4.6h-34c-8.3,0-12.5-4-12.5-12v-23.7c-2.7,1.9-5.3,3.7-8,5.4l-5.7-8.7
			c10.2-5.3,17.5-11.3,21.9-17.8h-17.7v-9h16.3v-10.6h-15.1v-8.9h15.1v-11.2h9.9v11.2h19.7v-11.2h10.2v11.2h14.8v8.9h-14.8v10.6
			h15.9v9h-18.3C1746.1,162.3,1753.2,168.3,1762,172.1z M1733.3,182.6v-9.3h-26.9v9.3H1733.3z M1736.6,164.2
			c-2.4-2.9-4.5-6.3-6.2-10H1716c-2,3.7-4.3,7-6.9,10H1736.6z M1733,145.2v-10.6h-19.7v10.6H1733z"/>
		<path d="M1826.5,145.6h-8.8v19.2c1.9-0.5,4.5-1.3,8-2.6l0.2,10.1l-8.2,2.9v37.1h-10v-33.9c-8,2.1-14,3.5-18.1,4.3l-1.5-9.8
			c5.8-1.1,12.3-2.7,19.5-4.7v-22.5h-6.3c-1.4,6.3-2.8,11.7-4.4,16.1l-8.7-4c3.2-9.2,5.4-20.9,6.6-35.2l9.1,1.3
			c-0.1,2.7-0.5,6.6-1.2,11.9h4.7v-21.5h10v21.5h8.8V145.6z M1886.9,175.6h-10.4v27.2c0,2.6-0.6,4.6-1.8,6s-2.6,2.3-4.1,2.7
			c-1.6,0.4-4.4,0.6-8.5,0.6c-2.5,0-5.6-0.1-9.4-0.2l-2.6-9.9c3.7,0.3,6.9,0.4,9.6,0.4c3.4,0,5.4-0.2,6-0.6c0.6-0.4,0.9-1,0.9-1.8
			v-24.5H1829v-9.3h37.4v-7.4h10v7.4h10.4V175.6z M1886.4,134.6h-23.4v11.5h20.9l-0.1,9.2h-52.2v-9.2h21.5v-11.5h-23.8v-9.1h23.8
			v-11.2h9.9v11.2h23.4V134.6z M1856.2,193.8l-9,5.6c-3.5-5.6-8.2-10.9-14.1-15.8l9.1-5.5C1847.4,182.8,1852.1,188,1856.2,193.8z"/>
		<path d="M1970.1,165.3c-0.6,22.8-2.1,36.3-4.4,40.6c-2.3,4.3-6.8,6.4-13.5,6.4c-2.8,0-6-0.1-9.6-0.2l-2.9-9.4
			c6.5,0.2,10.7,0.3,12.7,0.3c3,0,4.8-1.7,5.5-5.2c0.6-3.5,1.3-11,1.9-22.6h-21.3c-2.6,16.9-8.3,29.5-17.1,37.8l-7.6-6.6
			c11-11.5,16.6-29.2,16.9-53.3h-9.8v-37.2h48.9V153h-29.2c-0.1,4.7-0.4,8.8-0.9,12.4H1970.1z M1959.4,143.3v-18h-28.2v18H1959.4z
			 M1988.9,191.9h-9.9v-70h9.9V191.9z M2009.9,198.8c0,5.2-1.1,8.8-3.3,10.7c-2.2,1.9-5.2,2.9-9.1,2.9c-5.6,0-9.6,0-12-0.1l-3.1-9.7
			c3.5,0.2,8.1,0.3,13.7,0.3c1,0,1.9-0.4,2.6-1.2c0.7-0.8,1.1-1.7,1.1-2.8v-84.3h10V198.8z"/>
		<path d="M2074.5,117.7c-8.2,10.9-18.2,19.9-30,26.7l-4.8-9.7c8.9-4.6,17.3-11.8,25.1-21.6L2074.5,117.7z M2076.8,138.5
			c-3.5,5.9-7.2,11.4-11.1,16.6v57.2h-10.4v-45.2c-4,4-7.8,7.1-11.3,9.3l-4.4-10c9.5-6.2,18.7-16.9,27.6-32L2076.8,138.5z
			 M2138.3,155.7h-15.2v45.6c0,7.5-4.1,11.2-12.2,11.2c-5.2,0-10.3-0.1-15.3-0.3l-3.7-10.2c3.1,0.1,9,0.1,17.5,0.1
			c0.7,0,1.4-0.3,2.1-0.9c0.7-0.6,1-1.3,1-2.2v-43.2h-36.7v-9.9h62.4V155.7z M2135.5,127.2H2079v-9.8h56.6V127.2z"/>
		<path d="M2217.4,190c-13.8,6.8-29.9,13.2-48.2,19.3l-3.7-9.1l5.6-1.8v-54.1h10v50.4c1.2-0.3,4-1.3,8.4-3v-63.8h-21.2v-9.4h48.2
			v9.4h-16.9v23.4h13.7v9.6h-13.7v26.6c5.9-2.4,11.3-4.8,16.1-7.3L2217.4,190z M2266,205.5l-6.1,8.2c-8-5.5-14.7-11.6-20.1-18.6
			c-7,7.5-15.5,13.8-25.6,18.7l-6.1-8.5c11.1-4.8,19.7-11,26.1-18.6c-3.8-6.7-6.6-13.8-8.4-21.2l8.7-4.1c1.3,5.5,3.1,10.6,5.4,15.4
			c4.3-11,6.8-23.2,7.4-36.5h-13.7c-3.7,10.7-7.5,19.9-11.4,27.6l-7.6-6.7c7.7-15.9,12.8-31.8,15.3-47.7l9.7,1.8
			c-0.9,5.9-1.9,11-3.1,15.4h27.6v9.6h-6.8c-1.6,20-5.4,35.6-11.4,46.9C2251.5,194.8,2258.2,200.9,2266,205.5z"/>
		<path d="M2390.5,209.5h-82.5c-3.3,0-5.8-1-7.5-3.1c-1.8-2.1-2.7-4.7-2.7-8v-73h-5.2v-8.6h96.8v8.6h-81.8v72.3c0,0.7,0.3,1.4,1,2.1
			c0.7,0.7,1.4,1,2.1,1h79.8V209.5z M2345.2,194.3H2314V163h31.2V194.3z M2373.3,157.2h-50v-25.5h50V157.2z M2335.8,185.7v-14.3
			h-12.4v14.3H2335.8z M2363.3,148.8v-8.7h-29.8v8.7H2363.3z M2383.4,194.3h-31.7V163h31.7V194.3z M2374,185.6v-14.2h-13v14.2H2374z
			"/>
		<path d="M2469.3,190c-13.8,6.8-29.9,13.2-48.2,19.3l-3.7-9.1l5.6-1.8v-54.1h10v50.4c1.2-0.3,4-1.3,8.4-3v-63.8h-21.2v-9.4h48.2
			v9.4h-16.9v23.4h13.7v9.6h-13.7v26.6c5.9-2.4,11.3-4.8,16.1-7.3L2469.3,190z M2517.9,205.5l-6.1,8.2c-8-5.5-14.7-11.6-20.1-18.6
			c-7,7.5-15.5,13.8-25.6,18.7l-6.1-8.5c11.1-4.8,19.7-11,26.1-18.6c-3.8-6.7-6.6-13.8-8.4-21.2l8.7-4.1c1.3,5.5,3.1,10.6,5.4,15.4
			c4.3-11,6.8-23.2,7.4-36.5h-13.7c-3.7,10.7-7.5,19.9-11.4,27.6l-7.6-6.7c7.7-15.9,12.8-31.8,15.3-47.7l9.7,1.8
			c-0.9,5.9-1.9,11-3.1,15.4h27.6v9.6h-6.8c-1.6,20-5.4,35.6-11.4,46.9C2503.4,194.8,2510.1,200.9,2517.9,205.5z"/>
		<path d="M2641.9,131.9h-80.8V177c0,13.3-2.8,25.1-8.3,35.3l-8.5-6.5c1.9-3.3,3.6-8.1,4.9-14.2c1.4-6.1,2-11.3,2-15.6v-53.2h40.6
			c-0.7-1.8-1.8-4.4-3.5-7.6l10.1-2.5c1.6,3.7,3,7,4.2,10.1h39.2V131.9z M2594.2,136.7c-1.4,3.4-3.2,7.4-5.4,12l-3.3,6.7V212h-9.9
			v-40.8c-1.7,2.1-4,4.7-7.1,7.9l-5.8-8.3c8.1-9.3,15.4-21.6,21.7-36.7L2594.2,136.7z M2642,159.2h-10.8v42.7c0,2.8-1.1,5.1-3.3,6.9
			c-2.2,1.8-4.7,2.7-7.6,2.7h-15.1l-3.8-10c2,0.1,7.9,0.2,17.6,0.2c1.5,0,2.3-0.8,2.3-2.4v-40.2h-31.1v-9.4h31.1V135h9.9v14.8h10.8
			V159.2z M2614.4,186.6l-8.3,5.4c-4.3-8.4-9.1-15.9-14.4-22.5l8.3-5.3C2605.9,171.3,2610.7,178.7,2614.4,186.6z"/>
	</g>
	<g>
		<path d="M736.6,276.9c-5.9,11-12.5,21.2-19.9,30.6h12.4v13h-23.6c-2.6,3-7.1,7.3-13.4,12.9h29.1v12.5c-5.6,5.2-12.6,11-21,17.5
			v2.4c10.7-1.6,20.6-3.5,29.7-5.5l0.2,13.7c-5.1,1-15.1,2.7-29.8,4.9v18.5c0,5.2-1.2,9-3.6,11.7c-2.4,2.6-7.6,3.9-15.5,3.9
			c-2.8,0-6.1-0.1-9.9-0.2l-4.3-14.5c4.8,0.3,8.7,0.5,11.6,0.5c5.1,0,7.7-1.1,7.7-3.3v-14c-15.6,2.1-26.8,3.4-33.6,3.8l-2.7-13.7
			c12.9-0.7,25-1.9,36.3-3.5v-10.1c5.8-4,10.9-7.8,15.5-11.4H675c-3.7,2.8-10,6.4-18.8,11l-7.7-11.3c13.9-6.4,26.7-14.9,38.5-25.5
			h-36.8v-13h30.4v-14.5h-24v-12.6h24v-13.5h14.3v13.5h16.7v11.6c5.7-8.4,9.8-15.3,12.3-20.9L736.6,276.9z M711.1,292.9h-16.1v14.5
			h4.9C702.8,304.2,706.5,299.4,711.1,292.9z M797,402l-8.8,11.6c-11.7-7.3-21.2-15.6-28.5-25.1c-9,9.7-20,17.8-32.9,24.5l-10.2-11
			c15.3-7.4,27-16,35-25.7c-4.2-7.1-8-18.3-11.3-33.6l12.9-5.9c1.7,10.1,4.1,18.7,7.3,25.7c6.6-14.5,10.2-33.9,11-58.1h-17.8
			c-4.4,14.2-10.5,27.8-18.2,40.9l-9.4-11.2c11.3-19.5,18.4-42.2,21.2-68.3l13.5,2.7c-1,7.4-2.3,14.8-3.7,22.2h38.2v13.7h-10
			c-1.5,32.8-7.1,57.1-17,72.8C775.2,386.7,784.7,395,797,402z"/>
		<path d="M982.7,290.9h-86.3c-8.3,7.4-16.3,13.3-24,17.7c20.4,0,42.9-1,67.6-3.1c-1.7-1.1-4.5-2.8-8.4-5.1l13.5-7.8
			c14.9,8.7,26.4,16.9,34.4,24.7l-11,9.7c-4-3.9-8.2-7.4-12.6-10.5c-42.1,3.4-78,5.2-108,5.5l-2.8-12.6
			c11.1-3.9,21.3-10.1,30.5-18.4h-38.2v-13.1h52.1c3.4-3.5,6.9-7.6,10.4-12.2l17.8,3.2c-1.4,2.3-3.9,5.4-7.5,9h72.5V290.9z
			 M965.6,399.9c0,2.4-0.8,4.8-2.4,7.1c-1.6,2.3-3.7,3.8-6.1,4.5c-2.4,0.7-7.7,1.1-15.8,1.1c-4.6,0-9.3-0.1-14.1-0.4l-4.5-14
			c4.6,0.5,9.3,0.7,13.9,0.7c6.7,0,10.7-0.3,12-0.9c1.3-0.6,1.9-1.6,1.9-3v-15.8c-23,5.2-48.8,10.1-77.6,14.8l-4.7-10.5
			c-4.1,14.3-9.8,24.5-17,30.6l-13.4-8.4c11.8-8.8,17.8-23.5,17.8-44v-33.4h109.9V399.9z M950.6,365.8v-24.4h-79.8v8.5
			c27.1,1,49.3,2.1,66.6,3.3l-4.3,12.9c-22.2-2-43-3-62.4-3.2c-0.2,7.1-0.8,13-1.9,17.8C895.5,377.2,922.8,372.2,950.6,365.8z"/>
		<path d="M1164.8,325.6c0,13.3-0.6,29.1-1.7,47.3c-1.1,18.2-2.3,28.7-3.5,31.4c-1.2,2.7-3.2,5-5.9,6.8c-2.8,1.8-6.3,2.8-10.6,2.8
			c-6.5,0-12.7-0.2-18.7-0.5l-3.5-14.2c5.8,0.4,12.6,0.7,20.4,0.7c2.9,0,4.7-1.9,5.3-5.6c0.6-3.7,1.7-22.1,3.3-55.2h-95.4
			c-1.2,30.6-8,55.9-20.5,75.8l-12-9.7c11.9-17.5,17.8-44,17.8-79.5v-54h121.4v40.9h-106.5v13H1164.8z M1145.7,299.4v-14.3h-91.1
			v14.3H1145.7z M1131.7,391.4h-66.3v-41.6h66.3V391.4z M1117,378v-15h-36.6v15H1117z"/>
	</g>
</g>
<g id="Layer_2">
</g>
</svg>
