<?xml version="1.0" encoding="UTF-8"?>
<svg id="Layer_1" data-name="Layer 1" xmlns="http://www.w3.org/2000/svg" viewBox="0 0 698.77 83.9">
  <defs>
    <style>
      .cls-1 {
        fill: #231f20;
        font-family: KozGoPr6N-Regular-90ms-RKSJ-H, 'Kozuka Gothic Pr6N';
        font-size: 12px;
      }

      .cls-2, .cls-3 {
        fill: #fff;
      }

      .cls-4, .cls-3, .cls-5 {
        fill-rule: evenodd;
      }

      .cls-4, .cls-6 {
        fill: #00586c;
      }

      .cls-7 {
        fill: #0095a9;
      }

      .cls-8 {
        fill: none;
      }

      .cls-5 {
        fill: #ec1f31;
      }

      .cls-9 {
        fill: #96ccd4;
      }

      .cls-10 {
        fill: #010101;
      }
    </style>
  </defs>
  <text class="cls-1" transform="translate(.14 13.78)"><tspan x="0" y="0">主辦機構</tspan></text>
  <text class="cls-1" transform="translate(241.6 10.56)"><tspan x="0" y="0">媒體伙伴</tspan></text>
  <text class="cls-1" transform="translate(411.6 10.56)"><tspan x="0" y="0">支持機構</tspan></text>
  <g>
    <g>
      <path class="cls-8" d="M26.07,54.56s.11-.9-.4-1.16c-.65-.33-3.01.75-3.01.75l-5.02,1.99s-.56.25-.56.75c0,.67.78.56.78.56h6.25s1.3.12,1.62-.17c.42-.39.33-1.06.33-1.06v-1.66Z"/>
      <path class="cls-2" d="M51.12,57.78c0-8.74-8.03-15.88-18.15-16.36v-9.27h-2.01v9.27c-9.8.4-17.68,7.04-18.27,15.36H.76v2.01h11.93c.59,8.33,8.49,14.98,18.31,15.36v8.74l2.01-.08v-8.67c10.1-.5,18.11-7.63,18.11-16.36Z"/>
      <path class="cls-7" d="M32.09,31.24c17.72,0,32.09,12.13,32.09,27.08s-14.37,25.58-32.09,25.58S0,73.28,0,58.32s14.37-27.08,32.09-27.08Z"/>
      <path class="cls-6" d="M.72,58.32c0-6.19,2.61-12.21,7.34-16.95,5.98-5.98,14.74-9.41,24.02-9.41v26.2l-31.37.16Z"/>
      <g>
        <path class="cls-2" d="M45.81,75.63s-.6,3.78-.17,4.78c.12.29-3.78,1.3-3.78,1.3l-.26-2.35,4.21-3.74Z"/>
        <path class="cls-2" d="M50.41,72.67s5.78.81,6.56.17c.48-.39,2.29-1.56,1.82-3.52-.47-1.96-.2-1.74.74-2.82,1.13-1.3-.18-1.3-.17-1.74,0-.74.65-.48.65-1.61,0-1.43-1.74-1.77.56-3.43,2.12-1.53,1.35-2.17-1.13-5.39-2.48-3.22-2.3-6.78-2.3-6.78,0,0,1.06.23,1.35-1.13.65-3.13-8.22-11.59-12.34-10.95-.12.02,4.26,37.2,4.26,37.2Z"/>
      </g>
      <path class="cls-6" d="M32.77,32.13s9.04.31,10.25,2.31c0,0,.9-.63,2.52.17,1.99.98,5.43,4.13,6.78,3.91,0,0-1.11,1.71.7,4.69,1.06,1.74,1.7,4.76,1.69,6,0,1.94-.66,1.66-.83,2.3-.58,2.24,4.69,5.82,4.69,7.91,0,1.85-2.43,1.74-2.78,2.09-.35.35.91,2.65.7,2.91-.36.43-.99,0-1.04.52-.04.48,1.02.21,1.04.65.04.74-1.38,1.06-1.22,2.56-.02-.21,1.42,3.25.22,4.26-.9.74-5.49.61-7.96,2.21-2.35,1.53-3.87,4.19-5.77,7.18,0,0-6.95,1.35-8.82,1.22,0,0-.21-9.04-.09-9.04,6.51,0,18.25-5.59,18.18-16.25-.09-12.7-16.03-16.15-18.29-16.15l.02-9.45Z"/>
      <g>
        <path class="cls-2" d="M51.18,57.84c0-8.74-8.03-15.88-18.15-16.36v-9.27h-2.01v9.27c-9.8.4-17.68,7.04-18.27,15.36H.82v2.01h11.93c.59,8.33,8.49,14.98,18.31,15.36v8.74l2.01-.08v-8.67c10.1-.5,18.11-7.63,18.11-16.36Z"/>
        <g>
          <path class="cls-9" d="M26.07,54.56s.11-.9-.4-1.16c-.65-.33-3.01.75-3.01.75l-5.02,1.99s-.56.25-.56.75c0,.67.78.56.78.56h6.25s1.3.12,1.62-.17c.42-.39.33-1.06.33-1.06v-1.66Z"/>
          <path class="cls-9" d="M38.06,54.64s-.11-.9.4-1.16c.65-.33,3.01.75,3.01.75l5.02,1.99s.56.25.56.75c0,.67-.78.56-.78.56h-6.25s-1.3.12-1.62-.17c-.42-.39-.33-1.06-.33-1.06v-1.66Z"/>
          <path class="cls-9" d="M47.42,60.42h-12.91v-8.78h11.22c-2.72-3.85-7.9-6.45-13.84-6.45s-10.96,2.52-13.71,6.27v.18h11.3v8.78h-13.12,0c.43,1.65,1.27,3.18,2.42,4.52h10.7v5.77h5.04v-5.77h10.49c1.15-1.34,1.99-2.87,2.42-4.52Z"/>
        </g>
      </g>
    </g>
    <g>
      <path class="cls-4" d="M79.85,48.96l.96-.96c.07-.1.16-.15.26-.15.08,0,.16.05.26.14l1,.95c.06.1.09.18.09.23,0,.1-.08.15-.25.15h-4.26v4.82h2.82l1.01-1.15c.09-.1.17-.15.24-.15.05,0,.13.06.25.18l1.06,1.06c.11.11.16.21.16.3,0,.11-.08.16-.25.16h-5.3v2.58l.05,2.24c0,.18-.05.31-.16.39-.1.08-.33.18-.7.29-.36.11-.59.17-.71.17-.2,0-.3-.14-.3-.43l.05-2.41v-2.82h-3.54c-.47,0-.87.05-1.19.15l-.53-.54h5.26v-4.82h-2.69c-.27,0-.69.06-1.27.19l-.52-.54h8.17ZM78.68,53.71l-.24-.17c.6-1.03,1.1-2.34,1.5-3.9l1.8.92c.11.06.17.15.17.27,0,.18-.09.27-.28.27-.21,0-.42.13-.62.38-.73.94-1.51,1.68-2.34,2.23ZM72.92,49.95l.22-.18c.99.56,1.64,1.01,1.94,1.35.3.33.46.73.46,1.19,0,.36-.12.69-.36.99-.23.3-.49.46-.76.46-.19,0-.34-.09-.45-.28-.11-.19-.23-.71-.34-1.56-.12-.86-.36-1.51-.71-1.97Z"/>
      <path class="cls-4" d="M97.21,55.24l-.05-.72h-5.88c-.41,0-.79.05-1.14.16l-.54-.54h5.49v-1.31h-2.39c-.39,0-.71.04-.95.13l-.54-.51h3.89v-.97h-.05c-.06.16-.17.31-.33.44-.16.13-.31.2-.44.2-.19,0-.34-.06-.44-.19-.1-.12-.16-.38-.18-.76-.04-.56-.13-.96-.27-1.19h-.18c-.96,1.28-1.98,2.31-3.06,3.1l-.12-.11c1.18-1.6,2.02-3.43,2.53-5.51l1.94.88c.09.04.14.1.14.18,0,.09-.06.15-.17.17l-.43.1-.56.82h1.17l.71-.91c.05-.09.13-.14.22-.14.07,0,.13.04.2.11l.88,1.01c.38-.81.66-1.52.83-2.13l1.96.84c.08.04.11.1.11.18,0,.09-.06.13-.18.13-.16,0-.33.09-.49.27l-.58.64h1.43l.76-.95c.04-.08.1-.12.18-.12.08,0,.15.03.21.08l1.13,1.06c.05.05.08.11.08.17,0,.1-.05.15-.15.15h-2.68l-.03.03c.46.25.68.6.68,1.05,0,.27-.08.49-.23.64l.99.78c.06.07.09.13.09.19,0,.1-.05.15-.15.15h-3.79v1.31h3.31l.63-.9c.05-.07.11-.11.19-.11.07,0,.13.03.19.08l1.1.99s.06.1.06.15c0,.11-.06.16-.19.16h-3.99v.03l1.18.23c.09.03.13.09.13.19,0,.1-.03.17-.1.22l-.38.25v.36h.61l.68-.97s.09-.07.17-.07c.1,0,.18.03.24.1l.98,1.02s.07.1.07.16c0,.1-.04.15-.13.15h-2.62v2.18c0,.3-.02.54-.07.71-.04.16-.16.33-.35.5-.19.17-.41.3-.65.37-.24.08-.62.16-1.15.27.01-.46-.08-.8-.28-1-.2-.2-.52-.38-.97-.54l.04-.21c.62.09,1.09.14,1.43.14.19,0,.28-.11.29-.34v-2.08h-3.63c.67.21,1.16.43,1.49.66.33.23.49.54.49.92,0,.3-.09.55-.27.72-.18.18-.37.27-.57.27-.36,0-.59-.26-.68-.79-.08-.53-.4-1.08-.95-1.64l.08-.13h-.56c-.39,0-.76.06-1.09.17l-.57-.56h6.26v-.56ZM94.55,50c.35.22.54.5.57.84l.64.21c.27-.32.5-.67.7-1.05h-1.91ZM96.8,52.46h2l.29-.45s-.08.02-.13.02c-.19,0-.32-.06-.42-.19-.09-.13-.15-.42-.18-.85-.02-.43-.09-.76-.21-.99h-.19c-.45.43-.95.85-1.51,1.27l.67.23c.07.04.11.1.11.19,0,.08-.02.13-.05.17-.03.03-.15.1-.38.22v.38Z"/>
      <path class="cls-4" d="M119.09,55.07l.6-.74c.04-.06.09-.09.14-.09.05,0,.1.02.15.05l.95.83c.05.06.08.12.08.18,0,.1-.06.15-.17.15h-3.26c.05.38.13.73.26,1.03.38-.36.67-.68.89-.97l1.33,1.17c.06.05.09.11.09.19,0,.13-.07.2-.21.21l-.44.03c-.08.07-.36.25-.83.56.12.14.31.27.56.38.26.11.46.17.6.17.12,0,.21-.02.26-.06.05-.04.14-.26.26-.64l.36-1.19.18.04c-.11.77-.17,1.37-.17,1.8s.05.83.15,1.14c.1.32.15.51.15.59,0,.26-.12.38-.37.38-.24,0-.75-.17-1.52-.5-.76-.33-1.36-.74-1.78-1.23-1.22.59-2.56,1.06-4.01,1.4l-.04-.15c1.42-.68,2.51-1.43,3.26-2.25-.18-.28-.37-.99-.57-2.11h-1.19l-.07.27c.89.41,1.34.91,1.34,1.5,0,.25-.06.46-.19.62-.12.16-.29.25-.49.25-.14,0-.26-.05-.38-.14-.11-.09-.19-.18-.21-.26-.02-.08-.03-.24-.03-.47,0-.27-.06-.54-.17-.83h-.03c-.38,1.68-1.28,2.87-2.69,3.59l-.13-.17c-.51.19-.89.28-1.14.29-.2,0-.29-.12-.29-.36l.05-2.25v-1.88h-.01c-.35.69-.88,1.29-1.6,1.8l-.13-.09c.84-1.65,1.36-3.56,1.54-5.71h-.4c-.24,0-.53.06-.86.17l-.48-.56h1.94v-2.43l-.07-1.19,2.04.72c.11.04.17.11.17.2,0,.05-.04.11-.13.17l-.36.25v2.06h.01l.26-.5c.03-.07.09-.1.17-.1.1,0,.23.1.4.31.2-.09.37-.32.52-.7.15-.38.37-1.05.66-2.02l1.47.82c.07.04.11.1.11.16,0,.12-.15.2-.46.25-.21.34-.56.79-1.05,1.36l.52-.07c.07-.07.22-.42.46-1.02l.69.3v-.97l-.08-1.23,1.97.64c.11.05.17.11.17.2,0,.07-.03.13-.1.18l-.38.29v1.64c.23-.11.56-.93.99-2.46l1.55.9s.07.1.07.18c0,.11-.04.16-.11.17l-.46.07c-.41.57-.76.96-1.05,1.19l.03.03.67-.12c.15-.23.33-.54.54-.94l1.22.87c.05.05.07.11.07.16,0,.06-.02.1-.05.12-.03.02-.18.06-.45.12-.25.29-.61.63-1.08,1.03.88.37,1.33.83,1.33,1.39,0,.21-.07.4-.22.59-.14.18-.32.27-.55.27-.38,0-.58-.21-.58-.64,0-.03.01-.16.03-.4-.38.09-.68.2-.88.32-.21.23-.34.34-.39.34v.03c.62.14.93.44.93.89,0,.16-.06.3-.18.43h.29ZM115.77,51.04h-.03c-.22.31-.5.62-.86.92.41.17.71.39.91.66l.03-.03c-.04-.86-.05-1.38-.05-1.56ZM118.43,51.52l-.03-.03c-.22.06-.36.14-.44.24-.08.1-.16.15-.25.15-.06,0-.17-.13-.34-.4h-.03v.99c.17-.03.29-.08.38-.15.08-.07.32-.34.72-.81ZM112.88,51.6h-.87v.99c.29.12.47.21.56.26.02-.1.11-.16.28-.18.17-.02.31-.07.43-.15.12-.08.4-.39.84-.94l-.03-.03-.57.36c0,.13-.06.2-.16.2-.08,0-.15-.05-.22-.15l-.26-.36ZM118.49,52.48l.03.03.68-.05c-.06-.17-.12-.29-.18-.37-.25.2-.43.34-.52.4ZM114.01,52.61l.03.03.76-.05c-.05-.18-.1-.32-.15-.4-.3.23-.51.37-.64.43ZM117.4,53.14l-.03.03c.03.95.07,1.58.13,1.9h.54v-.03c-.08-.03-.12-.19-.13-.46-.01-.28-.14-.53-.38-.75l.15-.16-.29-.53ZM114.9,54.89l-.03.18h1.07c-.02-.17-.05-.57-.09-1.19-.12.12-.27.18-.44.18-.35,0-.53-.22-.53-.67v-.22c-.67.25-1.12.5-1.33.75l1.62.52c.09.04.14.09.14.15,0,.08-.03.14-.1.17l-.31.13ZM112.04,53.37h-.03v5.88h.04c.79-1,1.23-2.27,1.32-3.81-.27,0-.53.04-.79.13l-.41-.5h1.23l-.05-1.06c-.33.29-.5.5-.52.64-.02.15-.09.22-.2.22-.13,0-.22-.07-.25-.22l-.13-.56c0-.09-.08-.33-.21-.72Z"/>
      <path class="cls-4" d="M137.77,56.16l-.39.24v1.96l.07.86c.03.27-.15.5-.55.7-.4.2-.71.3-.93.3-.19,0-.28-.12-.28-.36v-.84h-3.9v.47c0,.14-.04.25-.13.33-.09.08-.3.19-.63.3-.33.12-.59.18-.79.18-.16,0-.25-.08-.25-.25l.1-1.7v-1.57l-.04-.8c-.19.04-.34.05-.44.05-.03,0-.08-.03-.14-.09-.06-.06-.09-.15-.09-.25l.06-1.44v-1.82c-.48.22-1.14.46-1.97.71l-.13-.23c2.39-1.37,4.32-3.19,5.8-5.46l1.7.99c.08.06.12.12.12.18,0,.08-.07.14-.2.17-.13.03-.23.06-.29.07,1.26.94,3.11,1.63,5.54,2.08v.19c-.57.06-.99.54-1.26,1.44-.14-.05-.24-.1-.32-.15l-.03.03s.01.03.01.05c0,.08-.17.22-.5.4v1.29l.04.92c0,.15-.16.32-.49.5.25.21.37.35.37.42,0,.06-.02.1-.07.13ZM131.27,52.18h4.85l.54-.79c-1.3-.83-2.2-1.52-2.7-2.07-.62.6-1.3,1.14-2.02,1.64v.03h2.04l.53-.74c.05-.06.1-.09.15-.09.04,0,.09.02.15.07l.93.83s.05.1.05.15c0,.11-.04.16-.12.16h-3.1c-.42-.02-.78.04-1.07.16l-.11-.16-.67.42.53.38ZM131.17,53.09h-.03v1.58h1.62v-2.11h-1.61v.07c.52.11.91.26,1.16.44.25.18.38.41.38.71,0,.23-.07.42-.2.57-.13.15-.29.23-.48.23-.32,0-.49-.18-.52-.54-.03-.36-.13-.68-.32-.95ZM134.41,54.39h.04c.19-.34.42-.95.71-1.83h-.75v1.83ZM135.37,52.56l-.03.03.89.58v-.61h-.86ZM136.23,54.67v-1h-.13c-.4.45-.77.78-1.11.97v.03h1.24ZM131.14,55.39l.8.4h3.68l.58-.74h-5.06v.34ZM131.79,57.18h3.9l-.03-1h-3.87v1ZM135.69,57.57h-3.9v1.05h3.9v-1.05Z"/>
      <path class="cls-4" d="M155.2,47.47l1.22,1.7c.03.07.05.13.05.19,0,.09-.04.16-.13.2-.09.04-.18.05-.28.02l-.72-.17-1.84.3v1.06h2.43l.8-1.05c.06-.07.13-.11.23-.11.07,0,.13.03.2.09l1.21,1.11c.03.06.05.11.05.17,0,.11-.05.16-.14.16h-3.65c.85.9,2.29,1.46,4.33,1.68l-.05.4c-.74.04-1.27.41-1.59,1.11l1.02.76c.06.05.09.1.09.16,0,.11-.07.17-.21.17h-2.49c-.16.55-.49,1.19-.97,1.9.57.15,1.08.4,1.54.74.47.34.7.77.7,1.29,0,.3-.06.52-.19.68-.12.16-.27.25-.44.25-.13,0-.25-.05-.35-.14-.85-.76-1.73-1.29-2.64-1.59-1.38.93-3.53,1.48-6.44,1.64l-.09-.35c1.85-.45,3.39-1.08,4.62-1.88-1.08-.29-2.02-.49-2.82-.61.59-.68,1.08-1.33,1.47-1.93h-1.92c-.29,0-.63.06-1.03.18l-.66-.56h3.85c.43-.72.68-1.21.77-1.47.09-.25.15-.42.19-.5l.44.23.05-.5v-.48c-1.26,1.16-2.95,1.97-5.08,2.45l-.21-.38c1.91-1.04,3.26-2.13,4.04-3.26h-2.58c-.43,0-.78.04-1.05.12l-.54-.5h5.42v-.91c-1.48.1-2.83.14-4.06.11l-.04-.42c3.36-.54,5.87-1.23,7.54-2.06ZM152.35,55.04h3.76l.49-.67c-1.43-.61-2.46-1.62-3.08-3.01h-.03v.92l.07.89c0,.18-.05.3-.15.36-.1.06-.36.14-.78.26l.46.22c.09.05.13.13.13.22,0,.1-.06.17-.19.22l-.43.17-.26.42ZM153.65,55.42h-1.6c-.55.72-.89,1.16-1.03,1.32.38.03.92.1,1.63.21.43-.44.77-.95,1-1.53Z"/>
      <path class="cls-4" d="M167.37,51.36l.64.32.05-1.15v-1.43l-.06-1.28,1.89.83h3.33l.74-.75c.06-.07.12-.1.19-.1.04,0,.1.02.17.06l1.17.74c.05.04.08.11.08.2s-.04.17-.12.23l-.48.4v1.18l.05.6c.01.21-.05.35-.2.41l1.09.74c.08.04.11.1.11.17,0,.07-.04.15-.13.25l-.35.38v2.81l.05,1.17c.01.32-.3.53-.95.64v.03c.6.08,1.07.2,1.42.34.34.14.57.28.68.41.11.13.17.33.17.6,0,.34-.09.59-.27.76-.18.17-.33.26-.46.26-.23,0-.67-.29-1.31-.88-.65-.58-1.65-1.06-3.01-1.44l.08-.3c.47,0,1.11.03,1.92.11v-.49h-4.71v.23c0,.21-.19.4-.57.57-.38.16-.69.25-.95.25-.05,0-.12-.03-.19-.1-.07-.07-.11-.15-.11-.24,0-.02.02-.28.06-.76.04-.49.06-.84.06-1.06v-3.18l-.07-1.52ZM173.31,50.65v-1.62h-3.51v1.62h3.51ZM168.61,52.01l.61.34h4.49l.39-.47c-.15.02-.28.03-.38.03-.28,0-.42-.09-.42-.27v-.6h-3.51v.36c0,.1-.03.19-.09.25-.06.07-.42.19-1.09.36ZM173.85,52.74h-4.71v.96h4.71v-.96ZM169.14,55.2h4.71v-1.13h-4.71v1.13ZM173.85,55.59h-4.71v1.21h4.71v-1.21ZM165.87,60.02l-.11-.26c1.55-.58,2.97-1.42,4.26-2.51l1.43,1.03c.11.1.17.21.17.31,0,.1-.07.15-.2.15h-.17c-.08-.01-.19,0-.34.05-.15.04-.42.14-.83.3-.4.16-1,.33-1.78.51-.79.19-1.6.32-2.43.42Z"/>
      <path class="cls-4" d="M194.41,56.16l-.39.24v1.96l.07.86c.03.27-.15.5-.55.7-.4.2-.71.3-.93.3-.19,0-.28-.12-.28-.36v-.84h-3.9v.47c0,.14-.04.25-.13.33-.09.08-.3.19-.63.3-.33.12-.59.18-.79.18-.16,0-.25-.08-.25-.25l.1-1.7v-1.57l-.04-.8c-.19.04-.34.05-.44.05-.03,0-.08-.03-.14-.09-.06-.06-.09-.15-.09-.25l.06-1.44v-1.82c-.48.22-1.14.46-1.97.71l-.13-.23c2.39-1.37,4.32-3.19,5.8-5.46l1.7.99c.08.06.12.12.12.18,0,.08-.07.14-.2.17-.13.03-.23.06-.29.07,1.26.94,3.11,1.63,5.54,2.08v.19c-.57.06-.99.54-1.26,1.44-.14-.05-.24-.1-.32-.15l-.03.03s.01.03.01.05c0,.08-.17.22-.5.4v1.29l.04.92c0,.15-.16.32-.49.5.25.21.37.35.37.42,0,.06-.02.1-.07.13ZM187.91,52.18h4.85l.54-.79c-1.3-.83-2.2-1.52-2.7-2.07-.62.6-1.3,1.14-2.02,1.64v.03h2.04l.53-.74c.05-.06.1-.09.15-.09.04,0,.09.02.15.07l.93.83s.05.1.05.15c0,.11-.04.16-.12.16h-3.1c-.42-.02-.78.04-1.07.16l-.11-.16-.67.42.53.38ZM187.8,53.09h-.03v1.58h1.62v-2.11h-1.61v.07c.52.11.91.26,1.16.44.25.18.38.41.38.71,0,.23-.07.42-.2.57-.13.15-.29.23-.48.23-.32,0-.49-.18-.52-.54-.03-.36-.13-.68-.32-.95ZM191.04,54.39h.04c.19-.34.42-.95.71-1.83h-.75v1.83ZM192.01,52.56l-.03.03.89.58v-.61h-.86ZM192.87,54.67v-1h-.13c-.4.45-.77.78-1.11.97v.03h1.24ZM187.78,55.39l.8.4h3.68l.58-.74h-5.06v.34ZM188.43,57.18h3.9l-.03-1h-3.87v1ZM192.32,57.57h-3.9v1.05h3.9v-1.05Z"/>
    </g>
    <g>
      <path class="cls-4" d="M72.5,66.45c0-.44.03-.45.8-.45,1.24,0,.74.75,1.04.75.15,0,.12-.21.11-.29l-.03-.63c0-.06-.04-.12-.13-.12-.56,0-1.01.03-1.46.03-.98,0-1.44-.03-1.71-.03-.09,0-.14.05-.14.11,0,.26.72.05.72.63v3c0,.78-.49.44-.49.73,0,.04.04.07.12.07.35,0,.62-.03.82-.03.32,0,.71.03,1.68.03.53,0,.9-.53.9-1.03,0-.12-.04-.14-.07-.14-.24,0-.15.84-1.74.84-.46,0-.44-.23-.44-.63v-.82c0-.37-.03-.45.27-.45h.47c.67,0,.49.68.69.68.15,0,.12-.23.11-.31l-.04-1.14c0-.17-.08-.16-.12-.16-.13,0-.15.59-.7.59h-.4c-.28,0-.28-.04-.28-.32v-.9Z"/>
      <path class="cls-4" d="M75.85,67.75c0-.93.32-1.81,1.4-1.83.83-.01,1.61.73,1.61,2.15,0,.63-.12,1.98-1.46,1.98-1.14,0-1.55-1.35-1.55-2.29ZM77.71,71.08c.46.29.72.3.91.3.54,0,1.06-.53,1.06-.63,0-.04-.02-.08-.06-.08-.1,0-.22.18-.51.18-.37,0-1.13-.43-1.13-.56,0-.1,1.67-.44,1.67-2.48,0-1.36-.96-2.19-2.21-2.17-1.53.01-2.39,1.07-2.39,2.48,0,1.25.82,1.69.82,1.82,0,.08-.42.23-.42.89,0,.12,0,.24.15.24s.12-.85.68-.85c.09,0,.12.04.17.06l1.26.8Z"/>
      <path class="cls-4" d="M84.42,66.45c0-.72.45-.49.45-.67,0-.07-.04-.08-.12-.08-.32.01-.52.03-.73.03-.18,0-.35-.01-.54-.03-.08,0-.19-.03-.19.07,0,.23.79.03.79.77v1.27c0,1.08-.17,2.1-1.44,2.1-1.15,0-1.4-.81-1.4-1.8v-1.39c0-1.05.54-.71.54-.93,0-.04-.01-.09-.07-.09-.12,0-.58.03-.9.03s-.8-.03-.88-.03c-.05,0-.13.02-.13.1,0,.24.67.04.67.59v2.09c0,1.24.64,1.8,1.84,1.8,1.77,0,2.14-1.08,2.14-2.39v-1.45Z"/>
      <path class="cls-4" d="M86.88,68.31c-.12,0-.21,0-.21-.06,0-.09.04-.16.07-.24l.49-1.14c.03-.07.06-.08.07-.08.03,0,.01,0,.05.05l.53,1.16c.03.08.07.15.07.24,0,.06-.09.06-.21.06h-.87ZM87.95,68.66c.17,0,.2.06.41.56.07.17.12.29.12.43,0,.39-.46.32-.46.51,0,.09.08.08.2.08.19,0,.42-.03.71-.03.42,0,.6.03.83.03.17,0,.23.01.23-.1,0-.21-.35.04-.55-.42l-1.73-3.92c-.08-.19-.1-.21-.15-.21-.08,0-.12.12-.16.22l-1.74,3.88c-.16.36-.49.32-.49.47,0,.08.1.07.19.07.19,0,.37-.03.56-.03.21,0,.4.03.6.03.13,0,.33.04.33-.09,0-.17-.69-.07-.69-.53,0-.15.09-.38.13-.51.15-.42.28-.45.39-.45h1.26Z"/>
      <path class="cls-4" d="M91.59,66.27c0-.49.46-.25.46-.49,0-.08-.03-.08-.17-.08-.1,0-.18.03-.72.03-.24,0-.62-.03-.87-.03-.13,0-.21.05-.21.11,0,.22.72.05.72.6v3.03c0,.78-.49.44-.49.73,0,.04.04.07.12.07.35,0,.62-.03.82-.03.32,0,.71.03,1.68.03.53,0,.9-.53.9-1.03,0-.12-.04-.14-.07-.14-.24,0-.15.84-1.74.84-.46,0-.44-.23-.44-.63v-3.01Z"/>
      <path class="cls-4" d="M95.93,68.11c0,1.3.87,2.17,2.15,2.17,2.05,0,2.44-1.57,2.44-2.47,0-1.36-.96-2.19-2.21-2.17-1.53.01-2.39,1.07-2.39,2.48ZM96.72,67.75c0-.93.32-1.81,1.4-1.83.83-.01,1.61.73,1.61,2.15,0,1.06-.36,1.92-1.46,1.94-1.15.02-1.55-1.32-1.55-2.26Z"/>
      <path class="cls-4" d="M102.26,66.38c0-.29.1-.42.39-.42.99,0,1.05.94,1.05,1.1,0,.17-.06.89-.84.89-.14,0-.25-.04-.3-.04-.08,0-.09.08-.09.12,0,.03.03.19.66.19.76,0,1.36-.49,1.36-1.29,0-.94-.8-1.26-1.62-1.24-.46,0-.91.03-1,.03-.49,0-.84-.03-.88-.03-.15,0-.18.08-.18.12,0,.24.67-.03.67.65v2.82c0,.8-.51.66-.51.85,0,.11.12.1.13.1.04,0,.53-.03.79-.03.14,0,.42.03.87.03.09,0,.15.01.15-.1,0-.22-.65.02-.65-.78v-2.98Z"/>
      <path class="cls-4" d="M106.18,66.38c0-.29.1-.42.39-.42.99,0,1.05.94,1.05,1.1,0,.17-.06.89-.84.89-.14,0-.25-.04-.3-.04-.08,0-.09.08-.09.12,0,.03.03.19.66.19.76,0,1.36-.49,1.36-1.29,0-.94-.8-1.26-1.62-1.24-.46,0-.91.03-1,.03-.49,0-.84-.03-.88-.03-.15,0-.18.08-.18.12,0,.24.67-.03.67.65v2.82c0,.8-.51.66-.51.85,0,.11.12.1.13.1.04,0,.53-.03.79-.03.14,0,.42.03.87.03.09,0,.15.01.15-.1,0-.22-.65.02-.65-.78v-2.98Z"/>
      <path class="cls-4" d="M108.76,68.11c0,1.3.87,2.17,2.15,2.17,2.05,0,2.44-1.57,2.44-2.47,0-1.36-.96-2.19-2.21-2.17-1.53.01-2.39,1.07-2.39,2.48ZM109.55,67.75c0-.93.32-1.81,1.4-1.83.83-.01,1.61.73,1.61,2.15,0,1.06-.36,1.92-1.46,1.94-1.15.02-1.55-1.32-1.55-2.26Z"/>
      <path class="cls-4" d="M115.11,66.36c0-.38.2-.38.44-.38.65,0,1.01.47,1.01,1.1,0,.38-.04.74-1.01.74-.19,0-.43,0-.43-.16v-1.3ZM114.33,69.33c0,.81-.52.6-.52.8,0,.13.13.11.21.11.32,0,.64-.03.99-.03.27,0,.44.03.55.03.15,0,.2-.04.2-.1,0-.23-.63.03-.63-.65v-1.11c0-.22-.04-.27.3-.27.32,0,.44.06.58.34l.54,1.01c.2.37.4.78.91.78.26,0,.68-.14.68-.34,0-.05-.04-.09-.1-.09-.06,0-.13.04-.19.04-.05,0-.17,0-.23-.1-.46-.81-1.01-1.74-1.01-1.78,0-.06.19-.12.37-.27.19-.15.37-.39.37-.8,0-.29-.13-1.2-1.53-1.2-.43,0-.87.03-1.3.03-.4,0-.46-.03-.75-.03-.08,0-.14.03-.14.1,0,.23.7,0,.7.71v2.82Z"/>
      <path class="cls-4" d="M119.67,69.4c0,.76-.72.46-.72.71,0,.14.11.13.22.13.26,0,.47-.03.9-.03s.64.03.9.03c.19,0,.31.02.31-.13,0-.18-.82,0-.82-.78v-2.9c0-.31.06-.34.33-.34h.55c.74-.03.53.69.79.69.17,0,.1-.25.08-.33l-.07-.59c0-.06,0-.15-.1-.15-.6,0-1.03.03-1.96.03s-1.37-.03-1.96-.03c-.1,0-.1.09-.1.15l-.1.85c-.01.08-.05.22.08.22.29,0,.1-.84.82-.84h.54c.26,0,.33.03.33.34v2.98Z"/>
      <path class="cls-4" d="M127.06,66.45c0-.72.45-.49.45-.67,0-.07-.04-.08-.12-.08-.32.01-.52.03-.73.03-.18,0-.35-.01-.54-.03-.08,0-.19-.03-.19.07,0,.23.79.03.79.77v1.27c0,1.08-.17,2.1-1.44,2.1-1.15,0-1.4-.81-1.4-1.8v-1.39c0-1.05.54-.71.54-.93,0-.04-.01-.09-.07-.09-.12,0-.58.03-.9.03s-.8-.03-.88-.03c-.05,0-.13.02-.13.1,0,.24.67.04.67.59v2.09c0,1.24.64,1.8,1.84,1.8,1.77,0,2.14-1.08,2.14-2.39v-1.45Z"/>
      <path class="cls-4" d="M128.47,69.37c0,.65-.62.54-.62.8,0,.11.13.08.2.08.17,0,.35-.03.55-.03.22,0,.44.03.76.03.08,0,.24,0,.24-.08,0-.3-.82.13-.82-1.1v-2.18c0-.06.01-.1.05-.1.03,0,.07.03.12.08l3.08,3.33c.04.05.08.09.17.09.08,0,.08-.05.08-.19v-3.6c0-.67.55-.52.55-.71,0-.02,0-.08-.12-.08-.06,0-.28.03-.69.03-.44,0-.63-.03-.73-.03-.08,0-.1.06-.1.11,0,.21.78.1.78.68v2.14c0,.16-.01.24-.05.24s-.12-.08-.2-.17l-2.58-2.83c-.12-.12-.04-.17-.24-.17-.34,0-.51.03-.67.03-.12,0-.24-.03-.36-.03-.08,0-.11.05-.11.11,0,.31.72-.11.72,1.12v2.44Z"/>
      <path class="cls-4" d="M134.7,66.38c0-.61.48-.38.48-.6,0-.08-.03-.09-.22-.09-.37,0-.6.03-.83.03s-.47-.03-.72-.03c-.06,0-.22-.02-.22.09,0,.22.72.04.72.63v3.08c0,.61-.46.44-.46.67,0,.03.01.08.07.08.17,0,.44-.03.72-.03.5,0,.74.03.97.03.15,0,.21-.03.21-.1,0-.21-.72.09-.72-.7v-3.06Z"/>
      <path class="cls-4" d="M137.47,69.4c0,.76-.72.46-.72.71,0,.14.11.13.22.13.26,0,.47-.03.9-.03s.64.03.9.03c.19,0,.31.02.31-.13,0-.18-.82,0-.82-.78v-2.9c0-.31.06-.34.33-.34h.55c.74-.03.53.69.79.69.17,0,.1-.25.08-.33l-.07-.59c0-.06,0-.15-.1-.15-.6,0-1.03.03-1.96.03s-1.37-.03-1.96-.03c-.1,0-.1.09-.1.15l-.1.85c-.01.08-.05.22.08.22.29,0,.1-.84.82-.84h.54c.26,0,.33.03.33.34v2.98Z"/>
      <path class="cls-4" d="M141.82,66.38c0-.61.48-.38.48-.6,0-.08-.03-.09-.22-.09-.37,0-.6.03-.83.03s-.47-.03-.72-.03c-.06,0-.22-.02-.22.09,0,.22.72.04.72.63v3.08c0,.61-.46.44-.46.67,0,.03.01.08.07.08.17,0,.44-.03.72-.03.5,0,.74.03.97.03.15,0,.21-.03.21-.1,0-.21-.72.09-.72-.7v-3.06Z"/>
      <path class="cls-4" d="M144.19,66.45c0-.44.03-.45.8-.45,1.24,0,.74.75,1.04.75.15,0,.12-.21.11-.29l-.03-.63c0-.06-.04-.12-.13-.12-.56,0-1.01.03-1.46.03-.98,0-1.44-.03-1.71-.03-.09,0-.14.05-.14.11,0,.26.72.05.72.63v3c0,.78-.49.44-.49.73,0,.04.04.07.12.07.35,0,.62-.03.82-.03.32,0,.71.03,1.68.03.53,0,.9-.53.9-1.03,0-.12-.04-.14-.07-.14-.24,0-.15.84-1.74.84-.46,0-.44-.23-.44-.63v-.82c0-.37-.03-.45.27-.45h.47c.67,0,.49.68.69.68.15,0,.12-.23.11-.31l-.04-1.14c0-.17-.08-.16-.12-.16-.13,0-.15.59-.7.59h-.4c-.28,0-.28-.04-.28-.32v-.9Z"/>
      <path class="cls-4" d="M147.13,69.8c.03.15.03.21.19.24.37.08.7.24,1.09.24.84,0,1.43-.57,1.43-1.41s-.42-1.09-1.11-1.39c-.86-.38-1.21-.46-1.21-.89s.29-.67.71-.67c1.1,0,1.2,1.19,1.35,1.19s.16-.08.15-.22l-.07-.86c-.01-.15,0-.24-.09-.24-.08,0-.24.1-.33.1-.19,0-.46-.25-.99-.25-.75,0-1.26.54-1.26,1.28,0,.67.38.92.93,1.17,1.03.46,1.44.54,1.44,1.08,0,.51-.38.82-.88.82-.71,0-1.11-.58-1.31-1.2-.03-.08-.04-.14-.14-.14-.16,0-.1.19-.08.28l.2.88Z"/>
      <path class="cls-4" d="M156.14,65.86s-.04-.04-.08-.04c-.09,0-.1.21-.22.21-.19,0-.69-.39-1.46-.39-1.62,0-2.28,1.42-2.28,2.49,0,.51.29,2.15,2.17,2.15,1.37,0,2.05-.97,2.05-1.22,0-.04-.06-.07-.09-.07-.17,0-.6.84-1.6.84-1.22,0-1.74-1.27-1.74-2.17s.52-1.76,1.46-1.76c.74,0,1.31.56,1.63,1.17.04.08.09.22.19.22.11,0,.08-.15.08-.21l-.12-1.22Z"/>
      <path class="cls-4" d="M156.74,68.11c0,1.3.87,2.17,2.15,2.17,2.05,0,2.44-1.57,2.44-2.47,0-1.36-.96-2.19-2.21-2.17-1.53.01-2.39,1.07-2.39,2.48ZM157.53,67.75c0-.93.32-1.81,1.4-1.83.83-.01,1.61.73,1.61,2.15,0,1.06-.36,1.92-1.46,1.94-1.15.02-1.55-1.32-1.55-2.26Z"/>
      <path class="cls-4" d="M162.58,67.35s0-.16.04-.16c.03,0,.05.07.07.11l1.24,2.76c.03.07.06.18.16.18.1,0,.13-.1.17-.18l1.21-2.53c.1-.21.17-.34.2-.34.04,0,.04.1.05.29l.1,1.94c.04.71-.46.5-.46.72,0,.12.16.1.29.1.15,0,.3-.03.72-.03.19,0,.37.03.55.03.22,0,.31,0,.31-.11,0-.24-.59.04-.62-.8l-.11-2.84c-.03-.74.6-.49.6-.72,0-.05-.01-.08-.19-.08s-.3.03-.42.03c-.1,0-.22-.03-.37-.03-.12,0-.14.08-.16.13l-1.49,3.1s-.06.13-.1.13-.06-.04-.08-.1l-1.41-3.08c-.09-.19-.15-.19-.22-.19-.21,0-.45.03-.6.03-.21,0-.3-.03-.38-.03-.04,0-.08.05-.08.09,0,.28.69-.02.65,1.04l-.09,2.58c-.03.67-.55.51-.55.74,0,.04.03.09.12.09s.32-.03.63-.03c.29,0,.43.03.66.03.18,0,.15-.08.15-.1,0-.26-.71.11-.67-.99l.06-1.8Z"/>
      <path class="cls-4" d="M168.28,67.35s0-.16.04-.16c.03,0,.05.07.07.11l1.24,2.76c.03.07.06.18.16.18.1,0,.13-.1.17-.18l1.21-2.53c.1-.21.17-.34.2-.34.04,0,.04.1.05.29l.1,1.94c.04.71-.46.5-.46.72,0,.12.16.1.29.1.15,0,.3-.03.72-.03.19,0,.37.03.55.03.22,0,.31,0,.31-.11,0-.24-.59.04-.62-.8l-.11-2.84c-.03-.74.6-.49.6-.72,0-.05-.01-.08-.19-.08s-.3.03-.42.03c-.1,0-.22-.03-.37-.03-.12,0-.14.08-.16.13l-1.49,3.1s-.06.13-.1.13-.06-.04-.08-.1l-1.41-3.08c-.09-.19-.15-.19-.22-.19-.21,0-.45.03-.6.03-.21,0-.3-.03-.38-.03-.04,0-.08.05-.08.09,0,.28.69-.02.65,1.04l-.09,2.58c-.03.67-.55.51-.55.74,0,.04.03.09.12.09s.32-.03.63-.03c.29,0,.43.03.66.03.18,0,.15-.08.15-.1,0-.26-.71.11-.67-.99l.06-1.8Z"/>
      <path class="cls-4" d="M174.61,66.38c0-.61.48-.38.48-.6,0-.08-.03-.09-.22-.09-.37,0-.6.03-.83.03s-.47-.03-.72-.03c-.06,0-.22-.02-.22.09,0,.22.72.04.72.63v3.08c0,.61-.46.44-.46.67,0,.03.01.08.07.08.17,0,.44-.03.72-.03.5,0,.74.03.97.03.15,0,.21-.03.21-.1,0-.21-.72.09-.72-.7v-3.06Z"/>
      <path class="cls-4" d="M176.01,69.8c.03.15.03.21.19.24.37.08.7.24,1.09.24.84,0,1.43-.57,1.43-1.41s-.42-1.09-1.11-1.39c-.86-.38-1.21-.46-1.21-.89s.29-.67.71-.67c1.1,0,1.2,1.19,1.35,1.19s.16-.08.15-.22l-.07-.86c-.01-.15,0-.24-.09-.24-.08,0-.24.1-.33.1-.19,0-.46-.25-.99-.25-.75,0-1.26.54-1.26,1.28,0,.67.38.92.93,1.17,1.03.46,1.44.54,1.44,1.08,0,.51-.38.82-.88.82-.71,0-1.11-.58-1.31-1.2-.03-.08-.04-.14-.14-.14-.16,0-.1.19-.08.28l.2.88Z"/>
      <path class="cls-4" d="M179.57,69.8c.03.15.03.21.19.24.37.08.7.24,1.09.24.84,0,1.43-.57,1.43-1.41s-.42-1.09-1.11-1.39c-.86-.38-1.21-.46-1.21-.89s.29-.67.71-.67c1.1,0,1.2,1.19,1.35,1.19s.16-.08.15-.22l-.07-.86c-.01-.15,0-.24-.09-.24-.08,0-.24.1-.33.1-.19,0-.46-.25-.99-.25-.75,0-1.26.54-1.26,1.28,0,.67.38.92.93,1.17,1.03.46,1.44.54,1.44,1.08,0,.51-.38.82-.88.82-.71,0-1.11-.58-1.31-1.2-.03-.08-.04-.14-.14-.14-.16,0-.1.19-.08.28l.2.88Z"/>
      <path class="cls-4" d="M184.24,66.38c0-.61.48-.38.48-.6,0-.08-.03-.09-.22-.09-.37,0-.6.03-.83.03s-.47-.03-.72-.03c-.06,0-.22-.02-.22.09,0,.22.72.04.72.63v3.08c0,.61-.46.44-.46.67,0,.03.01.08.07.08.17,0,.44-.03.72-.03.5,0,.74.03.97.03.15,0,.21-.03.21-.1,0-.21-.72.09-.72-.7v-3.06Z"/>
      <path class="cls-4" d="M185.25,68.11c0,1.3.87,2.17,2.15,2.17,2.05,0,2.44-1.57,2.44-2.47,0-1.36-.96-2.19-2.21-2.17-1.53.01-2.39,1.07-2.39,2.48ZM186.04,67.75c0-.93.32-1.81,1.4-1.83.83-.01,1.61.73,1.61,2.15,0,1.06-.36,1.92-1.46,1.94-1.15.02-1.55-1.32-1.55-2.26Z"/>
      <path class="cls-4" d="M190.84,69.37c0,.65-.62.54-.62.8,0,.11.13.08.2.08.17,0,.35-.03.55-.03.22,0,.44.03.76.03.08,0,.24,0,.24-.08,0-.3-.82.13-.82-1.1v-2.18c0-.06.01-.1.05-.1.03,0,.07.03.12.08l3.08,3.33c.04.05.08.09.17.09.08,0,.08-.05.08-.19v-3.6c0-.67.55-.52.55-.71,0-.02,0-.08-.12-.08-.06,0-.28.03-.69.03-.44,0-.63-.03-.73-.03-.08,0-.1.06-.1.11,0,.21.78.1.78.68v2.14c0,.16-.01.24-.05.24s-.12-.08-.2-.17l-2.58-2.83c-.12-.12-.04-.17-.24-.17-.34,0-.51.03-.67.03-.12,0-.24-.03-.36-.03-.08,0-.11.05-.11.11,0,.31.72-.11.72,1.12v2.44Z"/>
    </g>
  </g>
  <g id="Layer_1-2" data-name="Layer 1">
    <g>
      <path class="cls-5" d="M437.92,31.24c-14.54,0-26.32,11.79-26.32,26.34s11.79,26.32,26.32,26.32,26.34-11.79,26.34-26.32-11.8-26.34-26.34-26.34h0Z"/>
      <path class="cls-3" d="M437.92,83.58c-14.36,0-26.01-11.64-26.01-26.01s11.64-26.02,26.01-26.02,26.01,11.64,26.01,26.01c.01,14.38-11.64,26.02-26.01,26.02h0Z"/>
      <path class="cls-5" d="M437.92,78.48c11.55,0,20.92-9.36,20.92-20.92s-9.36-20.9-20.92-20.9-20.92,9.36-20.92,20.92,9.37,20.9,20.92,20.9h0Z"/>
      <path class="cls-3" d="M437.92,57.57c-9.26-3.92-5.16-15.96,3.7-15.37-1.8.92-2.05,2.63-1.02,4.23,1.14,1.78-.11,4.65-1.65,5.34-2.55,1.14-3.06,4.19-1.02,5.79h0Z"/>
      <path class="cls-3" d="M437.92,57.57c-6.58,7.6-16.78-.03-13.47-8.27.33,1.99,1.87,2.76,3.7,2.29,2.05-.53,4.39,1.53,4.57,3.22.32,2.77,3.06,4.2,5.2,2.76h0Z"/>
      <path class="cls-3" d="M437.92,57.57c5.19,8.61-5.21,15.94-12.02,10.25,1.99.3,3.21-.92,3.32-2.82.12-2.11,2.82-3.7,4.48-3.35,2.73.57,4.94-1.6,4.22-4.08h0Z"/>
      <path class="cls-3" d="M437.92,57.57c9.78-2.27,13.56,9.89,6.04,14.6.9-1.8.11-3.34-1.65-4.03-1.97-.77-2.64-3.82-1.81-5.3,1.39-2.43.01-5.19-2.58-5.28h0Z"/>
      <path class="cls-3" d="M437.92,57.57c.86-10.01,13.59-9.84,15.76-1.23-1.43-1.41-3.14-1.13-4.34.33-1.34,1.64-4.45,1.34-5.59.08-1.87-2.07-4.94-1.61-5.82.83h0Z"/>
      <polygon class="cls-5" points="437.42 48.87 436.9 49.68 436.71 48.72 435.78 48.48 436.63 48.01 436.56 47.05 437.28 47.7 438.17 47.34 437.77 48.22 438.39 48.97 437.42 48.87"/>
      <polygon class="cls-5" points="429.49 55.35 430.11 56.1 429.14 55.98 428.63 56.8 428.43 55.85 427.5 55.61 428.35 55.13 428.28 54.17 429 54.83 429.89 54.47 429.49 55.35"/>
      <polygon class="cls-5" points="433.21 64.91 434.11 64.55 433.71 65.43 434.32 66.18 433.36 66.06 432.84 66.88 432.66 65.93 431.72 65.69 432.56 65.21 432.5 64.24 433.21 64.91"/>
      <polygon class="cls-5" points="443.45 64.32 443.38 63.35 444.1 64 445.01 63.65 444.59 64.54 445.21 65.28 444.24 65.17 443.73 65.98 443.54 65.04 442.6 64.79 443.45 64.32"/>
      <polygon class="cls-5" points="446.05 54.4 445.12 54.15 445.95 53.69 445.9 52.72 446.61 53.37 447.51 53.02 447.11 53.9 447.73 54.64 446.76 54.54 446.24 55.35 446.05 54.4"/>
      <path class="cls-5" d="M437.98,57.46c-1.12-.58-2.02-1.77-2.42-3.2-.45-1.64-.2-3.41.71-4.84l-.2-.12c-.94,1.49-1.21,3.32-.74,5.03.41,1.51,1.34,2.73,2.54,3.35l.11-.22h0Z"/>
      <path class="cls-5" d="M437.85,57.48c-.89.89-2.31,1.37-3.8,1.31-1.7-.08-3.3-.87-4.39-2.18l-.17.14c1.12,1.35,2.79,2.18,4.55,2.25,1.57.08,3.01-.42,3.96-1.37l-.15-.15h0Z"/>
      <path class="cls-5" d="M437.82,57.62c.57,1.12.6,2.62.08,4.02-.6,1.59-1.85,2.87-3.42,3.49l.09.22c1.63-.65,2.93-1.98,3.55-3.63.55-1.47.52-3-.08-4.2l-.22.11h0Z"/>
      <path class="cls-5" d="M437.94,57.68c1.24-.2,2.68.24,3.84,1.18,1.33,1.07,2.15,2.64,2.27,4.33h.23c-.12-1.76-.98-3.41-2.35-4.51-1.23-.98-2.69-1.43-4.02-1.22l.02.22h0Z"/>
      <path class="cls-5" d="M445.21,53.25c-1.71-.44-3.53-.12-5.01.85-1.32.86-2.19,2.12-2.4,3.44l.23.03c.2-1.24,1.06-2.47,2.3-3.29,1.43-.94,3.18-1.23,4.82-.82l.07-.22h0Z"/>
      <polygon class="cls-5" points="419.29 71.15 419.82 71.96 418.88 71.75 418.27 72.5 418.18 71.54 417.28 71.2 418.17 70.82 418.21 69.85 418.85 70.58 419.78 70.31 419.29 71.15"/>
      <polygon class="cls-5" points="456.65 71.15 456.11 71.96 457.05 71.75 457.65 72.51 457.75 71.56 458.66 71.22 457.77 70.83 457.74 69.86 457.1 70.59 456.16 70.31 456.65 71.15"/>
      <path class="cls-5" d="M422.39,77.19c.34.22.41.14.62-.15l1.19-1.7c.21-.29.17-.37-.1-.6l.05-.08,1.09.76-.05.08c-.32-.18-.39-.16-.59.11l-.53.76,1.19.83.53-.76c.21-.29.17-.37-.1-.6l.05-.08,1.09.76-.05.08c-.32-.18-.39-.16-.59.11l-1.22,1.74c-.18.26-.2.36.1.6l-.05.08-1.09-.76.05-.08c.34.22.41.14.62-.15l.53-.76-1.19-.83-.57.81c-.18.26-.2.36.1.6l-.05.08-1.09-.76.05-.08h0Z"/>
      <path class="cls-5" d="M426.6,78.23c.47-1,1.4-1.18,2.11-.84.71.33,1.19,1.16.72,2.17-.42.92-1.33,1.2-2.11.84-.78-.37-1.15-1.24-.72-2.17h0ZM428.94,79.31c.46-.99.14-1.57-.3-1.77s-1.09-.08-1.55.91c-.45.96-.18,1.55.3,1.77.48.22,1.11.04,1.55-.91h0Z"/>
      <path class="cls-5" d="M433.73,79.21c-.3-.04-.46-.07-.6.48l-.64,2.44-.08-.02-1.37-3.07h-.01l-.48,1.81c-.12.48-.05.61.28.71l-.02.09-1.09-.28.02-.09c.36.07.47.02.61-.48l.53-2.05c-.13-.28-.2-.33-.38-.37l.02-.09.79.21,1.19,2.69h.01l.4-1.55c.14-.53.02-.6-.29-.71l.02-.09,1.09.28v.09h-.01Z"/>
      <path class="cls-5" d="M437.31,80.99c-.21,0-.34,0-.36.34l-.08.96c0,.07-.66.29-1.19.25-.47-.03-.99-.22-1.31-.62-.23-.29-.35-.59-.3-1.22.07-.81.75-1.55,1.76-1.47.48.03.69.22.84.23.04,0,.2-.01.24-.14h.11s-.04,1.02-.04,1.02h-.11c-.1-.37-.32-.86-.98-.91-.46-.03-1.18.21-1.27,1.41-.07.86.38,1.45,1.12,1.5.33.02.66-.05.67-.23l.07-.77c.03-.39-.07-.41-.39-.46v-.09s1.23.1,1.23.1v.1h-.01Z"/>
      <path class="cls-5" d="M441.22,79.16l1.24-.15v.09c-.27.05-.37.09-.66.46l-.79,1,1.25,1.04c.35.3.54.47.81.42v.09s-1.44.18-1.44.18v-.09c.24-.04.32-.05.3-.16-.02-.15-.53-.58-.72-.72l-.57-.44-.11.12.11.89c.04.34.11.4.48.37v.09s-1.33.16-1.33.16v-.09c.36-.07.4-.14.36-.53l-.26-2.06c-.04-.37-.15-.39-.48-.37v-.09s1.34-.17,1.34-.17v.09c-.36.07-.41.13-.37.48l.12.97c.95-1.1,1.08-1.24,1.06-1.4-.01-.13-.11-.13-.34-.11v-.08h0Z"/>
      <path class="cls-5" d="M443.24,80.47c-.32-1.06.28-1.81,1.03-2.03.75-.22,1.65.09,1.97,1.14.29.98-.21,1.77-1.03,2.02-.84.25-1.69-.15-1.97-1.13h0ZM445.71,79.73c-.3-1.04-.92-1.26-1.39-1.13-.47.14-.87.66-.55,1.71.29,1.01.89,1.27,1.39,1.13.51-.15.86-.7.55-1.71h0Z"/>
      <path class="cls-5" d="M449.23,76.48c-.25.16-.38.25-.13.75l1.13,2.25-.08.03-3.06-1.39h-.01l.84,1.66c.22.44.36.49.67.35l.04.08-1,.5-.04-.08c.32-.18.37-.29.14-.75l-.95-1.88c-.28-.13-.36-.11-.53-.02l-.04-.08.73-.37,2.67,1.23h.01l-.72-1.43c-.25-.49-.38-.47-.69-.34l-.04-.08,1-.5.05.05h0Z"/>
      <path class="cls-5" d="M453.1,75.46c-.15.14-.25.23-.04.5l.58.77c.04.05-.3.65-.72.97-.38.28-.89.49-1.38.39-.37-.07-.65-.21-1.03-.71-.48-.64-.47-1.65.35-2.26.39-.29.65-.29.78-.39.03-.02.14-.14.09-.26l.09-.07.63.78-.09.07c-.3-.2-.79-.42-1.33-.02-.36.27-.75.94-.02,1.9.52.7,1.24.83,1.84.38.26-.2.46-.48.36-.62l-.47-.62c-.24-.32-.32-.26-.59-.09l-.05-.07.98-.73.03.07h0Z"/>
      <path class="cls-5" d="M417.25,64.01c-.01-.05-.05-.12-.12-.22-.08-.11-.12-.14-.14-.15-.03-.01-.07-.01-.11.01l-.5.16-.71.21h-.02v-.02l-.21-.7v-.02h.02l.21-.07s.09-.03.05-.13c-.01-.05-.07-.13-.14-.23-.08-.09-.15-.12-.21-.1l-.48.16-.44.13c-.09.02-.17,0-.25-.07-.01-.01-.02-.02-.04-.01-.02.01-.03.02-.04.04l-.17.41s-.01.03-.01.05c0,.01.01.02.03.03l.34.17h.01s.2.66.2.66v.02h-.02l-.49.14c-.09.02-.16,0-.23-.09-.01-.01-.02-.01-.03-.01-.02,0-.02.01-.02.03v.71c.09-.04.21-.1.36-.14l.57-.16h.02v.02l.17.6h0l-.09.64c.15-.07.3-.13.48-.17l.75-.22.53-.14s.03-.01.04-.02c.01-.01.01-.02,0-.04-.01-.04-.05-.11-.12-.21-.09-.12-.13-.15-.14-.16-.02-.01-.07-.01-.12,0l-.14.04h-.02v-.02l-.18-.64v-.02h.02l.75-.22.64-.16s.04-.02.04-.03c-.03-.03-.03-.05-.04-.09h0ZM414.6,64.34h-.02v-.02l-.21-.7v-.02h.02l.96-.28h.02v.02l.21.7v.02h-.02l-.96.28h0ZM415.91,65.19v.02h-.02l-.96.28h-.02v-.02l-.18-.64v-.02h.02l.96-.28h.02v.02l.18.64h0Z"/>
      <path class="cls-3" d="M413.28,59.36h0s-.01.01-.01.02v-.02h.01Z"/>
      <path class="cls-5" d="M415.05,59.21h0s-.01.01-.01.02v-.02h.01Z"/>
      <path class="cls-3" d="M415.53,59.36h0s-.01.01,0,.02v-.02h0Z"/>
      <path class="cls-3" d="M414.45,59.5h0s-.01.01-.01.02v-.02h.01Z"/>
      <path class="cls-5" d="M413.86,59.21h0s-.01.01,0,.02v-.02h0Z"/>
      <path class="cls-5" d="M413.6,57.46s.05-.02.05-.05c0-.07-.01-.13-.03-.22-.02-.09-.04-.14-.07-.16s-.04-.04-.09-.04h-.24v-1.04s0-.02-.01-.03c0,0,0-.01-.02,0-.01,0-.02.01-.04.02-.01.01-.29.37-.29.37-.01.01-.01.02-.01.04,0,.01.01.03.03.04l.26.23h.01v.38h-.29s-.08-.12-.08-.12c-.01-.01-.02-.02-.03-.02-.02,0-.03.01-.04.02l-.18.62c.09,0,.35-.02.36-.02h.27v.54h-.27c-.05-.11-.07-.12-.07-.12-.01,0-.02-.01-.03-.01-.02,0-.04.01-.05.02l-.16.6c.08-.01.3-.02.3-.02h.29v1l.12-.1c-.03-.11-.04-.2-.04-.27v-.62h.38s.02.01.02,0c.01-.01.02-.03.02-.08,0-.05-.01-.12-.04-.22-.03-.13-.05-.15-.07-.16s-.03-.02-.07-.02h-.25v-.54h.36Z"/>
      <path class="cls-5" d="M416.3,57.66c-.02-.08-.07-.17-.12-.17h-.33s-.36.01-.36.01h-.02v-1.61s-.01-.02-.02-.02-.02.01-.03.02l-.32.36s-.02.03-.02.04.01.03.03.04l.27.24h.01v.94h-.41v-1.43s0-.02-.01-.03c0,0-.01-.01-.02-.01s-.02.01-.03.02l-.29.34s-.03.04-.03.05.01.03.02.04l.24.18h.01v.02h0v.03h-.47v-.84s-.01-.03-.02-.03-.02.01-.04.01c-.01.01-.3.36-.3.36-.01.01-.02.03-.02.04,0,.02.01.03.03.04l.26.21h.01v.2h-.51v-.65s-.01-.03-.02-.03-.02,0-.03.01l-.32.35s-.02.03-.02.05,0,.03.02.03l.28.23h.01v2.63l.12-.12c-.03-.09-.04-.17-.04-.26v-.18h.51v.82l.12-.09c-.03-.13-.04-.25-.04-.35v-.38h.53v.55l.12-.11c-.03-.14-.04-.26-.04-.37v-.86h.41v1.48l.12-.12c-.03-.13-.04-.24-.04-.33v-1.02h0s.02-.01.02-.01h.75c.07.01.09,0,.1,0,.01-.01.02-.02.02-.05-.02-.08-.04-.16-.08-.28h0ZM413.82,57.48v-.28h.51v.3h-.51v-.02h0ZM414.3,58.31h-.49v-.33h.51v.33h-.02ZM414.39,57.48v-.28h.52v.3h-.52v-.02h0ZM414.9,58.31h-.5v-.3h0s.02-.01.02-.01h.5v.33h-.02Z"/>
      <path class="cls-5" d="M415.06,50.97h0s.02-.01.02-.01c.46.09.89.1,1.29.03.39-.07.78-.24,1.16-.54-.2-.22-.27-.42-.22-.61.01-.03.02-.05.03-.09l-.05-.07c-.2.22-.35.37-.47.47-.11.1-.28.21-.51.32-.23.11-.45.18-.67.22-.23.04-.47.05-.73.04-.26-.01-.49-.05-.67-.1-.1-.03-.15-.09-.17-.18-.02-.11-.05-.13-.07-.13-.02-.01-.04,0-.07.01l-.42.64c.07.02.14.03.2.05.29.09.65.23,1.09.42.44.2.81.48,1.12.83.3.35.52.74.63,1.19h.08c-.03-.64-.17-1.15-.4-1.52-.24-.38-.62-.69-1.15-.9h-.01s0-.07,0-.07h0Z"/>
      <path class="cls-5" d="M420.64,44.46s-.03-.07-.07-.09c-.02-.01-.07-.03-.12-.03-.22-.02-.45-.11-.69-.27-.09-.05-.16-.11-.24-.18l-.07.05c.16.16.29.36.4.59h0s-.01.02-.01.02l-.02.03c-.04.08-.16.14-.36.21-.2.07-.38.09-.55.08s-.34-.05-.49-.12h-.02s.03-.02.03-.02l.72-1.12s.01-.04,0-.05c-.01,0-.02-.01-.05-.01-.03.01-.49.12-.49.12-.02,0-.03.01-.04.03-.01.02-.01.03,0,.04h0l.13.41h0v.02l-.36.57h-.01s-.01.01-.01.01c-.21-.05-.4-.14-.58-.23h-.02s.01-.03.01-.03l.27-.41h.01s.01,0,.01,0l.15.1s.07.03.11-.03c.03-.04.05-.13.09-.25.03-.11.02-.18-.04-.23l-.35-.2-.2-.13c-.05-.03-.1-.11-.11-.21h0s0-.03-.02-.03c-.02-.01-.03-.01-.05-.01l-.35.13s-.04.02-.05.04c-.01.02-.01.03-.01.05l.07.37h0v.02l-.77,1.21h0l-.52.36c.13.07.29.15.5.29l1.9,1.23c.05.03.07.1.03.18-.01.04-.02.07-.01.09.01.01.02.03.04.03.03,0,.54.08.54.08.02,0,.04-.01.05-.03s.02-.05.01-.08c-.05-.1-.09-.35-.13-.75l-.05-.69h-.08c-.04.21-.11.44-.2.67v.02s-.03-.01-.03-.01l-.79-.51h-.01s.01-.02.01-.02l.38-.6h.01s.01,0,.01,0c.14.05.3.1.49.13s.38.04.58.03c.2-.01.38-.04.55-.12.17-.07.35-.17.5-.32.15-.14.25-.23.27-.26l.04-.05c.04-.05.05-.1.04-.13h0ZM417.08,45.35h-.01s-.52-.35-.52-.35h-.01s.01-.02.01-.02l.85-1.33h.01s.01,0,.01,0l.52.34h.01s-.01.02-.01.02l-.85,1.33h-.01ZM418.06,45.17l-.36.57h-.01s-.01,0-.01,0l-.51-.33h-.01s.01-.02.01-.02l.32-.49h.01s.01,0,.01,0c.16.1.35.17.55.25h.02s-.02.02-.02.02h0Z"/>
      <path class="cls-5" d="M424.19,39.12s.01-.01.01-.02c0,0,0-.01-.01-.02s-.02-.02-.04-.02-.51-.04-.51-.04c-.01,0-.02,0-.04.02-.02.02-.03.04-.03.05l.03.42h0s-.01.02-.01.02l-.26.22h-.01s-.01,0-.01,0l-.66-.76h-.01s.01-.02.01-.02l.72-.63s.02-.02.02-.03h0s-.02-.03-.07-.03l-.49-.02s-.03.01-.04.02-.02.02-.01.04h0l.03.4h0s0,.02,0,.02l-.18.16h-.01s-.01,0-.01,0l-.37-.44c-.05-.07-.08-.13-.05-.21.02-.05.02-.1,0-.11-.01-.01-.02-.02-.04-.01l-.63.28c.05.04.15.14.3.3l.42.49h.01s-.01.02-.01.02l-.36.3h-.01s-.01,0-.01,0l-.38-.44c-.07-.07-.08-.15-.03-.26,0-.01.01-.03-.01-.05s-.03-.02-.07-.01l-.61.28.28.28.45.51h.01s-.01.02-.01.02l-.69.6h.18c.08-.1.14-.17.21-.23l.34-.29h.01s.01,0,.01,0l.66.76h.01s-.01.02-.01.02l-.84.73h.18c.05-.08.12-.16.21-.24l2.44-2.11h0ZM421.9,39.64h-.01s.01-.02.01-.02l.36-.3h.01s.01,0,.01,0l.66.76h.01s-.01.02-.01.02l-.36.3h-.01s-.01,0-.01,0l-.66-.76h0Z"/>
      <path class="cls-5" d="M423.05,40.67l-.58.04c.08.52.01,1.13-.21,1.82l.08.02c.39-.62.61-1.19.65-1.68h0s.11-.12.11-.12c.02-.02.02-.03,0-.05-.02-.02-.03-.03-.05-.03h0Z"/>
      <path class="cls-5" d="M424.78,40.4c-.01-.08-.05-.15-.11-.22-.14-.16-.36-.24-.64-.22-.28.01-.63.14-1.03.37l.02.08c.48-.09.96-.02,1.41.2.12.05.22.05.28-.01.05-.07.08-.12.07-.2h0Z"/>
      <path class="cls-5" d="M430.1,36.78l-.27-.57-.54-1.18c-.02-.05-.02-.11.01-.16.02-.04.03-.08.02-.1s-.03-.03-.05-.04l-.33-.09s-.08-.01-.09,0c-.02.01-.04.03-.04.07h0l-.1.3h0s-.01.01-.01.01l-.36.16h-.57c.05.1.11.2.16.3l.12.25.02.04-.04-.02-.29-.12s-.05-.02-.05-.02c0,0-.01.01-.02.05l-.09.34h0s-.01.01-.01.01l-.07.03h-.02s-.01-.01-.01-.01l-.27-.59h-.01s.01-.02.01-.02c.18-.13.29-.21.33-.24s.07-.05.1-.07c.03-.01.07-.02.11-.03.03,0,.05-.01.07-.03s.01-.03,0-.05c0-.01-.01-.02-.03-.03l-.53-.24c-.3.48-.7.92-1.16,1.33l.03.04c.26-.14.49-.27.65-.39h.02s.01.01.01.01l.23.51v.02s-.01.01-.01.01l-.77.35.15.07c.12-.09.22-.15.29-.18l.2-.09h.02s0,.01,0,.01c.11.54.11,1.16,0,1.85h.07c.22-.38.35-.78.39-1.18h0s.01-.01.01-.01h.03s.01.01.01.01l.38.84.18.44.02.05s.04.07.11.03c.05-.02.12-.08.18-.15.1-.1.11-.14.11-.15,0-.02,0-.05-.01-.09l-.05-.09-.27-.54-.39-.86v-.02s.01-.01.01-.01h.01s.01-.01.01-.01h.01s.07.04.14.1c.09.04.16.12.23.22.07.09.13.11.21.08.03-.01.05-.04.08-.09.02-.04.03-.1.02-.15h0s.01-.02.01-.02h.01s.02-.02.02-.02v.02s.25.53.25.53l.22.52s.03.07.05.08c.01.01.03,0,.05,0,.03-.02.09-.07.15-.13.07-.07.11-.13.13-.17s.02-.09,0-.13l-.16-.34v-.02s.01-.01.01-.01l.39-.18h.02s.01.01.01.01l.16.39s.02.04.03.04.03,0,.05-.01c.05-.02.13-.1.22-.2.1-.12.12-.2.08-.27h0ZM428.31,36.38h0v.04s-.03-.03-.03-.03c-.1-.13-.33-.14-.67-.03h-.02s-.09-.21-.09-.21v-.02s.01-.01.01-.01l.57-.26h.02s.01.01.01.01l.22.49v.02h-.01ZM429.51,36.73l-.4.18h-.02s-.01-.01-.01-.01l-.73-1.63v-.02s.01-.01.01-.01l.4-.18h.02s.01.01.01.01l.74,1.62v.02s-.02.02-.02.02h0Z"/>
      <path class="cls-5" d="M436.25,35.44l-.36-2.48h0s.01-.02.01-.02l.11-.12s.03-.04.02-.07c0-.02-.01-.04-.03-.04l-.36-.22s-.04-.02-.05-.01c-.02,0-.03.01-.04.03l-.21.29h0s-.01.01-.01.01l-1.98.28h0l-.6-.17c.03.17.07.32.08.41l.37,2.58.05.57s.01.04.02.05c.01.01.03.01.07.01.04-.01.12-.03.21-.09.12-.07.15-.09.16-.11s.02-.04.01-.08l-.05-.25v-.02h.02l2.12-.3h.02v.13s.03.25.03.25c0,.01.01.03.03.04.02.01.04.02.07.01.02,0,.08-.02.22-.1.12-.05.16-.12.15-.21l-.08-.39h0ZM435.51,33.54v.02l.04.28v.03h-.03s-.46-.16-.46-.16c-.01.26-.03.46-.07.58h0s-.01.01-.01.01h-.02c-.03-.11-.08-.32-.13-.65v-.02h.02l.64-.09h.01ZM435.03,32.92l.37-.05h.02v.02l.07.46v.04s-.02-.02-.02-.02l-.11-.07h-.01s.01-.02.01-.02c.01-.03.02-.08.01-.11-.01-.05-.04-.1-.1-.14-.07-.03-.13-.05-.22-.07h-.01v-.03h-.01ZM434.57,32.99h.01s.28-.05.28-.05h.04s-.03.02-.03.02v.02c.07.04.12.12.15.22.02.1.07.15.11.16h.03s-.02.03-.02.03l-.09.12h0s-.01.01-.01.01l-.21.03h-.02v-.02l-.04-.3h0s.01-.02.01-.02c.07-.05.08-.1.08-.11,0-.02-.01-.03-.02-.03l-.26-.05h-.04s.03-.02.03-.02h0ZM433.33,33.76l-.08-.57v-.02h.02l1.02-.14h.02v.02l.04.22.05.35v.02h-.02l-1.03.15h-.02v-.03h-.01ZM435.79,35.61l-2.12.3h-.02v-.02l-.08-.54v-.02h.05s.05.1.1.16c.04.07.08.12.1.14.02.03.03.03.03.03.03,0,.05-.03.08-.09s.08-.12.15-.17l.53-.44v-.03c-.36.12-.71.23-1.04.29h-.02v-.02l-.21-1.37v-.04s.02.02.02.02l.1.05c.12-.04.2-.08.24-.08l.69-.1h.02v.02l.05.27v.04s-.03-.03-.03-.03l-.21-.15h-.04s-.03.01-.04.03h0l-.12.17h0s-.01.01-.01.01l-.13.02h0l-.39-.11c.02.09.03.17.05.28l.05.4.04.33s.01.07.03.08c.01.01.02.01.04.01.01,0,.04-.01.14-.07.1-.05.13-.08.13-.09.01-.01.01-.02.01-.04v-.1s-.01-.02-.01-.02h.11s.02-.01.02-.01v.02l.02.13s.01.02.02.03c.01.01.03.01.05.01.03,0,.09-.03.17-.08s.12-.1.11-.16l-.04-.17-.05-.36h0v-.02l.04-.05.02-.03v.04c.07.32.15.58.25.78h0v.02c-.17.29-.41.58-.7.82l.03.03c.34-.14.62-.33.85-.58h.01s.01.01.01.01c.11.13.22.24.35.3.12.07.22.1.29.09.1-.01.13-.05.12-.14-.01-.04-.02-.1-.05-.16-.03-.08-.05-.16-.08-.26-.01-.1-.03-.26-.04-.5h-.03c-.04.41-.05.44-.05.45-.01.02-.02.04-.05.04s-.05,0-.08-.01c-.01-.01-.04-.03-.13-.15h-.01s.01-.02.01-.02c.1-.17.18-.41.26-.71h0s.05-.05.09-.08l.02-.02v.03l.23,1.58v.02l.03-.04h0ZM434.11,34.66h-.11s-.02.01-.02.01v-.02l-.07-.49v-.02h.11s.02-.01.02-.01v.02l.07.49v.02h0Z"/>
      <path class="cls-5" d="M441.8,33.87l-.03-.04h.05s1.23.18,1.23.18h.07s-.01-.04-.02-.07l-.3-.39s-.02-.02-.04-.02-.04,0-.05.02l-.33.27h-.01s-.01.01-.01.01l-.75-.11h-.02v-.02l.05-.41v-.02h.02c.09.01.23,0,.44,0,.21-.01.34,0,.4,0,.03,0,.07.01.09.02.02.01.04.01.05,0,.02-.01.03-.02.03-.03s0-.02-.01-.04l-.34-.44c-.48.13-1.26.22-2.34.25v.05c.32.04.72.09,1.19.13h.02v.02l-.05.38v.02h-.02l-1.58-.23.1.14c.08-.01.21-.01.41.02l.55.08h.03l-.02.02c-.32.41-.76.76-1.33,1.06l.04.07c.45-.11.75-.21.89-.28l.03-.02v.03l-.04.42-.11.78-.07.34s0,.02.01.03.03.03.11.04c.08.01.16.01.26-.01.12-.02.13-.05.14-.07l.02-.23v-.02h.02l.96.13h.02v.02l-.04.29s-.01.04.08.05c.08.01.16,0,.26-.02.13-.03.14-.07.14-.08l.03-.36.11-.81s.03-.07.07-.08c.04-.02.04-.03.04-.03v-.03s.03.02.03.02c.14.11.24.17.29.21.09-.13.16-.22.23-.26s.15-.05.24-.04c.02,0,.03.01.05.01l.03-.07c-.52-.18-.97-.5-1.34-.91h0ZM441.62,35.43l-.07.46v.02h-.02l-.96-.13h-.02v-.02l.07-.46v-.02h.02l.96.13h.02v.02h0ZM441.7,34.86l-.07.45v.02h-.02l-.96-.13h-.02v-.02l.07-.45v-.02h.02l.96.13h.02v.02h0ZM442,34.66h0l-.02.02h-.01c-.04-.05-.08-.07-.08-.07h-.01l-.2.14h-.02l-.91-.13h0l-.27-.21-.02-.02h.02c.23-.14.41-.32.55-.51h.01s.01-.01.01-.01h.03v.02l-.03.24-.09.45h0s.01.01.07.02c.08.01.17.01.28-.01.14-.02.16-.05.16-.07l.04-.36.04-.3v-.02h.04c.05.29.18.54.4.78h.01s-.02.03-.02.03h0Z"/>
      <path class="cls-3" d="M448.58,38.18s-.01.01,0,0c-.01.01,0,.02,0,.02v-.02h0Z"/>
      <path class="cls-5" d="M449.4,35.71s-.03-.04-.03-.05c-.01-.01-.03,0-.05,0l-.28.13h-.02l-.07-.03h-.02s.01-.03.01-.03l.15-.34s.04-.04.11-.07c.08-.02.09-.03.09-.03,0,0,.01-.02-.07-.08l-.41-.34c-.03.07-.12.28-.12.28l-.16.36v.02s-.03-.01-.03-.01l-.24-.11h-.02s.01-.03.01-.03l.16-.36s.04-.04.11-.05c.08-.01.08-.03.08-.03,0,0,.01-.02-.08-.09l-.4-.34c-.03.08-.13.3-.13.32l-.17.37v.02s-.03-.01-.03-.01l-.4-.18.05.15c.1.01.18.03.26.07l.07.03h.02s-.01.03-.01.03l-.23.51v.02s-.03-.01-.03-.01l-.45-.21h-.02s.02-.03.02-.03l.29-.33-.03-.04c-.25.23-.5.42-.73.59-.24.17-.39.25-.48.25-.08,0-.16-.02-.24-.05-.04-.02-.08-.04-.12-.07l-.04.07c.12.1.2.18.21.24.02.07.01.13-.02.2-.02.05-.09.14-.17.25-.09.11-.14.17-.15.22-.03.08-.03.18,0,.3s.1.21.16.24c.12.05.22-.01.29-.18.05-.12.09-.23.12-.34.02-.12.04-.2.07-.25h0s.01-.01.01-.01c.27.02.53-.01.76-.1h.04s-.02.03-.02.03l-.34.75c-.03.07-.03.16,0,.27s.11.21.25.28.28.15.42.22c.34.15.6.24.76.26.15.02.3-.05.45-.22-.1-.12-.15-.24-.15-.33s.02-.18.07-.28l-.04-.03s-.05.09-.11.16c-.07.1-.11.15-.16.18-.05.03-.12.03-.22,0-.09-.02-.22-.08-.38-.14-.2-.09-.32-.15-.35-.21-.04-.05-.04-.11-.01-.18l.13-.29v-.02s.03.01.03.01l.44.2h.02s-.01.03-.01.03l-.07.12s-.01.02,0,.02c0,.01.02.03.05.04.07.03.16.04.27.04.14,0,.17-.03.18-.05l.1-.21.02-.03.02.03c.05.13.15.25.27.38.16-.15.34-.2.51-.15l.04-.04c-.42-.3-.67-.65-.75-1.03v-.03s.02.01.02.01l.85.39s.03.01.04.01.01-.01.02-.02v-.03s-.2-.39-.2-.39c-.02-.03-.03-.04-.03-.04-.02-.01-.03,0-.03,0h0l-.32.15h-.02l-.14-.07h-.02s.01-.03.01-.03l.23-.51v-.02s.03.01.03.01l.54.25s.05.01.07.01.01-.01.01-.01c.01-.01.01-.03,0-.05.01.02-.12-.29-.12-.29h0ZM446.34,36.54l-.04.02.03-.04c.16-.24.38-.51.67-.82l.02-.02v.03s.03.07.03.07c.05,0,.12.02.2.05l.14.05h.02s-.02.03-.02.03c-.24.27-.6.48-1.06.62h0ZM448.03,36.79l-.17.39v.02s-.03-.01-.03-.01l-.44-.2h-.02s.01-.03.01-.03l.17-.39v-.02s.03.01.03.01l.44.2.02.02h-.01ZM448.3,36.32c-.02.12-.03.23-.03.33v.02h-.02l-.22.02h0l-.4-.18h0l-.09-.11v-.02s.01-.01.01-.01c.02-.01.1-.05.35-.23h.01s.01-.01.01-.01l.38.17h.01s-.01.02-.01.02h0ZM448.47,35.65l-.23.51v.02s-.03-.01-.03-.01l-.24-.11h-.02s.01-.03.01-.03l.23-.51v-.02s.03.01.03.01l.24.11h.02s-.01.03-.01.03h0Z"/>
      <path class="cls-5" d="M446.95,34.73c-.02.16,0,.25.09.29.07.03.13.02.21-.02.08-.04.13-.1.16-.15.08-.16-.1-.4-.5-.74l-.05.02.08.2c.04.1.04.23.02.4h0Z"/>
      <path class="cls-5" d="M446.36,35.2c-.02.25-.02.34-.01.37.01.04.03.07.07.08.07.03.13.02.21-.03.08-.04.13-.11.17-.2.03-.08.03-.16-.01-.26-.03-.1-.18-.25-.42-.45l-.05.02c.05.12.08.27.05.47h0Z"/>
      <path class="cls-5" d="M455.11,39.79s-.01-.03-.02-.04-.03-.01-.05-.01h0l-.3.07h-.02s-.17-.16-.17-.16h-.01s.01-.02.01-.02l.28-.33h.01s.01-.01.01-.01l.14.02s.02,0,.04-.02c.01-.02.02-.04.01-.08l-.34-.53c-.07.08-.29.37-.29.37l-.22.25h-.01s-.01,0-.01,0l-.52-.45.02.17c.09.04.16.09.21.12l.25.21h.01s-.01.02-.01.02l-.37.42h-.01s-.01,0-.01,0l-.58-.5v.17c.1.03.17.09.24.14l.58.5h.01s-.01.02-.01.02l-.16.23-.16.18h-.01s-.03.04-.03.04l-.89-.77v.16c.08.03.15.08.24.14l.61.53h.01s-.01.02-.01.02l-.63.73s-.03.02-.05.03c-.03,0-.08-.01-.12-.05-.05-.04-.15-.16-.29-.35l-.05.04c.05.08.09.15.13.24.03.1.05.16.04.21s-.05.12-.13.24c.07.02.25.1.25.1.03.01.11.02.22.04.11.02.21-.02.28-.11l.71-.82h.01s.01,0,.01,0l.49.42h.01s.01.01.01,0c.01-.01.01-.02.02-.04,0-.02-.04-.44-.04-.44,0-.02-.01-.04-.02-.05-.02-.01-.03-.02-.07-.01l-.28.11h-.02s-.05-.05-.05-.05h-.01s.01-.02.01-.02l.14-.16h.01s.01-.01.01-.01c.13.02.15,0,.16,0,.01-.01.01-.02,0-.03l-.33-.47h-.01s.01-.02.01-.02h0s.01-.02.01-.02h.01s.86.76.86.76t.02.01s.01,0,.01-.01c.01-.01.01-.02.01-.03,0-.03-.05-.46-.05-.46,0-.01-.01-.02-.02-.03-.01-.01-.03-.01-.05-.01l-.34.07h-.02s-.33-.29-.33-.29h-.01s.01-.02.01-.02l.37-.42h.01s.01,0,.01,0l.61.52s.04.01.04.01c.01-.01.01-.02.01-.03.02-.03-.02-.44-.02-.44h0Z"/>
      <polygon class="cls-5" points="453.96 38.35 453.96 38.36 453.97 38.36 453.96 38.35"/>
      <polygon class="cls-5" points="453.21 39.74 453.19 39.74 453.19 39.75 453.21 39.74"/>
      <path class="cls-5" d="M452.68,39.66h0l.52.08.03-.08-.39-.15h-.02s.02-.03.02-.03l.32-.37h.01s.01,0,.01,0l.33.28s.04.02.05.01.01-.02.01-.04v-.36s-.02-.03-.03-.04-.03-.01-.04-.01h0l-.22.09h-.02s-.01-.02-.01-.02h-.01s.01-.02.01-.02l.52-.6h.01s.01-.01.01-.01l.13.04s.03.01.05-.02c.01-.02.02-.03.01-.07l-.35-.55c-.05.07-.23.3-.23.3l-.13.15-.02.02v-.02s-.21-.4-.21-.4c-.33.37-.76.72-1.31,1.02l.02.05c.27-.03.57-.13.9-.27h.02s.12.12.12.12h.01s-.01.02-.01.02l-.46.52h-.01s-.01.01-.01.01l-.73-.28c-.03.09-.16.49-.16.49-.01.03,0,.04.01.07.01.01.03.02.1,0,.05-.01.12-.02.18-.02l.33.03h.03l-.02.03-.46.52-.32.34s-.03.05-.03.08.01.03.03.05c.04.03.13.08.24.13.11.04.2.03.24-.03l.27-.36.63-.7h0ZM452.74,38.64l-.02-.02h.02s.07-.05.28-.23h.01s.01-.01.01-.01h.05s.03.02.03.02l-.02.02-.25.28h-.01s-.01,0-.01,0l-.1-.07h0Z"/>
      <path class="cls-5" d="M452.59,40.95c.05.04.12.07.2.05.08-.01.14-.05.18-.11.05-.07.08-.14.08-.24s-.05-.25-.16-.48h-.07c0,.16-.08.32-.22.48-.1.12-.1.22-.01.29h0Z"/>
      <path class="cls-5" d="M459.75,44.9c-.07.07-.17.15-.33.26l-2.21,1.43c-.07.04-.12.03-.16-.03-.04-.08-.12-.23-.21-.45l-.07.02c.04.15.07.28.07.37-.01.1-.1.2-.26.33.3.28.57.36.79.22l2.27-1.47c.07-.04.13-.04.21.01h0s.04.01.07,0c.01-.01.02-.02.02-.04l-.2-.64h0Z"/>
      <path class="cls-5" d="M457.39,45.31h.01l.16.04h.04s.02-.02.02-.04l.04-.4s0-.03-.02-.05c-.01-.02-.03-.03-.05-.04l-.3-.07h-.01s-.15-.24-.15-.24v-.02s.01-.01.01-.01l.22-.12h.02l.12.07s.03.01.05,0,.03-.03.02-.07l-.13-.46h0s.01-.02.01-.02l.05-.03h.01s.01,0,.01,0l.34.52h.01s-.01.02-.01.02l-.21.13s-.02.02-.02.03,0,.02.01.04c.02.03.08.08.15.15.11.09.15.12.17.12.02.01.04,0,.05-.01h0l.25-.17.35-.23c.1-.05.17-.07.24-.02.02,0,.03,0,.05-.01.01-.01.02-.02.03-.04,0-.02.03-.41.03-.41,0-.01-.01-.03-.02-.05s-.03-.03-.05-.04l-.3-.07h-.01s-.26-.41-.26-.41h0l-.1-.61c-.08.05-.18.13-.33.23l-.53.34-.39.24s-.03.02-.03.03,0,.02.01.03c.03.05.1.12.2.21l.02.02h-.02s-.24.16-.24.16c-.24.15-.51.26-.83.32-.3.05-.62.05-.94-.02l-.02.07c.69.28,1.33.3,1.9.09h.01s.01,0,.01,0l.2.3v.02s-.01.01-.01.01c-.2.11-.4.22-.62.32-.34.15-.37.16-.38.16-.03,0-.07-.02-.09-.07-.04-.07-.1-.21-.16-.46h-.05c.02.2.01.32-.03.39-.03.07-.11.13-.2.18.07.08.13.15.18.21.07.07.13.11.21.15.08.04.14.05.22.05.08-.01.21-.05.41-.15.2-.05.41-.17.65-.3h0ZM457.61,43.79l.61-.39h.01s.01,0,.01,0l.34.52h.01s-.01.02-.01.02l-.61.39h-.01s-.01,0-.01,0l-.34-.52h-.01s.01-.02.01-.02h0Z"/>
      <path class="cls-5" d="M459.12,45.15s.02-.02.02-.05l-.15-.59s-.1.09-.16.13c-.08.05-.13.09-.16.11l-1.18.76-.41.25s-.03.03-.04.04c0,.02,0,.03.01.05,0,0,.03.02.18.15.11.09.2.11.25.07l.33-.23,1.07-.69c.07-.04.14-.04.21,0h0s.03,0,.04-.01h0Z"/>
      <path class="cls-5" d="M460.14,50.41c.09-.02.16,0,.23.08.02.03.04.03.04.03.01,0,.02-.02.03-.03l.04-.21v-.02h.02c.14.07.23.1.26.11h0c.11.05.18.12.21.2.01.03.02.03.04.03s.03-.02.04-.04l.16-.6v-.02s.03.01.03.01c.26.13.4.24.45.34.01.03.03.03.04.03.02-.01.03-.02.04-.07l.17-.57c-.64-.08-1.15-.24-1.5-.47l-.04.07c.24.24.49.44.75.61h.01s-.01.02-.01.02h-.01s-.01.02-.01.02h-.01c-.69-.04-1.32-.21-1.89-.5l-.04.07c.23.22.45.38.63.48l.04.02h-.04s-1.04.32-1.04.32l-.46.12s-.02.01-.03.02c-.01.02-.01.05,0,.11.02.08.07.16.13.24.09.1.12.11.14.1l.41-.14,1.15-.35h0Z"/>
      <path class="cls-5" d="M462.35,51.68s-.02-.03-.04-.04l-.36-.15h-.01s-.34-1.15-.34-1.15l-.09.14c.05.07.1.16.13.28l.39,1.33c.02.07.03.08.04.09h.01s.02-.01.04-.05l.2-.37s.02-.04.02-.07h0Z"/>
      <path class="cls-5" d="M461.5,52.22l-.35-.17h-.01s-.47-1.61-.47-1.61l-.1.13c.07.09.12.2.15.32l.18.64v.02h-.02l-1.45.42s-.09.01-.12,0c-.02-.01-.04-.04-.05-.08-.01-.04-.04-.23-.09-.54h-.05c-.02.37-.15.6-.39.7.2.36.4.51.63.45l1.65-.49h.02v.02l.21.69s.02.04.02.04h.01s.02-.01.03-.04l.21-.38s.02-.04.01-.05c.02-.02,0-.03-.03-.05h0Z"/>
      <path class="cls-5" d="M461.7,57.67h-.03s.03-.03.03-.03l.17-.15s.02-.03.02-.04,0-.02-.01-.03l-.23-.15-.05-.03h.95v.52h.01s.02,0,.03-.01c.01-.01.37-.35.37-.35.01-.01.01-.02.01-.03,0-.02-.01-.03-.02-.04l-.33-.26h-.01v-1.21l-.13.1c.03.12.05.21.05.26v.55h-1.99s-.03-.14-.03-.14v-.02h1.16c.05,0,.1.02.13.05.02.03.04.04.07.04.01,0,.02-.01.02-.01l.2-.55c-.09,0-.39.01-.39.01h-1.23s-.05-.35-.05-.35c-.1.04-.49.22-.49.22-.08.03-.09.05-.09.07s0,.02.05.07c.04.03.07.05.09.08.01.01.03.04.12.23.07.13.13.3.22.51l.39.98.09-.02-.14-.67v-.02h.95v.4h-.02c-.18-.07-.41-.15-.66-.26l-.03.04c.16.17.37.35.61.49h.01v.02h0v.03h-.02c-.39.03-.66.09-.84.15h-.02c-.48-.39-.83-.85-1.06-1.39l-.04.02c.17.73.44,1.27.77,1.62h.01s-.02.02-.02.02c-.23.16-.45.37-.65.6.22.15.34.36.35.61h.07c.15-.45.34-.78.57-.98h.01s.01,0,.01,0c.29.16.66.28,1.11.35h0c.08.02.14.09.18.17h0s.02.04.03.04.02,0,.03-.02l.07-.17h0s.01-.01.01-.01h.03v.51s.01.03.02.03.02,0,.03-.01l.37-.4s.02-.03.02-.05-.01-.03-.02-.04h0l-.34-.25h-.01s0,.02,0,.02v-.48h.02s.13.04.32.09c.18.04.29.08.33.09.03.01.07.04.1.1.02.04.03.07.05.07.01,0,.03-.01.04-.03l.23-.63c-.53-.05-1.06-.15-1.57-.28h0ZM462.07,58.54c-.47-.01-.83-.07-1.07-.13h-.03s.02-.03.02-.03c.12-.11.35-.21.66-.3h.02c.18.09.32.15.4.17h.01v.29h-.02Z"/>
      <path class="cls-5" d="M461.97,63.2l-2.32-.69c-.09-.02-.14-.1-.16-.22,0-.02-.01-.03-.03-.03-.02-.01-.03,0-.03.01h0l-.39.24s-.02.02-.03.04c-.01.03,0,.07.02.09h0l.13.26h0v.02l-.78,2.69s0,.03.02.04h.03s.41-.25.41-.25l.03-.03s0-.03-.01-.04l-.22-.32h0v-.02l.61-2.09v-.02h.02l2.7.79h.02v.02l-.75,2.56s0,.03.01.03c0,0,.01,0,.04-.01.01,0,.45-.26.45-.26.02-.01.03-.02.03-.03s0-.03-.01-.05l-.23-.34h0v-.02l.52-1.78h0l.4-.49c-.14-.01-.49-.1-.49-.1h0Z"/>
      <path class="cls-5" d="M461.38,65.44s.01-.04,0-.07l-.16-.27h0v-.02l.16-.55h0l.36-.45c-.09-.02-.35-.09-.35-.09l-.34-.1-.33-.11s-.03-.01-.04,0c-.01,0-.01.01-.02.02-.01.03-.02.11-.02.25,0,.09,0,.2.07.21h.05s.02.01.02.01v.02l-.2.67v.02h-.02l-.14-.04h-.04s-.02.02-.02.03c-.01.02-.01.07-.01.21s.01.18.02.2c.01.02.03.03.05.04l.17.04.29.09h.01s.05.14.05.14l.03.03s.02,0,.04-.01c.01-.01.32-.23.32-.23.01-.02.02-.03.03-.05h0ZM461.12,65.15h-.02l-.44-.13h-.02v-.02l.2-.67v-.02h.02l.44.13h.02v.02l-.2.67v.02h0Z"/>
      <path class="cls-5" d="M459.92,65.78s-.01,0,0,0t0,0h0Z"/>
      <path class="cls-5" d="M460.09,65.24h0v-.02l.04-.15h0l.33-.36-.16-.03h-.03s.03-.03.03-.03l.29-.24s.02-.02.02-.03,0-.02-.01-.03h0l-.17-.23h-.01v-.02l.05-.17h0l.39-.38c-.09-.02-.36-.1-.36-.1l-.64-.18-.47-.15s-.03-.01-.04,0c-.01,0-.01.01-.02.03-.01.04-.02.13-.03.25-.01.12.01.18.07.2l.24.07h.02v.02l-.05.17v.02h-.02l-.11-.03-.18-.07h-.03s-.02.02-.03.04c-.01.02-.01.08-.01.21.01.15.02.18.02.2.01.01.02.02.04.03h0l.35.09.54.16h.01s.05.15.05.15v.03s-.02-.01-.02-.01l-.66-.2-.41-.14s-.03-.01-.04,0c-.01,0-.01.01-.02.02-.01.04-.02.1-.02.17s.01.13.01.17c.01.03.02.05.05.07l.18.05h.02v.02l-.05.17v.02h-.02l-.13-.04s-.05,0-.07.03c-.01.02-.01.08-.01.21.01.14.02.17.02.18.01.02.02.03.05.03l.26.07.46.13h.01s.04.14.04.14c0,.01.01.02.03.03h.04s.34-.25.34-.25c.01-.01.02-.02.02-.03s0-.02-.01-.03l-.19-.26h0ZM459.64,63.88h-.02v-.02l.05-.17v-.02h.02l.66.2h.02v.02l-.05.17v.02h-.02l-.66-.2h0ZM460.05,65.04l-.05.17v.02h-.02l-.66-.2h-.02v-.02l.05-.17v-.02h.02l.66.2h.02v.02h0Z"/>
    </g>
    <g>
      <path class="cls-10" d="M492.63,50.03h-4.2v3.54h-1.12v-3.54h-4.18v-5.17h4.18v-1.97h1.12v1.97h4.2v5.17ZM487.31,48.94v-3.01h-3.05v3.01h3.05ZM491.51,48.94v-3.01h-3.07v3.01h3.07Z"/>
      <path class="cls-10" d="M501.33,44.74h-1.39v.64h-1.08v-.64h-2.59v-.99h2.59v-.84h1.08v.84h1.39v.99ZM506.96,50.49h-4.77v.77h3.95v.94h-3.95v1.36h-1.09v-1.36h-3.94v-.94h3.94v-.77h-4.81v-.95h4.81v-2.95h-4.11v-.94h9.29v.94h-4.09v2.95h4.77v.95h0ZM500.52,48.51h-1.33v.7h-1.04v-.7h-1.57v-.9h1.57v-.63h1.04v.63h1.33v.9ZM506.95,44.74h-2.59v.64h-1.1v-.64h-1.37v-.99h1.37v-.84h1.1v.84h2.59v.99ZM506.67,48.51h-1.57v.7h-1.04v-.7h-1.31v-.9h1.31v-.63h1.04v.63h1.57v.9Z"/>
      <path class="cls-10" d="M520.69,52.75l-.71.89c-2.38-1.81-3.95-3.7-4.7-5.68-.59,2.22-2.15,4.09-4.68,5.62l-.74-.89c3.21-2,4.82-4.61,4.82-7.85v-1.96h1.15v2.51c0,1.33.45,2.63,1.34,3.91.89,1.29,2.06,2.44,3.51,3.45Z"/>
      <path class="cls-10" d="M534.44,51.16c-.45,1.62-1.12,2.44-2.02,2.44-.62,0-1.29-.39-2.03-1.19s-1.26-1.9-1.59-3.36h-3.26v3.18c1.03-.22,2.12-.5,3.26-.86l.1,1.12c-1.53.45-3.03.81-4.48,1.08l-.36-1.1c.23-.09.34-.26.34-.51v-8.79h8.92v3.41h-3.65c-.01.51.01.99.09,1.43h4.31v1.07h-4.1c.22.98.6,1.8,1.13,2.44s.96.97,1.28.97c.12,0,.22-.03.3-.09s.21-.27.37-.62c.16-.36.29-.75.39-1.19l1,.59ZM532.18,45.5v-1.26h-6.65v1.26h6.65ZM528.64,48c-.05-.41-.1-.89-.13-1.43h-2.97v1.43h3.1Z"/>
      <path class="cls-10" d="M548.01,49.92h-10.63v-1.07h2.62v-2.75h-2.21v-1.1h2.21v-2.09h1.12v2.09h3.13v-2.1h1.13v2.1h2.2v1.1h-2.2v2.75h2.63v1.07h-.01ZM541.76,50.93c-1.04,1.04-2.27,1.95-3.7,2.72l-.69-.9c1.5-.77,2.68-1.63,3.54-2.57l.85.75ZM544.25,48.85v-2.75h-3.13v2.75h3.13ZM547.99,52.89l-.86.76c-.88-.94-1.99-1.84-3.36-2.7l.87-.78c1.22.78,2.33,1.69,3.35,2.72Z"/>
      <path class="cls-10" d="M556.96,49.09l-.61.97c-.51-.66-1.04-1.22-1.58-1.68v5.18h-1.08v-5.01c-.69,1.22-1.44,2.2-2.24,2.93l-.52-1.06c1.21-1.16,2.1-2.38,2.66-3.66h-2.4v-1.09h2.52v-1.29c-.74.11-1.37.16-1.87.16l-.47-1.02c1.85-.05,3.43-.3,4.73-.75l.6.96c-.53.17-1.16.34-1.92.47v1.48h1.98v1.09h-1.98v.38c.76.58,1.49,1.23,2.18,1.94ZM561.45,53.56h-1.09v-.95h-2.09v.95h-1.06v-9.55h4.22v9.55h.01ZM560.36,51.51v-6.43h-2.09v6.43h2.09Z"/>
      <path class="cls-10" d="M575.02,53.57h-1.1v-.47h-7.62v.47h-1.08v-10.51h9.78v10.51h.01ZM573.92,52.14v-8.12h-7.62v8.12h7.62ZM570.25,50.47c-1.14.45-2.34.81-3.6,1.09l-.13-.98c1.18-.22,2.39-.57,3.68-1.04l.05.94ZM573.77,49.99c-.2,1.2-.62,1.8-1.27,1.8-.4,0-.76-.28-1.09-.84-.37.42-.74.76-1.1,1.01l-.71-.7c.47-.36.92-.82,1.38-1.37-.29-.94-.5-2.2-.62-3.79h-3.65v-.87h3.58c-.01-.15-.01-.47-.01-.95l1-.02c-.01.33,0,.65.03.97h1.38c-.29-.18-.65-.34-1.06-.46l.59-.61c.4.13.77.3,1.12.51l-.52.55h.67v.87h-2.15c.05,1.07.17,1.94.35,2.59.35-.65.65-1.41.92-2.26l.87.4c-.38,1.32-.86,2.38-1.43,3.2.05.21.14.37.24.49.1.12.16.18.21.18.05,0,.13-.11.22-.34s.16-.58.23-1.06l.81.67ZM569.91,49.34h-2.93v-2.6h2.93v2.6ZM568.9,48.46v-.84h-.92v.84h.92Z"/>
      <path class="cls-10" d="M589.37,48.3l-.52.87c-.5-.28-.85-.47-1.07-.57v4.92h-1.12v-.53h-5.6v.53h-1.1v-4.82c-.28.13-.59.26-.92.37l-.64-.9c1.8-.63,3.17-1.34,4.1-2.1h-3.84v-.92h4.65v-.82c-1.27.08-2.51.11-3.72.1l-.34-.97c.52.02,1.03.03,1.55.03,2.48,0,4.76-.24,6.82-.71l.6.81c-1,.26-2.26.47-3.77.62v.94h4.67v.92h-4.67v.14c1.77.55,3.42,1.26,4.93,2.09ZM583.3,48.37v-1.66c-.61.54-1.48,1.1-2.62,1.66h2.62ZM586.66,50.19v-.9h-5.6v.9h5.6ZM586.66,52.02v-.9h-5.6v.9h5.6ZM587.3,48.37c-.82-.39-1.77-.78-2.86-1.16v1.16h2.86Z"/>
      <path class="cls-10" d="M594.6,50.11c-.39,1.14-.9,2.3-1.53,3.46l-.96-.69c.62-1.09,1.13-2.24,1.53-3.45l.96.67ZM594.69,47.29l-.66.9c-.59-.53-1.22-.99-1.89-1.38l.6-.95c.73.41,1.38.89,1.96,1.43ZM594.78,44.5l-.73.82c-.53-.69-1.1-1.25-1.72-1.72l.75-.78c.75.58,1.32,1.13,1.7,1.69ZM603.01,49.19l-.52.94c-.52-.27-1.03-.62-1.53-1.06v2.23h-3.99v.77c0,.09.04.17.13.25.09.08.16.12.24.12,2.38,0,3.66-.01,3.84-.04.17-.03.32-.34.41-.94l1,.33c-.03.45-.16.83-.37,1.16s-.62.5-1.24.5h-3.7c-.9,0-1.36-.44-1.36-1.31v-2.58c-.29.21-.58.4-.87.59l-.62-.95c1.11-.58,1.9-1.23,2.38-1.94h-1.93v-.98h1.77v-1.15h-1.64v-.97h1.64v-1.22h1.08v1.22h2.14v-1.22h1.11v1.22h1.61v.97h-1.61v1.15h1.73v.98h-1.99c.55.85,1.33,1.5,2.29,1.92ZM599.88,50.33v-1.01h-2.93v1.01h2.93ZM600.24,48.33c-.26-.32-.49-.69-.67-1.09h-1.57c-.22.4-.47.76-.75,1.09h2.99ZM599.85,46.26v-1.15h-2.14v1.15h2.14Z"/>
      <path class="cls-10" d="M610.02,46.31h-.96v2.09c.21-.05.49-.14.87-.28l.02,1.1-.89.32v4.04h-1.09v-3.69c-.87.23-1.52.38-1.97.47l-.16-1.07c.63-.12,1.34-.29,2.12-.51v-2.45h-.69c-.15.69-.3,1.27-.48,1.75l-.95-.44c.35-1,.59-2.27.72-3.83l.99.14c-.01.29-.05.72-.13,1.29h.51v-2.34h1.09v2.34h.96v1.07h.03ZM616.6,49.57h-1.13v2.96c0,.28-.07.5-.2.65s-.28.25-.45.29c-.17.04-.48.07-.92.07-.27,0-.61-.01-1.02-.02l-.28-1.08c.4.03.75.04,1.04.04.37,0,.59-.02.65-.07.07-.04.1-.11.1-.2v-2.67h-4.09v-1.01h4.07v-.81h1.09v.81h1.13v1.02h.01ZM616.54,45.11h-2.55v1.25h2.27v1h-5.69v-1h2.34v-1.25h-2.59v-.99h2.59v-1.22h1.08v1.22h2.55v.99h0ZM613.26,51.55l-.98.61c-.38-.61-.89-1.19-1.53-1.72l.99-.6c.57.51,1.08,1.08,1.52,1.71Z"/>
      <path class="cls-10" d="M625.65,48.45c-.07,2.48-.23,3.95-.48,4.42-.25.47-.74.7-1.47.7-.3,0-.65-.01-1.04-.02l-.32-1.02c.71.02,1.16.03,1.38.03.33,0,.52-.18.6-.57.07-.38.14-1.2.21-2.46h-2.32c-.28,1.84-.9,3.21-1.86,4.11l-.83-.72c1.2-1.25,1.81-3.18,1.84-5.8h-1.07v-4.05h5.32v4.04h-3.18c-.01.51-.04.96-.1,1.35h3.31ZM624.49,46.06v-1.96h-3.07v1.96h3.07ZM627.7,51.35h-1.08v-7.62h1.08v7.62ZM629.98,52.1c0,.57-.12.96-.36,1.16-.24.21-.57.32-.99.32-.61,0-1.04,0-1.31-.01l-.34-1.06c.38.02.88.03,1.49.03.11,0,.21-.04.28-.13s.12-.18.12-.3v-9.17h1.09v9.16h.01Z"/>
      <path class="cls-10" d="M637.01,43.27c-.89,1.19-1.98,2.17-3.26,2.91l-.52-1.06c.97-.5,1.88-1.28,2.73-2.35l1.06.5ZM637.26,45.54c-.38.64-.78,1.24-1.21,1.81v6.22h-1.13v-4.92c-.44.44-.85.77-1.23,1.01l-.48-1.09c1.03-.67,2.03-1.84,3-3.48l1.04.45ZM643.96,47.41h-1.65v4.96c0,.82-.45,1.22-1.33,1.22-.57,0-1.12-.01-1.66-.03l-.4-1.11c.34.01.98.01,1.9.01.08,0,.15-.03.23-.1.08-.07.11-.14.11-.24v-4.7h-3.99v-1.08h6.79v1.07h.01ZM643.65,44.31h-6.15v-1.07h6.16v1.07h-.01Z"/>
      <path class="cls-10" d="M652.56,51.14c-1.5.74-3.25,1.44-5.25,2.1l-.4-.99.61-.2v-5.89h1.09v5.48c.13-.03.44-.14.91-.33v-6.94h-2.31v-1.02h5.25v1.02h-1.84v2.55h1.49v1.04h-1.49v2.89c.64-.26,1.23-.52,1.75-.79l.18,1.07ZM657.85,52.83l-.66.89c-.87-.6-1.6-1.26-2.19-2.02-.76.82-1.69,1.5-2.79,2.03l-.66-.92c1.21-.52,2.14-1.2,2.84-2.02-.41-.73-.72-1.5-.91-2.31l.95-.45c.14.6.34,1.15.59,1.68.47-1.2.74-2.52.81-3.97h-1.49c-.4,1.16-.82,2.17-1.24,3l-.83-.73c.84-1.73,1.39-3.46,1.66-5.19l1.06.2c-.1.64-.21,1.2-.34,1.68h3v1.04h-.74c-.17,2.18-.59,3.87-1.24,5.1.61.83,1.34,1.49,2.19,1.99Z"/>
      <path class="cls-10" d="M671.4,53.26h-8.98c-.36,0-.63-.11-.82-.34-.2-.23-.29-.51-.29-.87v-7.94h-.57v-.94h10.53v.94h-8.9v7.87c0,.08.03.15.11.23.08.08.15.11.23.11h8.68v.95h0ZM666.47,51.61h-3.4v-3.41h3.4v3.41ZM669.53,47.57h-5.44v-2.77h5.44v2.77ZM665.45,50.67v-1.56h-1.35v1.56h1.35ZM668.44,46.66v-.95h-3.24v.95h3.24ZM670.63,51.61h-3.45v-3.41h3.45v3.41ZM669.61,50.66v-1.55h-1.41v1.55h1.41Z"/>
      <path class="cls-10" d="M679.98,51.14c-1.5.74-3.25,1.44-5.25,2.1l-.4-.99.61-.2v-5.89h1.09v5.48c.13-.03.44-.14.91-.33v-6.94h-2.31v-1.02h5.25v1.02h-1.84v2.55h1.49v1.04h-1.49v2.89c.64-.26,1.23-.52,1.75-.79l.18,1.07ZM685.26,52.83l-.66.89c-.87-.6-1.6-1.26-2.19-2.02-.76.82-1.69,1.5-2.79,2.03l-.66-.92c1.21-.52,2.14-1.2,2.84-2.02-.41-.73-.72-1.5-.91-2.31l.95-.45c.14.6.34,1.15.59,1.68.47-1.2.74-2.52.81-3.97h-1.49c-.4,1.16-.82,2.17-1.24,3l-.83-.73c.84-1.73,1.39-3.46,1.66-5.19l1.06.2c-.1.64-.21,1.2-.34,1.68h3v1.04h-.74c-.17,2.18-.59,3.87-1.24,5.1.61.83,1.34,1.49,2.19,1.99Z"/>
      <path class="cls-10" d="M698.76,44.82h-8.79v4.91c0,1.45-.3,2.73-.9,3.84l-.92-.71c.21-.36.39-.88.53-1.55.15-.66.22-1.23.22-1.7v-5.79h4.42c-.08-.2-.2-.48-.38-.83l1.1-.27c.17.4.33.76.46,1.1h4.27v.99h.01ZM693.57,45.34c-.15.37-.35.81-.59,1.31l-.36.73v6.16h-1.08v-4.44c-.18.23-.44.51-.77.86l-.63-.9c.88-1.01,1.68-2.35,2.36-3.99l1.07.28ZM698.77,47.79h-1.18v4.65c0,.3-.12.55-.36.75-.24.2-.51.29-.83.29h-1.64l-.41-1.09c.22.01.86.02,1.92.02.16,0,.25-.09.25-.26v-4.37h-3.38v-1.02h3.38v-1.6h1.08v1.61h1.18v1.02h0ZM695.77,50.77l-.9.59c-.47-.91-.99-1.73-1.57-2.45l.9-.58c.64.77,1.16,1.58,1.57,2.44Z"/>
    </g>
    <g>
      <path class="cls-10" d="M491.42,60.6c-.64,1.2-1.36,2.31-2.17,3.33h1.35v1.41h-2.57c-.28.33-.77.79-1.46,1.4h3.17v1.36c-.61.57-1.37,1.2-2.29,1.9v.26c1.16-.17,2.24-.38,3.23-.6l.02,1.49c-.55.11-1.64.29-3.24.53v2.01c0,.57-.13.98-.39,1.27-.26.28-.83.42-1.69.42-.3,0-.66-.01-1.08-.02l-.47-1.58c.52.03.95.05,1.26.05.55,0,.84-.12.84-.36v-1.52c-1.7.23-2.92.37-3.66.41l-.29-1.49c1.4-.08,2.72-.21,3.95-.38v-1.1c.63-.44,1.19-.85,1.69-1.24h-2.92c-.4.3-1.09.7-2.05,1.2l-.84-1.23c1.51-.7,2.91-1.62,4.19-2.77h-4v-1.41h3.31v-1.58h-2.61v-1.37h2.61v-1.47h1.56v1.47h1.82v1.26c.62-.91,1.07-1.66,1.34-2.27l1.38.6ZM488.64,62.34h-1.75v1.58h.53c.32-.35.72-.87,1.22-1.58ZM497.99,74.21l-.96,1.26c-1.27-.79-2.31-1.7-3.1-2.73-.98,1.06-2.18,1.94-3.58,2.67l-1.11-1.2c1.66-.81,2.94-1.74,3.81-2.8-.46-.77-.87-1.99-1.23-3.66l1.4-.64c.18,1.1.45,2.03.79,2.8.72-1.58,1.11-3.69,1.2-6.32h-1.94c-.48,1.55-1.14,3.03-1.98,4.45l-1.02-1.22c1.23-2.12,2-4.59,2.31-7.43l1.47.29c-.11.81-.25,1.61-.4,2.42h4.16v1.49h-1.09c-.16,3.57-.77,6.21-1.85,7.92.75,1.03,1.78,1.94,3.12,2.7Z"/>
      <path class="cls-10" d="M518.2,62.12h-9.39c-.9.81-1.77,1.45-2.61,1.93,2.22,0,4.67-.11,7.36-.34-.18-.12-.49-.3-.91-.55l1.47-.85c1.62.95,2.87,1.84,3.74,2.69l-1.2,1.06c-.44-.42-.89-.81-1.37-1.14-4.58.37-8.49.57-11.75.6l-.3-1.37c1.21-.42,2.32-1.1,3.32-2h-4.16v-1.43h5.67c.37-.38.75-.83,1.13-1.33l1.94.35c-.15.25-.42.59-.82.98h7.89v1.41ZM516.34,73.98c0,.26-.09.52-.26.77-.17.25-.4.41-.66.49-.26.08-.84.12-1.72.12-.5,0-1.01-.01-1.53-.04l-.49-1.52c.5.05,1.01.08,1.51.08.73,0,1.16-.03,1.31-.1s.21-.17.21-.33v-1.72c-2.5.57-5.31,1.1-8.44,1.61l-.51-1.14c-.45,1.56-1.07,2.67-1.85,3.33l-1.46-.91c1.28-.96,1.94-2.56,1.94-4.79v-3.63h11.96v7.79h.01ZM514.71,70.27v-2.66h-8.68v.92c2.95.11,5.36.23,7.25.36l-.47,1.4c-2.42-.22-4.68-.33-6.79-.35-.02.77-.09,1.41-.21,1.94,2.91-.38,5.88-.92,8.9-1.62Z"/>
      <path class="cls-10" d="M538.02,65.9c0,1.45-.07,3.17-.18,5.15-.12,1.98-.25,3.12-.38,3.42-.13.29-.35.54-.64.74-.3.2-.69.3-1.15.3-.71,0-1.38-.02-2.03-.05l-.38-1.55c.63.04,1.37.08,2.22.08.32,0,.51-.21.58-.61.07-.4.18-2.4.36-6.01h-10.38c-.13,3.33-.87,6.08-2.23,8.25l-1.31-1.06c1.29-1.9,1.94-4.79,1.94-8.65v-5.88h13.21v4.45h-11.59v1.41h11.98ZM535.94,63.05v-1.56h-9.91v1.56h9.91ZM534.41,73.06h-7.21v-4.53h7.21v4.53ZM532.82,71.6v-1.63h-3.98v1.63h3.98Z"/>
    </g>
  </g>
</svg>