<?xml version="1.0" encoding="utf-8"?>
<!-- Generator: Adobe Illustrator 25.4.1, SVG Export Plug-In . SVG Version: 6.00 Build 0)  -->
<svg version="1.1" id="圖層_1" xmlns="http://www.w3.org/2000/svg" xmlns:xlink="http://www.w3.org/1999/xlink" x="0px" y="0px"
	 viewBox="0 0 352 94.6" style="enable-background:new 0 0 352 94.6;" xml:space="preserve">
<style type="text/css">
	.st0{fill:none;}
	.st1{fill:#FFFFFF;}
	.st2{fill:#0094AD;}
	.st3{fill:#005973;}
	.st4{fill:#A1D1D9;}
	.st5{fill-rule:evenodd;clip-rule:evenodd;fill:#005973;}
</style>
<g>
	<g>
		<path class="st0" d="M47.6,42c0,0,0.2-1.6-0.7-2c-1.1-0.6-5.3,1.3-5.3,1.3l-8.8,3.5c0,0-1,0.4-1,1.3c0,1.2,1.4,1,1.4,1h10.9
			c0,0,2.3,0.2,2.8-0.3c0.7-0.7,0.6-1.9,0.6-1.9L47.6,42z"/>
		<path class="st1" d="M91.3,47.7c0-15.3-14-27.7-31.7-28.6V2.9h-3.5v16.2C39,19.7,25.2,31.4,24.2,45.9H3.4v3.5h20.8
			c1,14.6,14.8,26.2,32,26.8v15.3l3.5-0.1V76.2C77.3,75.4,91.3,62.9,91.3,47.7z"/>
		<path class="st2" d="M58.1,1.3c31,0,56.1,21.2,56.1,47.3c0,26.1-25.1,44.7-56.1,44.7C27.1,93.3,2,74.7,2,48.6
			C2,22.5,27.1,1.3,58.1,1.3z"/>
		<path class="st3" d="M3.3,48.6c0-10.8,4.6-21.3,12.8-29.6C26.6,8.5,41.9,2.5,58.1,2.5v45.8L3.3,48.6z"/>
		<g>
			<path class="st1" d="M82.1,78.8c0,0-1,6.6-0.3,8.4c0.2,0.5-6.6,2.3-6.6,2.3l-0.5-4.1L82.1,78.8z"/>
			<path class="st1" d="M90.1,73.7c0,0,10.1,1.4,11.5,0.3c0.8-0.7,4-2.7,3.2-6.1c-0.8-3.4-0.4-3,1.3-4.9c2-2.3-0.3-2.3-0.3-3
				c0-1.3,1.1-0.8,1.1-2.8c0-2.5-3-3.1,1-6c3.7-2.7,2.4-3.8-2-9.4c-4.3-5.6-4-11.8-4-11.8s1.9,0.4,2.4-2
				c1.1-5.5-14.4-20.3-21.6-19.1C82.4,8.7,90.1,73.7,90.1,73.7z"/>
		</g>
		<path class="st3" d="M59.3,2.8c0,0,15.8,0.5,17.9,4c0,0,1.6-1.1,4.4,0.3c3.5,1.7,9.5,7.2,11.8,6.8c0,0-1.9,3,1.2,8.2
			c1.9,3,3,8.3,3,10.5c0,3.4-1.2,2.9-1.4,4c-1,3.9,8.2,10.2,8.2,13.8c0,3.2-4.3,3-4.9,3.6c-0.6,0.6,1.6,4.6,1.2,5.1
			c-0.6,0.7-1.7,0-1.8,0.9c-0.1,0.8,1.8,0.4,1.8,1.1c0.1,1.3-2.4,1.9-2.1,4.5c0-0.4,2.5,5.7,0.4,7.4c-1.6,1.3-9.6,1.1-13.9,3.9
			C81,79.7,78.3,84.4,75,89.6c0,0-12.1,2.4-15.4,2.1c0,0-0.4-15.8-0.2-15.8c11.4,0,31.9-9.8,31.8-28.4c-0.2-22.2-28-28.2-32-28.2
			L59.3,2.8z"/>
		<g>
			<path class="st1" d="M91.4,47.8c0-15.3-14-27.7-31.7-28.6V3h-3.5v16.2C39.1,19.9,25.3,31.5,24.3,46H3.5v3.5h20.8
				c1,14.6,14.8,26.2,32,26.8v15.3l3.5-0.1V76.3C77.4,75.5,91.4,63,91.4,47.8z"/>
			<g>
				<path class="st4" d="M47.6,42c0,0,0.2-1.6-0.7-2c-1.1-0.6-5.3,1.3-5.3,1.3l-8.8,3.5c0,0-1,0.4-1,1.3c0,1.2,1.4,1,1.4,1h10.9
					c0,0,2.3,0.2,2.8-0.3c0.7-0.7,0.6-1.9,0.6-1.9L47.6,42z"/>
				<path class="st4" d="M68.5,42.2c0,0-0.2-1.6,0.7-2c1.1-0.6,5.3,1.3,5.3,1.3l8.8,3.5c0,0,1,0.4,1,1.3c0,1.2-1.4,1-1.4,1H71.9
					c0,0-2.3,0.2-2.8-0.3c-0.7-0.7-0.6-1.9-0.6-1.9L68.5,42.2z"/>
				<path class="st4" d="M84.9,52.3H62.3V36.9h19.6c-4.8-6.7-13.8-11.3-24.2-11.3c-10.2,0-19.1,4.4-24,11v0.3h19.7v15.3H30.6l0,0
					c0.8,2.9,2.2,5.5,4.2,7.9h18.7v10.1h8.8V60.2h18.3C82.7,57.8,84.1,55.1,84.9,52.3z"/>
			</g>
		</g>
	</g>
	<g>
		<path class="st5" d="M141.5,32.2l1.7-1.7c0.1-0.2,0.3-0.3,0.5-0.3c0.1,0,0.3,0.1,0.5,0.2l1.7,1.7c0.1,0.2,0.2,0.3,0.2,0.4
			c0,0.2-0.1,0.3-0.4,0.3h-7.4v8.4h4.9l1.8-2c0.2-0.2,0.3-0.3,0.4-0.3c0.1,0,0.2,0.1,0.4,0.3l1.9,1.9c0.2,0.2,0.3,0.4,0.3,0.5
			c0,0.2-0.1,0.3-0.4,0.3h-9.3v4.5l0.1,3.9c0,0.3-0.1,0.5-0.3,0.7c-0.2,0.1-0.6,0.3-1.2,0.5c-0.6,0.2-1,0.3-1.2,0.3
			c-0.4,0-0.5-0.3-0.5-0.8l0.1-4.2V42h-6.2c-0.8,0-1.5,0.1-2.1,0.3l-0.9-0.9h9.2v-8.4h-4.7c-0.5,0-1.2,0.1-2.2,0.3l-0.9-0.9H141.5z
			 M139.5,40.5l-0.4-0.3c1-1.8,1.9-4.1,2.6-6.8l3.2,1.6c0.2,0.1,0.3,0.3,0.3,0.5c0,0.3-0.2,0.5-0.5,0.5c-0.4,0-0.7,0.2-1.1,0.7
			C142.3,38.3,140.9,39.6,139.5,40.5z M129.4,34l0.4-0.3c1.7,1,2.9,1.8,3.4,2.4c0.5,0.6,0.8,1.3,0.8,2.1c0,0.6-0.2,1.2-0.6,1.7
			c-0.4,0.5-0.8,0.8-1.3,0.8c-0.3,0-0.6-0.2-0.8-0.5c-0.2-0.3-0.4-1.2-0.6-2.7C130.5,35.9,130,34.8,129.4,34z"/>
		<path class="st5" d="M171.8,43.2l-0.1-1.3h-10.3c-0.7,0-1.4,0.1-2,0.3l-0.9-0.9h9.6V39h-4.2c-0.7,0-1.2,0.1-1.7,0.2l-0.9-0.9h6.8
			v-1.7H168c-0.1,0.3-0.3,0.5-0.6,0.8c-0.3,0.2-0.5,0.3-0.8,0.3c-0.3,0-0.6-0.1-0.8-0.3c-0.2-0.2-0.3-0.7-0.3-1.3
			c-0.1-1-0.2-1.7-0.5-2.1h-0.3c-1.7,2.2-3.5,4-5.3,5.4l-0.2-0.2c2.1-2.8,3.5-6,4.4-9.6l3.4,1.5c0.2,0.1,0.2,0.2,0.2,0.3
			c0,0.2-0.1,0.3-0.3,0.3l-0.8,0.2l-1,1.4h2l1.2-1.6c0.1-0.2,0.2-0.2,0.4-0.2c0.1,0,0.2,0.1,0.3,0.2l1.5,1.8
			c0.7-1.4,1.1-2.7,1.4-3.7l3.4,1.5c0.1,0.1,0.2,0.2,0.2,0.3c0,0.2-0.1,0.2-0.3,0.2c-0.3,0-0.6,0.2-0.9,0.5l-1,1.1h2.5l1.3-1.7
			c0.1-0.1,0.2-0.2,0.3-0.2c0.1,0,0.3,0,0.4,0.1l2,1.9c0.1,0.1,0.1,0.2,0.1,0.3c0,0.2-0.1,0.3-0.3,0.3h-4.7l0,0
			c0.8,0.4,1.2,1,1.2,1.8c0,0.5-0.1,0.9-0.4,1.1l1.7,1.4c0.1,0.1,0.2,0.2,0.2,0.3c0,0.2-0.1,0.3-0.3,0.3h-6.6v2.3h5.8l1.1-1.6
			c0.1-0.1,0.2-0.2,0.3-0.2c0.1,0,0.2,0,0.3,0.1l1.9,1.7c0.1,0.1,0.1,0.2,0.1,0.3c0,0.2-0.1,0.3-0.3,0.3h-7v0l2.1,0.4
			c0.2,0.1,0.2,0.2,0.2,0.3c0,0.2-0.1,0.3-0.2,0.4l-0.7,0.4v0.6h1.1l1.2-1.7c0.1-0.1,0.2-0.1,0.3-0.1c0.2,0,0.3,0.1,0.4,0.2l1.7,1.8
			c0.1,0.1,0.1,0.2,0.1,0.3c0,0.2-0.1,0.3-0.2,0.3h-4.6v3.8c0,0.5,0,0.9-0.1,1.2c-0.1,0.3-0.3,0.6-0.6,0.9c-0.3,0.3-0.7,0.5-1.1,0.6
			c-0.4,0.1-1.1,0.3-2,0.5c0-0.8-0.1-1.4-0.5-1.7c-0.3-0.3-0.9-0.7-1.7-0.9l0.1-0.4c1.1,0.2,1.9,0.2,2.5,0.2c0.3,0,0.5-0.2,0.5-0.6
			v-3.6h-6.3c1.2,0.4,2,0.7,2.6,1.1c0.6,0.4,0.9,0.9,0.9,1.6c0,0.5-0.2,1-0.5,1.3c-0.3,0.3-0.6,0.5-1,0.5c-0.6,0-1-0.5-1.2-1.4
			c-0.1-0.9-0.7-1.9-1.7-2.9l0.1-0.2h-1c-0.7,0-1.3,0.1-1.9,0.3l-1-1h10.9V43.2z M167.2,34.1c0.6,0.4,0.9,0.9,1,1.5l1.1,0.4
			c0.5-0.6,0.9-1.2,1.2-1.8H167.2z M171.1,38.4h3.5l0.5-0.8c-0.1,0-0.1,0-0.2,0c-0.3,0-0.6-0.1-0.7-0.3c-0.2-0.2-0.3-0.7-0.3-1.5
			c0-0.8-0.2-1.3-0.4-1.7h-0.3c-0.8,0.7-1.7,1.5-2.6,2.2l1.2,0.4c0.1,0.1,0.2,0.2,0.2,0.3c0,0.1,0,0.2-0.1,0.3
			c0,0.1-0.3,0.2-0.7,0.4V38.4z"/>
		<path class="st5" d="M210.1,42.9l1-1.3c0.1-0.1,0.2-0.2,0.2-0.2c0.1,0,0.2,0,0.3,0.1l1.7,1.4c0.1,0.1,0.1,0.2,0.1,0.3
			c0,0.2-0.1,0.3-0.3,0.3h-5.7c0.1,0.7,0.2,1.3,0.5,1.8c0.7-0.6,1.2-1.2,1.6-1.7l2.3,2.1c0.1,0.1,0.2,0.2,0.2,0.3
			c0,0.2-0.1,0.3-0.4,0.4l-0.8,0c-0.1,0.1-0.6,0.4-1.4,1c0.2,0.2,0.5,0.5,1,0.7c0.4,0.2,0.8,0.3,1.1,0.3c0.2,0,0.4,0,0.5-0.1
			c0.1-0.1,0.2-0.5,0.5-1.1l0.6-2.1l0.3,0.1c-0.2,1.4-0.3,2.4-0.3,3.2c0,0.8,0.1,1.4,0.3,2c0.2,0.6,0.3,0.9,0.3,1
			c0,0.4-0.2,0.7-0.6,0.7c-0.4,0-1.3-0.3-2.7-0.9c-1.3-0.6-2.4-1.3-3.1-2.2c-2.1,1-4.5,1.8-7,2.4l-0.1-0.3c2.5-1.2,4.4-2.5,5.7-3.9
			c-0.3-0.5-0.6-1.7-1-3.7h-2.1l-0.1,0.5c1.6,0.7,2.3,1.6,2.3,2.6c0,0.4-0.1,0.8-0.3,1.1c-0.2,0.3-0.5,0.4-0.9,0.4
			c-0.2,0-0.5-0.1-0.7-0.2c-0.2-0.2-0.3-0.3-0.4-0.5c0-0.1-0.1-0.4-0.1-0.8c0-0.5-0.1-0.9-0.3-1.4h0c-0.7,2.9-2.2,5-4.7,6.3
			l-0.2-0.3c-0.9,0.3-1.6,0.5-2,0.5c-0.3,0-0.5-0.2-0.5-0.6l0.1-3.9v-3.3h0c-0.6,1.2-1.5,2.2-2.8,3.2l-0.2-0.2
			c1.5-2.9,2.4-6.2,2.7-10h-0.7c-0.4,0-0.9,0.1-1.5,0.3l-0.8-1h3.4v-4.2l-0.1-2.1l3.6,1.3c0.2,0.1,0.3,0.2,0.3,0.3
			c0,0.1-0.1,0.2-0.2,0.3l-0.6,0.4v3.6h0l0.5-0.9c0.1-0.1,0.2-0.2,0.3-0.2c0.2,0,0.4,0.2,0.7,0.5c0.3-0.2,0.7-0.6,0.9-1.2
			c0.3-0.7,0.7-1.8,1.1-3.5l2.6,1.4c0.1,0.1,0.2,0.2,0.2,0.3c0,0.2-0.3,0.4-0.8,0.4c-0.4,0.6-1,1.4-1.8,2.4l0.9-0.1
			c0.1-0.1,0.4-0.7,0.8-1.8l1.2,0.5V32l-0.1-2.1l3.4,1.1c0.2,0.1,0.3,0.2,0.3,0.3c0,0.1-0.1,0.2-0.2,0.3l-0.7,0.5V35
			c0.4-0.2,1-1.6,1.7-4.3l2.7,1.6c0.1,0.1,0.1,0.2,0.1,0.3c0,0.2-0.1,0.3-0.2,0.3l-0.8,0.1c-0.7,1-1.3,1.7-1.8,2.1l0,0l1.2-0.2
			c0.3-0.4,0.6-0.9,0.9-1.6l2.1,1.5c0.1,0.1,0.1,0.2,0.1,0.3c0,0.1,0,0.2-0.1,0.2c-0.1,0-0.3,0.1-0.8,0.2c-0.4,0.5-1.1,1.1-1.9,1.8
			c1.5,0.6,2.3,1.5,2.3,2.4c0,0.4-0.1,0.7-0.4,1c-0.2,0.3-0.6,0.5-1,0.5c-0.7,0-1-0.4-1-1.1c0,0,0-0.3,0.1-0.7
			c-0.7,0.2-1.2,0.4-1.5,0.6c-0.4,0.4-0.6,0.6-0.7,0.6v0c1.1,0.2,1.6,0.8,1.6,1.6c0,0.3-0.1,0.5-0.3,0.8H210.1z M204.3,35.9
			L204.3,35.9c-0.4,0.5-0.9,1.1-1.5,1.6c0.7,0.3,1.2,0.7,1.6,1.2l0,0C204.3,37.1,204.3,36.2,204.3,35.9z M208.9,36.7L208.9,36.7
			c-0.4,0.1-0.7,0.2-0.8,0.4c-0.1,0.2-0.3,0.3-0.4,0.3c-0.1,0-0.3-0.2-0.6-0.7h0l0,1.7c0.3,0,0.5-0.1,0.6-0.3
			C207.8,38,208.2,37.5,208.9,36.7z M199.2,36.8h-1.5v1.7c0.5,0.2,0.8,0.4,1,0.5c0-0.2,0.2-0.3,0.5-0.3c0.3,0,0.5-0.1,0.8-0.3
			c0.2-0.1,0.7-0.7,1.5-1.6l0,0l-1,0.6c0,0.2-0.1,0.3-0.3,0.3c-0.1,0-0.3-0.1-0.4-0.3L199.2,36.8z M209,38.4L209,38.4l1.2,0
			c-0.1-0.3-0.2-0.5-0.3-0.6C209.5,38,209.2,38.3,209,38.4z M201.2,38.6L201.2,38.6l1.4,0c-0.1-0.3-0.2-0.6-0.3-0.7
			C201.8,38.3,201.4,38.5,201.2,38.6z M207.1,39.5L207.1,39.5c0,1.7,0.1,2.8,0.2,3.4h0.9v0c-0.1-0.1-0.2-0.3-0.2-0.8
			c0-0.5-0.2-0.9-0.7-1.3l0.3-0.3L207.1,39.5z M202.8,42.6l0,0.3h1.9c0-0.3-0.1-1-0.2-2.1c-0.2,0.2-0.5,0.3-0.8,0.3
			c-0.6,0-0.9-0.4-0.9-1.2v-0.4c-1.2,0.4-1.9,0.9-2.3,1.3l2.8,0.9c0.2,0.1,0.2,0.2,0.2,0.3c0,0.1-0.1,0.2-0.2,0.3L202.8,42.6z
			 M197.8,40L197.8,40l0,10.3h0.1c1.4-1.8,2.2-4,2.3-6.6c-0.5,0-0.9,0.1-1.4,0.2l-0.7-0.9h2.1l-0.1-1.9c-0.6,0.5-0.9,0.9-0.9,1.1
			c0,0.3-0.2,0.4-0.3,0.4c-0.2,0-0.4-0.1-0.4-0.4l-0.2-1C198.1,41,198,40.6,197.8,40z"/>
		<path class="st5" d="M242.7,44.8l-0.7,0.4v3.4l0.1,1.5c0.1,0.5-0.3,0.9-1,1.2c-0.7,0.4-1.2,0.5-1.6,0.5c-0.3,0-0.5-0.2-0.5-0.6
			v-1.5h-6.8v0.8c0,0.2-0.1,0.4-0.2,0.6c-0.2,0.1-0.5,0.3-1.1,0.5c-0.6,0.2-1,0.3-1.4,0.3c-0.3,0-0.4-0.1-0.4-0.4l0.2-3v-2.7
			l-0.1-1.4c-0.3,0.1-0.6,0.1-0.8,0.1c-0.1,0-0.1,0-0.2-0.2c-0.1-0.1-0.2-0.3-0.2-0.4l0.1-2.5v-3.2c-0.8,0.4-2,0.8-3.4,1.2l-0.2-0.4
			c4.2-2.4,7.6-5.6,10.1-9.5l3,1.7c0.1,0.1,0.2,0.2,0.2,0.3c0,0.1-0.1,0.2-0.3,0.3c-0.2,0.1-0.4,0.1-0.5,0.1
			c2.2,1.6,5.4,2.9,9.7,3.6l0,0.3c-1,0.1-1.8,0.9-2.2,2.5c-0.2-0.1-0.4-0.2-0.6-0.3l0,0c0,0,0,0.1,0,0.1c0,0.1-0.3,0.4-0.9,0.7v2.3
			l0.1,1.6c0,0.3-0.3,0.6-0.9,0.9c0.4,0.4,0.6,0.6,0.6,0.7C242.9,44.7,242.8,44.8,242.7,44.8z M231.4,37.9h8.5l0.9-1.4
			c-2.3-1.5-3.8-2.7-4.7-3.6c-1.1,1-2.3,2-3.5,2.9v0h3.6l0.9-1.3c0.1-0.1,0.2-0.2,0.3-0.2c0.1,0,0.2,0,0.3,0.1l1.6,1.4
			c0.1,0.1,0.1,0.2,0.1,0.3c0,0.2-0.1,0.3-0.2,0.3h-5.4c-0.7,0-1.4,0.1-1.9,0.3l-0.2-0.3l-1.2,0.7L231.4,37.9z M231.2,39.5
			L231.2,39.5l0,2.8h2.8v-3.7h-2.8l0,0.1c0.9,0.2,1.6,0.5,2.1,0.8c0.4,0.3,0.7,0.7,0.7,1.2c0,0.4-0.1,0.7-0.3,1
			c-0.2,0.3-0.5,0.4-0.8,0.4c-0.6,0-0.9-0.3-0.9-0.9C231.7,40.5,231.5,39.9,231.2,39.5z M236.8,41.7L236.8,41.7
			c0.4-0.6,0.8-1.7,1.3-3.2h-1.3V41.7z M238.5,38.5L238.5,38.5l1.5,1.1v-1.1H238.5z M240,42.2v-1.7h-0.2c-0.7,0.8-1.4,1.4-1.9,1.7v0
			H240z M231.1,43.5l1.4,0.7h6.4l1-1.3h-8.8V43.5z M232.3,46.6h6.8l0-1.7h-6.8V46.6z M239.1,47.3h-6.8v1.8h6.8V47.3z"/>
		<path class="st5" d="M273.2,29.6l2.1,3c0.1,0.1,0.1,0.2,0.1,0.3c0,0.2-0.1,0.3-0.2,0.3c-0.2,0.1-0.3,0.1-0.5,0l-1.3-0.3l-3.2,0.5
			v1.9h4.2l1.4-1.8c0.1-0.1,0.2-0.2,0.4-0.2c0.1,0,0.2,0.1,0.3,0.2l2.1,1.9c0.1,0.1,0.1,0.2,0.1,0.3c0,0.2-0.1,0.3-0.2,0.3h-6.4
			c1.5,1.6,4,2.5,7.6,2.9l-0.1,0.7c-1.3,0.1-2.2,0.7-2.8,1.9l1.8,1.3c0.1,0.1,0.2,0.2,0.2,0.3c0,0.2-0.1,0.3-0.4,0.3H274
			c-0.3,1-0.8,2.1-1.7,3.3c1,0.3,1.9,0.7,2.7,1.3c0.8,0.6,1.2,1.3,1.2,2.2c0,0.5-0.1,0.9-0.3,1.2c-0.2,0.3-0.5,0.4-0.8,0.4
			c-0.2,0-0.4-0.1-0.6-0.2c-1.5-1.3-3-2.2-4.6-2.8c-2.4,1.6-6.2,2.6-11.3,2.9l-0.2-0.6c3.2-0.8,5.9-1.9,8.1-3.3
			c-1.9-0.5-3.5-0.9-4.9-1.1c1-1.2,1.9-2.3,2.6-3.4h-3.3c-0.5,0-1.1,0.1-1.8,0.3l-1.2-1h6.7c0.7-1.3,1.2-2.1,1.3-2.6
			c0.2-0.4,0.3-0.7,0.3-0.9l0.8,0.4l0.1-0.9v-0.8c-2.2,2-5.2,3.4-8.9,4.3l-0.4-0.7c3.3-1.8,5.7-3.7,7.1-5.7h-4.5
			c-0.8,0-1.4,0.1-1.8,0.2l-0.9-0.9h9.5v-1.6c-2.6,0.2-4.9,0.2-7.1,0.2l-0.1-0.7C265.9,32.3,270.3,31.1,273.2,29.6z M268.2,42.9h6.6
			l0.9-1.2c-2.5-1.1-4.3-2.8-5.4-5.3h0v1.6l0.1,1.6c0,0.3-0.1,0.5-0.3,0.6c-0.2,0.1-0.6,0.3-1.4,0.5l0.8,0.4
			c0.2,0.1,0.2,0.2,0.2,0.4c0,0.2-0.1,0.3-0.3,0.4l-0.8,0.3L268.2,42.9z M270.5,43.5h-2.8c-1,1.3-1.6,2-1.8,2.3
			c0.7,0.1,1.6,0.2,2.8,0.4C269.5,45.4,270.1,44.5,270.5,43.5z"/>
		<path class="st5" d="M294.4,36.4l1.1,0.6l0.1-2v-2.5l-0.1-2.2l3.3,1.4h5.8l1.3-1.3c0.1-0.1,0.2-0.2,0.3-0.2c0.1,0,0.2,0,0.3,0.1
			l2,1.3c0.1,0.1,0.1,0.2,0.1,0.3c0,0.2-0.1,0.3-0.2,0.4l-0.8,0.7v2.1l0.1,1c0,0.4-0.1,0.6-0.3,0.7l1.9,1.3c0.1,0.1,0.2,0.2,0.2,0.3
			c0,0.1-0.1,0.3-0.2,0.4l-0.6,0.7v4.9l0.1,2c0,0.6-0.5,0.9-1.7,1.1v0c1.1,0.1,1.9,0.3,2.5,0.6c0.6,0.2,1,0.5,1.2,0.7
			c0.2,0.2,0.3,0.6,0.3,1.1c0,0.6-0.2,1-0.5,1.3c-0.3,0.3-0.6,0.5-0.8,0.5c-0.4,0-1.2-0.5-2.3-1.5c-1.1-1-2.9-1.8-5.3-2.5l0.1-0.5
			c0.8,0,1.9,0,3.3,0.2v-0.9h-8.2V47c0,0.4-0.3,0.7-1,1c-0.7,0.3-1.2,0.4-1.7,0.4c-0.1,0-0.2-0.1-0.3-0.2c-0.1-0.1-0.2-0.3-0.2-0.4
			c0,0,0-0.5,0.1-1.3c0.1-0.9,0.1-1.5,0.1-1.9v-5.5L294.4,36.4z M304.8,35.2v-2.8h-6.1v2.8H304.8z M296.6,37.6l1.1,0.6h7.9l0.7-0.8
			c-0.3,0-0.5,0-0.7,0c-0.5,0-0.7-0.2-0.7-0.5v-1h-6.1v0.6c0,0.2-0.1,0.3-0.2,0.4C298.4,37.1,297.8,37.3,296.6,37.6z M305.7,38.8
			h-8.2v1.7h8.2V38.8z M297.5,43.1h8.2v-2h-8.2V43.1z M305.7,43.8h-8.2v2.1h8.2V43.8z M291.8,51.6l-0.2-0.5c2.7-1,5.2-2.5,7.4-4.4
			l2.5,1.8c0.2,0.2,0.3,0.4,0.3,0.5c0,0.2-0.1,0.3-0.3,0.3l-0.3,0c-0.1,0-0.3,0-0.6,0.1c-0.3,0.1-0.7,0.2-1.4,0.5
			c-0.7,0.3-1.7,0.6-3.1,0.9C294.7,51.2,293.3,51.4,291.8,51.6z"/>
		<path class="st5" d="M341.7,44.8l-0.7,0.4v3.4l0.1,1.5c0.1,0.5-0.3,0.9-1,1.2c-0.7,0.4-1.2,0.5-1.6,0.5c-0.3,0-0.5-0.2-0.5-0.6
			v-1.5h-6.8v0.8c0,0.2-0.1,0.4-0.2,0.6c-0.2,0.1-0.5,0.3-1.1,0.5c-0.6,0.2-1,0.3-1.4,0.3c-0.3,0-0.4-0.1-0.4-0.4l0.2-3v-2.7
			l-0.1-1.4c-0.3,0.1-0.6,0.1-0.8,0.1c-0.1,0-0.1,0-0.2-0.2c-0.1-0.1-0.2-0.3-0.2-0.4l0.1-2.5v-3.2c-0.8,0.4-2,0.8-3.4,1.2l-0.2-0.4
			c4.2-2.4,7.6-5.6,10.1-9.5l3,1.7c0.1,0.1,0.2,0.2,0.2,0.3c0,0.1-0.1,0.2-0.3,0.3c-0.2,0.1-0.4,0.1-0.5,0.1
			c2.2,1.6,5.4,2.9,9.7,3.6l0,0.3c-1,0.1-1.8,0.9-2.2,2.5c-0.2-0.1-0.4-0.2-0.6-0.3l0,0c0,0,0,0.1,0,0.1c0,0.1-0.3,0.4-0.9,0.7v2.3
			L342,43c0,0.3-0.3,0.6-0.9,0.9c0.4,0.4,0.6,0.6,0.6,0.7C341.8,44.7,341.8,44.8,341.7,44.8z M330.3,37.9h8.5l0.9-1.4
			c-2.3-1.5-3.8-2.7-4.7-3.6c-1.1,1-2.3,2-3.5,2.9v0h3.6l0.9-1.3c0.1-0.1,0.2-0.2,0.3-0.2c0.1,0,0.2,0,0.3,0.1l1.6,1.4
			c0.1,0.1,0.1,0.2,0.1,0.3c0,0.2-0.1,0.3-0.2,0.3h-5.4c-0.7,0-1.4,0.1-1.9,0.3l-0.2-0.3l-1.2,0.7L330.3,37.9z M330.1,39.5
			L330.1,39.5l0,2.8h2.8v-3.7h-2.8l0,0.1c0.9,0.2,1.6,0.5,2.1,0.8c0.4,0.3,0.7,0.7,0.7,1.2c0,0.4-0.1,0.7-0.3,1
			c-0.2,0.3-0.5,0.4-0.8,0.4c-0.6,0-0.9-0.3-0.9-0.9C330.6,40.5,330.5,39.9,330.1,39.5z M335.8,41.7L335.8,41.7
			c0.4-0.6,0.8-1.7,1.3-3.2h-1.3V41.7z M337.5,38.5L337.5,38.5l1.5,1.1v-1.1H337.5z M339,42.2v-1.7h-0.2c-0.7,0.8-1.4,1.4-1.9,1.7v0
			H339z M330.1,43.5l1.4,0.7h6.4l1-1.3h-8.8V43.5z M331.2,46.6h6.8l0-1.7h-6.8V46.6z M338,47.3h-6.8v1.8h6.8V47.3z"/>
	</g>
	<g>
		<path class="st5" d="M128.7,62.8c0-0.8,0-0.8,1.4-0.8c2.2,0,1.3,1.3,1.8,1.3c0.3,0,0.2-0.4,0.2-0.5l0-1.1c0-0.1-0.1-0.2-0.2-0.2
			c-1,0-1.8,0-2.6,0c-1.7,0-2.5,0-3,0c-0.2,0-0.2,0.1-0.2,0.2c0,0.4,1.3,0.1,1.3,1.1V68c0,1.4-0.9,0.8-0.9,1.3
			c0,0.1,0.1,0.1,0.2,0.1c0.6,0,1.1,0,1.4,0c0.6,0,1.2,0,2.9,0c0.9,0,1.6-0.9,1.6-1.8c0-0.2-0.1-0.2-0.1-0.2c-0.4,0-0.3,1.5-3,1.5
			c-0.8,0-0.8-0.4-0.8-1.1v-1.4c0-0.6,0-0.8,0.5-0.8h0.8c1.2,0,0.9,1.2,1.2,1.2c0.3,0,0.2-0.4,0.2-0.5l-0.1-2c0-0.3-0.1-0.3-0.2-0.3
			c-0.2,0-0.3,1-1.2,1h-0.7c-0.5,0-0.5-0.1-0.5-0.6V62.8z"/>
		<path class="st5" d="M134.5,65.1c0-1.6,0.6-3.2,2.5-3.2c1.4,0,2.8,1.3,2.8,3.8c0,1.1-0.2,3.5-2.6,3.5
			C135.3,69.1,134.5,66.7,134.5,65.1z M137.8,70.9c0.8,0.5,1.3,0.5,1.6,0.5c0.9,0,1.9-0.9,1.9-1.1c0-0.1,0-0.1-0.1-0.1
			c-0.2,0-0.4,0.3-0.9,0.3c-0.6,0-2-0.8-2-1c0-0.2,2.9-0.8,2.9-4.3c0-2.4-1.7-3.8-3.9-3.8c-2.7,0-4.2,1.9-4.2,4.3
			c0,2.2,1.4,2.9,1.4,3.2c0,0.1-0.7,0.4-0.7,1.6c0,0.2,0,0.4,0.3,0.4c0.2,0,0.2-1.5,1.2-1.5c0.2,0,0.2,0.1,0.3,0.1L137.8,70.9z"/>
		<path class="st5" d="M149.5,62.8c0-1.3,0.8-0.9,0.8-1.2c0-0.1-0.1-0.1-0.2-0.1c-0.6,0-0.9,0-1.3,0c-0.3,0-0.6,0-0.9,0
			c-0.1,0-0.3-0.1-0.3,0.1c0,0.4,1.4,0.1,1.4,1.3v2.2c0,1.9-0.3,3.7-2.5,3.7c-2,0-2.5-1.4-2.5-3.1v-2.4c0-1.8,0.9-1.2,0.9-1.6
			c0-0.1,0-0.2-0.1-0.2c-0.2,0-1,0-1.6,0c-0.6,0-1.4,0-1.5,0c-0.1,0-0.2,0-0.2,0.2c0,0.4,1.2,0.1,1.2,1v3.7c0,2.2,1.1,3.1,3.2,3.1
			c3.1,0,3.7-1.9,3.7-4.2V62.8z"/>
		<path class="st5" d="M153.8,66.1c-0.2,0-0.4,0-0.4-0.1c0-0.2,0.1-0.3,0.1-0.4l0.9-2c0.1-0.1,0.1-0.1,0.1-0.1c0.1,0,0,0,0.1,0.1
			l0.9,2c0.1,0.1,0.1,0.3,0.1,0.4c0,0.1-0.2,0.1-0.4,0.1H153.8z M155.7,66.7c0.3,0,0.3,0.1,0.7,1c0.1,0.3,0.2,0.5,0.2,0.8
			c0,0.7-0.8,0.6-0.8,0.9c0,0.2,0.1,0.1,0.3,0.1c0.3,0,0.7,0,1.2,0c0.7,0,1,0,1.4,0c0.3,0,0.4,0,0.4-0.2c0-0.4-0.6,0.1-1-0.7l-3-6.9
			c-0.1-0.3-0.2-0.4-0.3-0.4c-0.1,0-0.2,0.2-0.3,0.4l-3,6.8c-0.3,0.6-0.9,0.6-0.9,0.8c0,0.1,0.2,0.1,0.3,0.1c0.3,0,0.6,0,1,0
			c0.4,0,0.7,0,1.1,0c0.2,0,0.6,0.1,0.6-0.2c0-0.3-1.2-0.1-1.2-0.9c0-0.3,0.2-0.7,0.2-0.9c0.3-0.7,0.5-0.8,0.7-0.8H155.7z"/>
		<path class="st5" d="M162,62.5c0-0.9,0.8-0.4,0.8-0.9c0-0.1-0.1-0.1-0.3-0.1c-0.2,0-0.3,0-1.3,0c-0.4,0-1.1,0-1.5,0
			c-0.2,0-0.4,0.1-0.4,0.2c0,0.4,1.3,0.1,1.3,1V68c0,1.4-0.9,0.8-0.9,1.3c0,0.1,0.1,0.1,0.2,0.1c0.6,0,1.1,0,1.4,0
			c0.6,0,1.2,0,2.9,0c0.9,0,1.6-0.9,1.6-1.8c0-0.2-0.1-0.2-0.1-0.2c-0.4,0-0.3,1.5-3,1.5c-0.8,0-0.8-0.4-0.8-1.1V62.5z"/>
		<path class="st5" d="M169.6,65.7c0,2.3,1.5,3.8,3.8,3.8c3.6,0,4.3-2.7,4.3-4.3c0-2.4-1.7-3.8-3.9-3.8
			C171.1,61.4,169.6,63.3,169.6,65.7z M171,65.1c0-1.6,0.6-3.2,2.5-3.2c1.4,0,2.8,1.3,2.8,3.8c0,1.9-0.6,3.4-2.6,3.4
			C171.7,69,171,66.7,171,65.1z"/>
		<path class="st5" d="M180.7,62.7c0-0.5,0.2-0.7,0.7-0.7c1.7,0,1.8,1.6,1.8,1.9c0,0.3-0.1,1.6-1.5,1.6c-0.2,0-0.4-0.1-0.5-0.1
			c-0.1,0-0.2,0.1-0.2,0.2c0,0,0.1,0.3,1.2,0.3c1.3,0,2.4-0.9,2.4-2.3c0-1.6-1.4-2.2-2.8-2.2c-0.8,0-1.6,0-1.7,0c-0.9,0-1.5,0-1.5,0
			c-0.3,0-0.3,0.1-0.3,0.2c0,0.4,1.2,0,1.2,1.1v4.9c0,1.4-0.9,1.2-0.9,1.5c0,0.2,0.2,0.2,0.2,0.2c0.1,0,0.9,0,1.4,0
			c0.2,0,0.7,0,1.5,0c0.2,0,0.3,0,0.3-0.2c0-0.4-1.1,0-1.1-1.4V62.7z"/>
		<path class="st5" d="M187.5,62.7c0-0.5,0.2-0.7,0.7-0.7c1.7,0,1.8,1.6,1.8,1.9c0,0.3-0.1,1.6-1.5,1.6c-0.2,0-0.4-0.1-0.5-0.1
			c-0.1,0-0.2,0.1-0.2,0.2c0,0,0.1,0.3,1.2,0.3c1.3,0,2.4-0.9,2.4-2.3c0-1.6-1.4-2.2-2.8-2.2c-0.8,0-1.6,0-1.7,0c-0.9,0-1.5,0-1.5,0
			c-0.3,0-0.3,0.1-0.3,0.2c0,0.4,1.2,0,1.2,1.1v4.9c0,1.4-0.9,1.2-0.9,1.5c0,0.2,0.2,0.2,0.2,0.2c0.1,0,0.9,0,1.4,0
			c0.2,0,0.7,0,1.5,0c0.2,0,0.3,0,0.3-0.2c0-0.4-1.1,0-1.1-1.4V62.7z"/>
		<path class="st5" d="M192,65.7c0,2.3,1.5,3.8,3.8,3.8c3.6,0,4.3-2.7,4.3-4.3c0-2.4-1.7-3.8-3.9-3.8C193.5,61.4,192,63.3,192,65.7z
			 M193.4,65.1c0-1.6,0.6-3.2,2.5-3.2c1.4,0,2.8,1.3,2.8,3.8c0,1.9-0.6,3.4-2.6,3.4C194.1,69,193.4,66.7,193.4,65.1z"/>
		<path class="st5" d="M203.1,62.6c0-0.7,0.3-0.7,0.8-0.7c1.1,0,1.8,0.8,1.8,1.9c0,0.7-0.1,1.3-1.8,1.3c-0.3,0-0.8,0-0.8-0.3V62.6z
			 M201.8,67.8c0,1.4-0.9,1-0.9,1.4c0,0.2,0.2,0.2,0.4,0.2c0.6,0,1.1,0,1.7,0c0.5,0,0.8,0,1,0c0.3,0,0.3-0.1,0.3-0.2
			c0-0.4-1.1,0.1-1.1-1.1v-1.9c0-0.4-0.1-0.5,0.5-0.5c0.6,0,0.8,0.1,1,0.6l0.9,1.8c0.3,0.6,0.7,1.4,1.6,1.4c0.4,0,1.2-0.2,1.2-0.6
			c0-0.1-0.1-0.2-0.2-0.2c-0.1,0-0.2,0.1-0.3,0.1c-0.1,0-0.3,0-0.4-0.2c-0.8-1.4-1.8-3-1.8-3.1c0-0.1,0.3-0.2,0.6-0.5
			c0.3-0.3,0.6-0.7,0.6-1.4c0-0.5-0.2-2.1-2.7-2.1c-0.8,0-1.5,0-2.3,0c-0.7,0-0.8,0-1.3,0c-0.1,0-0.2,0.1-0.2,0.2
			c0,0.4,1.2,0,1.2,1.2V67.8z"/>
		<path class="st5" d="M211.1,67.9c0,1.3-1.3,0.8-1.3,1.2c0,0.2,0.2,0.2,0.4,0.2c0.4,0,0.8,0,1.6,0c0.8,0,1.1,0,1.6,0
			c0.3,0,0.5,0,0.5-0.2c0-0.3-1.4,0-1.4-1.4v-5.1c0-0.5,0.1-0.6,0.6-0.6h1c1.3,0,0.9,1.2,1.4,1.2c0.3,0,0.2-0.4,0.1-0.6l-0.1-1
			c0-0.1,0-0.3-0.2-0.3c-1,0-1.8,0-3.4,0c-1.6,0-2.4,0-3.4,0c-0.2,0-0.2,0.2-0.2,0.3l-0.2,1.5c0,0.1-0.1,0.4,0.1,0.4
			c0.5,0,0.2-1.5,1.4-1.5h0.9c0.5,0,0.6,0.1,0.6,0.6V67.9z"/>
		<path class="st5" d="M224,62.8c0-1.3,0.8-0.9,0.8-1.2c0-0.1-0.1-0.1-0.2-0.1c-0.6,0-0.9,0-1.3,0c-0.3,0-0.6,0-0.9,0
			c-0.1,0-0.3-0.1-0.3,0.1c0,0.4,1.4,0.1,1.4,1.3v2.2c0,1.9-0.3,3.7-2.5,3.7c-2,0-2.5-1.4-2.5-3.1v-2.4c0-1.8,0.9-1.2,0.9-1.6
			c0-0.1,0-0.2-0.1-0.2c-0.2,0-1,0-1.6,0c-0.6,0-1.4,0-1.5,0c-0.1,0-0.2,0-0.2,0.2c0,0.4,1.2,0.1,1.2,1v3.7c0,2.2,1.1,3.1,3.2,3.1
			c3.1,0,3.7-1.9,3.7-4.2V62.8z"/>
		<path class="st5" d="M226.5,67.9c0,1.1-1.1,0.9-1.1,1.4c0,0.2,0.2,0.1,0.3,0.1c0.3,0,0.6,0,1,0c0.4,0,0.8,0,1.3,0
			c0.1,0,0.4,0,0.4-0.1c0-0.5-1.4,0.2-1.4-1.9v-3.8c0-0.1,0-0.2,0.1-0.2c0.1,0,0.1,0.1,0.2,0.1l5.4,5.8c0.1,0.1,0.1,0.2,0.3,0.2
			c0.1,0,0.1-0.1,0.1-0.3v-6.3c0-1.2,1-0.9,1-1.2c0,0,0-0.1-0.2-0.1c-0.1,0-0.5,0-1.2,0c-0.8,0-1.1,0-1.3,0c-0.1,0-0.2,0.1-0.2,0.2
			c0,0.4,1.4,0.2,1.4,1.2v3.7c0,0.3,0,0.4-0.1,0.4s-0.2-0.1-0.3-0.3l-4.5-4.9c-0.2-0.2-0.1-0.3-0.4-0.3c-0.6,0-0.9,0-1.2,0
			c-0.2,0-0.4,0-0.6,0c-0.1,0-0.2,0.1-0.2,0.2c0,0.5,1.3-0.2,1.3,2V67.9z"/>
		<path class="st5" d="M237.3,62.7c0-1.1,0.8-0.7,0.8-1c0-0.1-0.1-0.2-0.4-0.2c-0.6,0-1,0-1.4,0c-0.4,0-0.8,0-1.3,0
			c-0.1,0-0.4,0-0.4,0.2c0,0.4,1.3,0.1,1.3,1.1v5.4c0,1.1-0.8,0.8-0.8,1.2c0,0.1,0,0.1,0.1,0.1c0.3,0,0.8,0,1.3,0c0.9,0,1.3,0,1.7,0
			c0.3,0,0.4,0,0.4-0.2c0-0.4-1.3,0.2-1.3-1.2V62.7z"/>
		<path class="st5" d="M242.2,67.9c0,1.3-1.3,0.8-1.3,1.2c0,0.2,0.2,0.2,0.4,0.2c0.4,0,0.8,0,1.6,0c0.8,0,1.1,0,1.6,0
			c0.3,0,0.5,0,0.5-0.2c0-0.3-1.4,0-1.4-1.4v-5.1c0-0.5,0.1-0.6,0.6-0.6h1c1.3,0,0.9,1.2,1.4,1.2c0.3,0,0.2-0.4,0.1-0.6l-0.1-1
			c0-0.1,0-0.3-0.2-0.3c-1,0-1.8,0-3.4,0c-1.6,0-2.4,0-3.4,0c-0.2,0-0.2,0.2-0.2,0.3l-0.2,1.5c0,0.1-0.1,0.4,0.1,0.4
			c0.5,0,0.2-1.5,1.4-1.5h0.9c0.5,0,0.6,0.1,0.6,0.6V67.9z"/>
		<path class="st5" d="M249.8,62.7c0-1.1,0.8-0.7,0.8-1c0-0.1-0.1-0.2-0.4-0.2c-0.6,0-1,0-1.4,0c-0.4,0-0.8,0-1.3,0
			c-0.1,0-0.4,0-0.4,0.2c0,0.4,1.3,0.1,1.3,1.1v5.4c0,1.1-0.8,0.8-0.8,1.2c0,0.1,0,0.1,0.1,0.1c0.3,0,0.8,0,1.3,0c0.9,0,1.3,0,1.7,0
			c0.3,0,0.4,0,0.4-0.2c0-0.4-1.3,0.2-1.3-1.2V62.7z"/>
		<path class="st5" d="M253.9,62.8c0-0.8,0-0.8,1.4-0.8c2.2,0,1.3,1.3,1.8,1.3c0.3,0,0.2-0.4,0.2-0.5l0-1.1c0-0.1-0.1-0.2-0.2-0.2
			c-1,0-1.8,0-2.6,0c-1.7,0-2.5,0-3,0c-0.2,0-0.2,0.1-0.2,0.2c0,0.4,1.3,0.1,1.3,1.1V68c0,1.4-0.9,0.8-0.9,1.3
			c0,0.1,0.1,0.1,0.2,0.1c0.6,0,1.1,0,1.4,0c0.6,0,1.2,0,2.9,0c0.9,0,1.6-0.9,1.6-1.8c0-0.2-0.1-0.2-0.1-0.2c-0.4,0-0.3,1.5-3,1.5
			c-0.8,0-0.8-0.4-0.8-1.1v-1.4c0-0.6,0-0.8,0.5-0.8h0.8c1.2,0,0.9,1.2,1.2,1.2c0.3,0,0.2-0.4,0.2-0.5l-0.1-2c0-0.3-0.1-0.3-0.2-0.3
			c-0.2,0-0.3,1-1.2,1h-0.7c-0.5,0-0.5-0.1-0.5-0.6V62.8z"/>
		<path class="st5" d="M259.1,68.7c0.1,0.3,0,0.4,0.3,0.4c0.6,0.1,1.2,0.4,1.9,0.4c1.5,0,2.5-1,2.5-2.5c0-1.4-0.7-1.9-1.9-2.4
			c-1.5-0.7-2.1-0.8-2.1-1.6s0.5-1.2,1.2-1.2c1.9,0,2.1,2.1,2.4,2.1c0.2,0,0.3-0.1,0.3-0.4l-0.1-1.5c0-0.3,0-0.4-0.2-0.4
			c-0.1,0-0.4,0.2-0.6,0.2c-0.3,0-0.8-0.4-1.7-0.4c-1.3,0-2.2,0.9-2.2,2.2c0,1.2,0.7,1.6,1.6,2c1.8,0.8,2.5,0.9,2.5,1.9
			c0,0.9-0.7,1.4-1.5,1.4c-1.2,0-1.9-1-2.3-2.1c0-0.1-0.1-0.2-0.2-0.2c-0.3,0-0.2,0.3-0.1,0.5L259.1,68.7z"/>
		<path class="st5" d="M274.8,61.8c0-0.1-0.1-0.1-0.1-0.1c-0.2,0-0.2,0.4-0.4,0.4c-0.3,0-1.2-0.7-2.6-0.7c-2.8,0-4,2.5-4,4.4
			c0,0.9,0.5,3.8,3.8,3.8c2.4,0,3.6-1.7,3.6-2.1c0-0.1-0.1-0.1-0.2-0.1c-0.3,0-1.1,1.5-2.8,1.5c-2.1,0-3-2.2-3-3.8
			c0-1.5,0.9-3.1,2.6-3.1c1.3,0,2.3,1,2.8,2.1c0.1,0.1,0.2,0.4,0.3,0.4c0.2,0,0.1-0.3,0.1-0.4L274.8,61.8z"/>
		<path class="st5" d="M275.9,65.7c0,2.3,1.5,3.8,3.8,3.8c3.6,0,4.3-2.7,4.3-4.3c0-2.4-1.7-3.8-3.9-3.8
			C277.3,61.4,275.9,63.3,275.9,65.7z M277.2,65.1c0-1.6,0.6-3.2,2.5-3.2c1.4,0,2.8,1.3,2.8,3.8c0,1.9-0.6,3.4-2.6,3.4
			C277.9,69,277.2,66.7,277.2,65.1z"/>
		<path class="st5" d="M286.1,64.4c0-0.1,0-0.3,0.1-0.3c0,0,0.1,0.1,0.1,0.2l2.2,4.8c0.1,0.1,0.1,0.3,0.3,0.3c0.2,0,0.2-0.2,0.3-0.3
			l2.1-4.4c0.2-0.4,0.3-0.6,0.3-0.6c0.1,0,0.1,0.2,0.1,0.5l0.2,3.4c0.1,1.2-0.8,0.9-0.8,1.3c0,0.2,0.3,0.2,0.5,0.2
			c0.3,0,0.5,0,1.3,0c0.3,0,0.6,0,1,0c0.4,0,0.5,0,0.5-0.2c0-0.4-1,0.1-1.1-1.4l-0.2-5c0-1.3,1.1-0.9,1.1-1.3c0-0.1,0-0.1-0.3-0.1
			c-0.3,0-0.5,0-0.7,0c-0.2,0-0.4,0-0.6,0c-0.2,0-0.2,0.1-0.3,0.2l-2.6,5.4c0,0-0.1,0.2-0.2,0.2c-0.1,0-0.1-0.1-0.1-0.2l-2.5-5.4
			c-0.2-0.3-0.3-0.3-0.4-0.3c-0.4,0-0.8,0-1,0c-0.4,0-0.5,0-0.7,0c-0.1,0-0.1,0.1-0.1,0.2c0,0.5,1.2,0,1.1,1.8l-0.2,4.5
			c0,1.2-1,0.9-1,1.3c0,0.1,0,0.2,0.2,0.2s0.6,0,1.1,0c0.5,0,0.8,0,1.2,0c0.3,0,0.3-0.1,0.3-0.2c0-0.5-1.2,0.2-1.2-1.7L286.1,64.4z"
			/>
		<path class="st5" d="M296,64.4c0-0.1,0-0.3,0.1-0.3c0,0,0.1,0.1,0.1,0.2l2.2,4.8c0.1,0.1,0.1,0.3,0.3,0.3c0.2,0,0.2-0.2,0.3-0.3
			l2.1-4.4c0.2-0.4,0.3-0.6,0.3-0.6c0.1,0,0.1,0.2,0.1,0.5l0.2,3.4c0.1,1.2-0.8,0.9-0.8,1.3c0,0.2,0.3,0.2,0.5,0.2
			c0.3,0,0.5,0,1.3,0c0.3,0,0.6,0,1,0c0.4,0,0.5,0,0.5-0.2c0-0.4-1,0.1-1.1-1.4l-0.2-5c0-1.3,1.1-0.9,1.1-1.3c0-0.1,0-0.1-0.3-0.1
			c-0.3,0-0.5,0-0.7,0c-0.2,0-0.4,0-0.6,0c-0.2,0-0.2,0.1-0.3,0.2l-2.6,5.4c0,0-0.1,0.2-0.2,0.2c-0.1,0-0.1-0.1-0.1-0.2l-2.5-5.4
			c-0.2-0.3-0.3-0.3-0.4-0.3c-0.4,0-0.8,0-1,0c-0.4,0-0.5,0-0.7,0c-0.1,0-0.1,0.1-0.1,0.2c0,0.5,1.2,0,1.1,1.8l-0.2,4.5
			c0,1.2-1,0.9-1,1.3c0,0.1,0,0.2,0.2,0.2c0.2,0,0.6,0,1.1,0c0.5,0,0.8,0,1.2,0c0.3,0,0.3-0.1,0.3-0.2c0-0.5-1.2,0.2-1.2-1.7
			L296,64.4z"/>
		<path class="st5" d="M307.1,62.7c0-1.1,0.8-0.7,0.8-1c0-0.1-0.1-0.2-0.4-0.2c-0.6,0-1,0-1.4,0c-0.4,0-0.8,0-1.3,0
			c-0.1,0-0.4,0-0.4,0.2c0,0.4,1.3,0.1,1.3,1.1v5.4c0,1.1-0.8,0.8-0.8,1.2c0,0.1,0,0.1,0.1,0.1c0.3,0,0.8,0,1.3,0c0.9,0,1.3,0,1.7,0
			c0.3,0,0.4,0,0.4-0.2c0-0.4-1.3,0.2-1.3-1.2V62.7z"/>
		<path class="st5" d="M309.5,68.7c0.1,0.3,0,0.4,0.3,0.4c0.6,0.1,1.2,0.4,1.9,0.4c1.5,0,2.5-1,2.5-2.5c0-1.4-0.7-1.9-1.9-2.4
			c-1.5-0.7-2.1-0.8-2.1-1.6s0.5-1.2,1.2-1.2c1.9,0,2.1,2.1,2.4,2.1c0.2,0,0.3-0.1,0.3-0.4l-0.1-1.5c0-0.3,0-0.4-0.2-0.4
			c-0.1,0-0.4,0.2-0.6,0.2c-0.3,0-0.8-0.4-1.7-0.4c-1.3,0-2.2,0.9-2.2,2.2c0,1.2,0.7,1.6,1.6,2c1.8,0.8,2.5,0.9,2.5,1.9
			c0,0.9-0.7,1.4-1.5,1.4c-1.2,0-1.9-1-2.3-2.1c0-0.1-0.1-0.2-0.2-0.2c-0.3,0-0.2,0.3-0.1,0.5L309.5,68.7z"/>
		<path class="st5" d="M315.7,68.7c0.1,0.3,0,0.4,0.3,0.4c0.6,0.1,1.2,0.4,1.9,0.4c1.5,0,2.5-1,2.5-2.5c0-1.4-0.7-1.9-1.9-2.4
			c-1.5-0.7-2.1-0.8-2.1-1.6s0.5-1.2,1.2-1.2c1.9,0,2.1,2.1,2.4,2.1c0.2,0,0.3-0.1,0.3-0.4l-0.1-1.5c0-0.3,0-0.4-0.2-0.4
			c-0.1,0-0.4,0.2-0.6,0.2c-0.3,0-0.8-0.4-1.7-0.4c-1.3,0-2.2,0.9-2.2,2.2c0,1.2,0.7,1.6,1.6,2c1.8,0.8,2.5,0.9,2.5,1.9
			c0,0.9-0.7,1.4-1.5,1.4c-1.2,0-1.9-1-2.3-2.1c0-0.1-0.1-0.2-0.2-0.2c-0.3,0-0.2,0.3-0.1,0.5L315.7,68.7z"/>
		<path class="st5" d="M323.9,62.7c0-1.1,0.8-0.7,0.8-1c0-0.1-0.1-0.2-0.4-0.2c-0.6,0-1,0-1.4,0c-0.4,0-0.8,0-1.3,0
			c-0.1,0-0.4,0-0.4,0.2c0,0.4,1.3,0.1,1.3,1.1v5.4c0,1.1-0.8,0.8-0.8,1.2c0,0.1,0,0.1,0.1,0.1c0.3,0,0.8,0,1.3,0c0.9,0,1.3,0,1.7,0
			c0.3,0,0.4,0,0.4-0.2c0-0.4-1.3,0.2-1.3-1.2V62.7z"/>
		<path class="st5" d="M325.7,65.7c0,2.3,1.5,3.8,3.8,3.8c3.6,0,4.3-2.7,4.3-4.3c0-2.4-1.7-3.8-3.9-3.8
			C327.2,61.4,325.7,63.3,325.7,65.7z M327,65.1c0-1.6,0.6-3.2,2.5-3.2c1.4,0,2.8,1.3,2.8,3.8c0,1.9-0.6,3.4-2.6,3.4
			C327.8,69,327,66.7,327,65.1z"/>
		<path class="st5" d="M335.4,67.9c0,1.1-1.1,0.9-1.1,1.4c0,0.2,0.2,0.1,0.3,0.1c0.3,0,0.6,0,1,0c0.4,0,0.8,0,1.3,0
			c0.1,0,0.4,0,0.4-0.1c0-0.5-1.4,0.2-1.4-1.9v-3.8c0-0.1,0-0.2,0.1-0.2c0.1,0,0.1,0.1,0.2,0.1l5.4,5.8c0.1,0.1,0.1,0.2,0.3,0.2
			c0.1,0,0.1-0.1,0.1-0.3v-6.3c0-1.2,1-0.9,1-1.2c0,0,0-0.1-0.2-0.1c-0.1,0-0.5,0-1.2,0c-0.8,0-1.1,0-1.3,0c-0.1,0-0.2,0.1-0.2,0.2
			c0,0.4,1.4,0.2,1.4,1.2v3.7c0,0.3,0,0.4-0.1,0.4c-0.1,0-0.2-0.1-0.3-0.3l-4.5-4.9c-0.2-0.2-0.1-0.3-0.4-0.3c-0.6,0-0.9,0-1.2,0
			c-0.2,0-0.4,0-0.6,0c-0.1,0-0.2,0.1-0.2,0.2c0,0.5,1.3-0.2,1.3,2V67.9z"/>
	</g>
</g>
</svg>
